<svg width="1283" height="687" xmlns="http://www.w3.org/2000/svg" xmlns:xlink="http://www.w3.org/1999/xlink" xml:space="preserve" overflow="hidden"><g transform="translate(-366 -793)"><path d="M1113.5 993.5 1113.5 1251.84" stroke="#FFC000" stroke-width="20.625" stroke-miterlimit="8" fill="none" fill-rule="evenodd"/><path d="M1204.5 993.5 1204.5 1251.84" stroke="#FFC000" stroke-width="20.625" stroke-miterlimit="8" fill="none" fill-rule="evenodd"/><path d="M1295.5 993.5 1295.5 1251.84" stroke="#FFC000" stroke-width="20.625" stroke-miterlimit="8" fill="none" fill-rule="evenodd"/><path d="M655.5 993.5 655.5 1251.84" stroke="#FFC000" stroke-width="20.625" stroke-miterlimit="8" fill="none" fill-rule="evenodd"/><path d="M742.5 993.5 742.5 1251.84" stroke="#FFC000" stroke-width="20.625" stroke-miterlimit="8" fill="none" fill-rule="evenodd"/><path d="M924.5 993.5 924.5 1251.84" stroke="#FFC000" stroke-width="20.625" stroke-miterlimit="8" fill="none" fill-rule="evenodd"/><path d="M582.5 1249.78 1362.98 1249.78 1362.98 1253.22 582.5 1253.22ZM1362.98 1251.5 1344.64 1228.58 1390.48 1251.5 1344.64 1274.42Z"/><path d="M1.71875-1.48358e-06 1.71909 390.598-1.71841 390.598-1.71875 1.48358e-06ZM0.000337155 390.599 22.917 372.265 0.000360892 418.099-22.9163 372.265Z" transform="matrix(1 0 0 -1 588.5 1257.6)"/><path d="M1362.49 1172.39 1366.8 1172.39 1365.08 1180.1 1374.58 1180.1 1373.89 1183.26 1364.39 1183.26 1361.61 1195.39C1361.07 1197.74 1360.73 1199.43 1360.58 1200.46 1360.43 1201.49 1360.36 1202.32 1360.36 1202.95 1360.36 1205.53 1361.43 1206.82 1363.58 1206.82 1364.5 1206.82 1365.47 1206.47 1366.5 1205.78 1367.53 1205.08 1368.76 1203.89 1370.17 1202.2L1371.99 1204.07C1370.17 1206.26 1368.43 1207.87 1366.75 1208.92 1365.08 1209.96 1363.32 1210.48 1361.49 1210.48 1357.13 1210.48 1354.96 1208.28 1354.96 1203.89 1354.96 1202.49 1355.13 1201.02 1355.49 1199.48L1359.17 1183.26 1353.92 1183.26 1354.39 1181.1C1355.62 1181.08 1356.55 1180.99 1357.19 1180.82 1357.83 1180.66 1358.36 1180.43 1358.78 1180.14 1359.21 1179.84 1359.6 1179.43 1359.96 1178.89 1360.31 1178.34 1360.65 1177.65 1360.99 1176.81 1361.32 1175.96 1361.82 1174.49 1362.49 1172.39Z" fill-rule="evenodd"/><text fill="#000000" fill-opacity="0" font-family="Arial,Arial_MSFontService,sans-serif" font-size="38.0938" x="1353.92" y="1205.72">𝑡</text><path d="M418.8 848.372C416.633 848.372 414.743 849.278 413.128 851.09 411.514 852.903 410.243 855.497 409.316 858.872 408.389 862.247 407.925 865.153 407.925 867.59 407.925 869.882 408.399 871.575 409.347 872.668 410.295 873.762 411.727 874.309 413.644 874.309 415.685 874.309 417.498 873.392 419.081 871.559 420.665 869.726 421.915 867.158 422.831 863.856 423.748 860.554 424.206 857.653 424.206 855.153 424.206 852.903 423.769 851.21 422.894 850.075 422.019 848.939 420.654 848.372 418.8 848.372ZM419.425 845.872C422.758 845.872 425.3 846.783 427.05 848.606 428.8 850.429 429.675 853.038 429.675 856.434 429.675 858.851 429.253 861.434 428.409 864.184 427.566 866.934 426.409 869.247 424.941 871.122 423.472 872.997 421.717 874.408 419.675 875.356 417.633 876.304 415.29 876.778 412.644 876.778 409.415 876.778 406.909 875.872 405.128 874.059 403.347 872.247 402.456 869.642 402.456 866.247 402.456 864.58 402.706 862.653 403.206 860.465 403.852 857.507 404.935 854.924 406.456 852.715 407.977 850.507 409.852 848.814 412.081 847.637 414.31 846.46 416.758 845.872 419.425 845.872Z" fill-rule="evenodd"/><text fill="#000000" fill-opacity="0" font-family="Arial,Arial_MSFontService,sans-serif" font-size="30.9062" x="402.456" y="872.914">𝑜</text><path d="M459.346 831.09 460.19 833.497C455.315 835.101 451.705 838.231 449.362 842.887 447.018 847.543 445.846 853.392 445.846 860.434 445.846 867.726 447.018 873.736 449.362 878.465 451.705 883.194 455.283 886.361 460.096 887.965L459.346 890.372C453.242 888.767 448.565 885.314 445.315 880.012 442.065 874.71 440.44 868.288 440.44 860.747 440.44 853.226 442.07 846.804 445.33 841.481 448.591 836.158 453.263 832.694 459.346 831.09Z" fill-rule="evenodd"/><text fill="#000000" fill-opacity="0" font-family="Arial,Arial_MSFontService,sans-serif" font-size="59.2812" x="440.44" y="882.961">(</text><path d="M473.388 838.653 477.7 838.653 475.981 846.372 485.481 846.372 484.794 849.528 475.294 849.528 472.513 861.653C471.971 864.007 471.627 865.7 471.481 866.731 471.336 867.762 471.263 868.59 471.263 869.215 471.263 871.799 472.336 873.09 474.481 873.09 475.398 873.09 476.372 872.741 477.403 872.043 478.434 871.345 479.658 870.153 481.075 868.465L482.888 870.34C481.075 872.528 479.33 874.142 477.653 875.184 475.976 876.226 474.221 876.747 472.388 876.747 468.033 876.747 465.856 874.549 465.856 870.153 465.856 868.757 466.033 867.288 466.388 865.747L470.075 849.528 464.825 849.528 465.294 847.372C466.523 847.351 467.455 847.257 468.091 847.09 468.726 846.924 469.257 846.694 469.684 846.403 470.112 846.111 470.502 845.694 470.856 845.153 471.211 844.611 471.554 843.918 471.888 843.075 472.221 842.231 472.721 840.757 473.388 838.653Z" fill-rule="evenodd"/><text fill="#000000" fill-opacity="0" font-family="Arial,Arial_MSFontService,sans-serif" font-size="38.0938" x="464.825" y="871.985">𝑡</text><path d="M489.967 831.09C496.05 832.694 500.722 836.158 503.982 841.481 507.243 846.804 508.873 853.226 508.873 860.747 508.873 868.288 507.248 874.71 503.998 880.012 500.748 885.314 496.071 888.767 489.967 890.372L489.217 887.965C494.029 886.361 497.607 883.194 499.951 878.465 502.295 873.736 503.467 867.726 503.467 860.434 503.467 853.392 502.3 847.543 499.967 842.887 497.633 838.231 494.019 835.101 489.123 833.497Z" fill-rule="evenodd"/><text fill="#000000" fill-opacity="0" font-family="Arial,Arial_MSFontService,sans-serif" font-size="59.2812" x="489.123" y="882.961">)</text><path d="M616 944.781 1288.3 944.781 1288.3 948.219 616 948.219ZM616 946.5 634.333 969.417 588.5 946.5 634.333 923.583ZM1288.3 946.5 1269.97 923.583 1315.8 946.5 1269.97 969.417Z"/><path d="M936.295 884.843 968.92 884.843 966.482 895.843 963.482 895.843C963.482 893.823 963.43 892.307 963.326 891.297 963.222 890.286 963.024 889.515 962.732 888.984 962.441 888.453 962.081 888.088 961.654 887.89 961.227 887.692 960.472 887.593 959.388 887.593L954.763 887.593 947.982 918.406C947.795 919.218 947.665 919.864 947.592 920.343 947.519 920.823 947.456 921.328 947.404 921.859 947.352 922.39 947.326 922.864 947.326 923.281 947.326 923.927 947.43 924.432 947.638 924.797 947.847 925.161 948.159 925.427 948.576 925.593 948.993 925.76 949.711 925.885 950.732 925.968L950.388 927.5 937.232 927.5 937.576 925.968C938.409 925.843 939.024 925.677 939.42 925.468 939.816 925.26 940.165 924.937 940.467 924.5 940.769 924.062 941.071 923.375 941.373 922.437 941.675 921.5 942.034 920.083 942.451 918.187L949.138 887.593 945.17 887.593C943.878 887.593 942.847 887.781 942.076 888.156 941.305 888.531 940.534 889.229 939.763 890.25 938.993 891.271 938.055 892.979 936.951 895.375L933.951 895.375Z" fill-rule="evenodd"/><text fill="#000000" fill-opacity="0" font-family="Arial,Arial_MSFontService,sans-serif" font-size="42.6562" x="933.951" y="922.168">𝑇</text><path d="M1258.22 1387.78C1259.53 1387.78 1260.57 1388.21 1261.33 1389.08 1262.09 1389.94 1262.47 1391.07 1262.47 1392.47 1262.47 1393.51 1262.27 1394.58 1261.88 1395.69L1262.28 1395.84C1264.33 1393.07 1266.29 1391.04 1268.17 1389.75 1270.06 1388.46 1271.97 1387.81 1273.91 1387.81 1275.43 1387.81 1276.7 1387.93 1277.72 1388.16L1276.22 1395.16 1273 1395.16C1272.88 1394.28 1272.7 1393.6 1272.47 1393.12 1272.24 1392.64 1271.97 1392.31 1271.66 1392.12 1271.35 1391.94 1270.95 1391.84 1270.47 1391.84 1269.72 1391.84 1268.9 1392.17 1268.02 1392.81 1267.13 1393.46 1266.14 1394.47 1265.03 1395.84 1263.93 1397.22 1263.05 1398.54 1262.39 1399.81 1261.74 1401.08 1261.19 1402.7 1260.75 1404.66L1257.78 1418.19 1252.38 1418.19 1256.91 1398.37C1257.2 1397.12 1257.39 1396.16 1257.47 1395.47 1257.55 1394.78 1257.6 1394.21 1257.6 1393.75 1257.6 1392.92 1257.46 1392.31 1257.19 1391.94 1256.92 1391.56 1256.49 1391.37 1255.91 1391.37 1255.26 1391.37 1254.58 1391.64 1253.86 1392.17 1253.14 1392.7 1252.16 1393.67 1250.91 1395.06L1249.13 1393.31C1251.04 1391.31 1252.65 1389.89 1253.94 1389.05 1255.23 1388.2 1256.66 1387.78 1258.22 1387.78ZM1241.85 1373.31C1243.89 1373.31 1245.65 1373.48 1247.13 1373.81L1245.91 1379.12 1243.16 1379.12C1242.87 1377.94 1242.49 1377.08 1242.02 1376.56 1241.55 1376.04 1240.86 1375.78 1239.94 1375.78 1238.75 1375.78 1237.75 1376.11 1236.92 1376.76 1236.1 1377.42 1235.4 1378.39 1234.81 1379.69 1234.23 1380.98 1233.69 1382.72 1233.19 1384.91L1232.41 1388.31 1240.44 1388.31 1239.75 1391.47 1231.69 1391.47 1225.88 1418.72C1224.92 1423.24 1223.45 1426.61 1221.47 1428.83 1219.49 1431.05 1217 1432.16 1214 1432.16 1213.13 1432.16 1212.44 1432.1 1211.94 1432L1212.47 1429.25C1212.68 1429.31 1213.17 1429.34 1213.94 1429.34 1214.88 1429.34 1215.68 1429.1 1216.35 1428.62 1217.01 1428.14 1217.63 1427.31 1218.21 1426.12 1218.78 1424.94 1219.3 1423.29 1219.78 1421.19L1226.5 1391.47 1221.22 1391.47 1221.69 1389.31C1223.09 1389.23 1224.09 1389.11 1224.71 1388.97 1225.32 1388.82 1225.8 1388.6 1226.14 1388.31 1226.49 1388.02 1226.78 1387.64 1227.02 1387.17 1227.26 1386.7 1227.56 1385.84 1227.94 1384.59 1229.04 1380.84 1230.75 1378.02 1233.05 1376.14 1235.35 1374.25 1238.28 1373.31 1241.85 1373.31Z" fill-rule="evenodd"/><text fill="#000000" fill-opacity="0" font-family="Arial,Arial_MSFontService,sans-serif" font-size="58.8438" x="1211.94" y="1424.8">𝑓𝑟</text><path d="M1302.2 1404.31 1340.7 1404.31 1340.7 1408.47 1302.2 1408.47ZM1302.2 1391.34 1340.7 1391.34 1340.7 1395.5 1302.2 1395.5Z" fill-rule="evenodd"/><text fill="#000000" fill-opacity="0" font-family="Arial,Arial_MSFontService,sans-serif" font-size="17.125" x="1302.2" y="1406.33">=</text><path d="M1385.82 1326.47 1387.54 1326.47C1387.41 1328.47 1387.35 1331.24 1387.35 1334.78L1387.35 1361.47C1387.35 1362.68 1387.42 1363.59 1387.55 1364.2 1387.69 1364.82 1387.93 1365.32 1388.27 1365.7 1388.61 1366.09 1389.11 1366.39 1389.75 1366.61 1390.4 1366.83 1391.21 1367 1392.19 1367.11 1393.17 1367.22 1394.46 1367.3 1396.07 1367.34L1396.07 1369.63 1372.97 1369.63 1372.97 1367.34C1375.29 1367.24 1376.94 1367.1 1377.93 1366.92 1378.92 1366.75 1379.67 1366.48 1380.19 1366.13 1380.71 1365.77 1381.09 1365.27 1381.33 1364.63 1381.57 1363.98 1381.69 1362.93 1381.69 1361.47L1381.69 1336.13C1381.69 1335.29 1381.55 1334.68 1381.25 1334.3 1380.96 1333.91 1380.54 1333.72 1379.97 1333.72 1379.31 1333.72 1378.36 1334.06 1377.13 1334.75 1375.9 1335.44 1374.38 1336.39 1372.57 1337.59L1371.19 1335.19Z" fill-rule="evenodd"/><text fill="#000000" fill-opacity="0" font-family="Arial,Arial_MSFontService,sans-serif" font-size="43.1562" x="1371.19" y="1364.23">1</text><path d="M1368.03 1418.45 1400.65 1418.45 1398.22 1429.45 1395.22 1429.45C1395.22 1427.43 1395.16 1425.92 1395.06 1424.91 1394.96 1423.9 1394.76 1423.12 1394.47 1422.59 1394.18 1422.06 1393.82 1421.7 1393.39 1421.5 1392.96 1421.3 1392.21 1421.2 1391.12 1421.2L1386.5 1421.2 1379.72 1452.02C1379.53 1452.83 1379.4 1453.47 1379.33 1453.95 1379.25 1454.43 1379.19 1454.94 1379.14 1455.47 1379.09 1456 1379.06 1456.47 1379.06 1456.89 1379.06 1457.54 1379.16 1458.04 1379.37 1458.41 1379.58 1458.77 1379.89 1459.04 1380.31 1459.2 1380.73 1459.37 1381.45 1459.49 1382.47 1459.58L1382.12 1461.11 1368.97 1461.11 1369.31 1459.58C1370.14 1459.45 1370.76 1459.29 1371.15 1459.08 1371.55 1458.87 1371.9 1458.55 1372.2 1458.11 1372.5 1457.67 1372.81 1456.98 1373.11 1456.05 1373.41 1455.11 1373.77 1453.69 1374.19 1451.8L1380.87 1421.2 1376.9 1421.2C1375.61 1421.2 1374.58 1421.39 1373.81 1421.77 1373.04 1422.14 1372.27 1422.84 1371.5 1423.86 1370.73 1424.88 1369.79 1426.59 1368.69 1428.98L1365.69 1428.98Z" fill-rule="evenodd"/><text fill="#000000" fill-opacity="0" font-family="Arial,Arial_MSFontService,sans-serif" font-size="42.6562" x="1365.69" y="1455.78">𝑇</text><path d="M1363.18 1398.19 1403.18 1398.19 1403.18 1402.19 1363.18 1402.19Z" fill-rule="evenodd"/><path d="M1416.01 1373.47 1454.6 1373.47 1454.6 1387.37 1451.23 1387.37C1450.7 1385.39 1450.21 1383.78 1449.74 1382.53 1449.27 1381.28 1448.79 1380.29 1448.3 1379.56 1447.81 1378.83 1447.31 1378.27 1446.8 1377.89 1446.29 1377.5 1445.7 1377.21 1445.04 1377.01 1444.37 1376.82 1443.49 1376.72 1442.38 1376.72L1424.98 1376.72 1440.19 1399.81 1440.19 1402.19 1423.13 1425.62 1443.69 1425.62C1444.99 1425.62 1445.96 1425.54 1446.62 1425.37 1447.27 1425.21 1447.83 1424.95 1448.3 1424.61 1448.77 1424.26 1449.2 1423.79 1449.58 1423.17 1449.97 1422.56 1450.34 1421.71 1450.69 1420.62 1451.05 1419.54 1451.38 1418.12 1451.69 1416.37L1455.35 1416.37 1454.44 1431.62 1414.82 1431.62 1414.82 1429.87 1434.13 1403.34 1416.01 1375.25Z" fill-rule="evenodd"/><text fill="#000000" fill-opacity="0" font-family="Arial,Arial_MSFontService,sans-serif" font-size="58.1562" x="1414.82" y="1424.35">∑</text><path d="M1479.05 1390.31C1476.88 1390.31 1474.99 1391.22 1473.38 1393.03 1471.76 1394.84 1470.49 1397.44 1469.56 1400.81 1468.64 1404.19 1468.17 1407.09 1468.17 1409.53 1468.17 1411.82 1468.65 1413.51 1469.6 1414.61 1470.54 1415.7 1471.98 1416.25 1473.89 1416.25 1475.93 1416.25 1477.75 1415.33 1479.33 1413.5 1480.91 1411.67 1482.16 1409.1 1483.08 1405.8 1484 1402.49 1484.45 1399.59 1484.45 1397.09 1484.45 1394.84 1484.02 1393.15 1483.14 1392.01 1482.27 1390.88 1480.9 1390.31 1479.05 1390.31ZM1479.67 1387.81C1483.01 1387.81 1485.55 1388.72 1487.3 1390.55 1489.05 1392.37 1489.92 1394.98 1489.92 1398.37 1489.92 1400.79 1489.5 1403.37 1488.66 1406.12 1487.81 1408.87 1486.66 1411.19 1485.19 1413.06 1483.72 1414.94 1481.96 1416.35 1479.92 1417.3 1477.88 1418.24 1475.54 1418.72 1472.89 1418.72 1469.66 1418.72 1467.16 1417.81 1465.38 1416 1463.6 1414.19 1462.7 1411.58 1462.7 1408.19 1462.7 1406.52 1462.95 1404.59 1463.45 1402.41 1464.1 1399.45 1465.18 1396.86 1466.7 1394.66 1468.23 1392.45 1470.1 1390.75 1472.33 1389.58 1474.56 1388.4 1477.01 1387.81 1479.67 1387.81Z" fill-rule="evenodd"/><text fill="#000000" fill-opacity="0" font-family="Arial,Arial_MSFontService,sans-serif" font-size="30.9062" x="1462.7" y="1414.85">𝑜</text><path d="M1519.59 1373.03 1520.44 1375.44C1515.56 1377.04 1511.95 1380.17 1509.61 1384.83 1507.27 1389.48 1506.09 1395.33 1506.09 1402.37 1506.09 1409.67 1507.27 1415.68 1509.61 1420.41 1511.95 1425.13 1515.53 1428.3 1520.34 1429.91L1519.59 1432.31C1513.49 1430.71 1508.81 1427.25 1505.56 1421.95 1502.31 1416.65 1500.69 1410.23 1500.69 1402.69 1500.69 1395.17 1502.32 1388.74 1505.58 1383.42 1508.84 1378.1 1513.51 1374.63 1519.59 1373.03Z" fill-rule="evenodd"/><text fill="#000000" fill-opacity="0" font-family="Arial,Arial_MSFontService,sans-serif" font-size="59.2812" x="1500.69" y="1424.9">(</text><path d="M1533.64 1380.59 1537.95 1380.59 1536.23 1388.31 1545.73 1388.31 1545.04 1391.47 1535.54 1391.47 1532.76 1403.59C1532.22 1405.95 1531.88 1407.64 1531.73 1408.67 1531.58 1409.7 1531.51 1410.53 1531.51 1411.16 1531.51 1413.74 1532.58 1415.03 1534.73 1415.03 1535.65 1415.03 1536.62 1414.68 1537.65 1413.98 1538.68 1413.29 1539.91 1412.09 1541.32 1410.41L1543.14 1412.28C1541.32 1414.47 1539.58 1416.08 1537.9 1417.12 1536.22 1418.17 1534.47 1418.69 1532.64 1418.69 1528.28 1418.69 1526.1 1416.49 1526.1 1412.09 1526.1 1410.7 1526.28 1409.23 1526.64 1407.69L1530.32 1391.47 1525.07 1391.47 1525.54 1389.31C1526.77 1389.29 1527.7 1389.2 1528.34 1389.03 1528.97 1388.86 1529.51 1388.63 1529.93 1388.34 1530.36 1388.05 1530.75 1387.63 1531.1 1387.09 1531.46 1386.55 1531.8 1385.86 1532.14 1385.01 1532.47 1384.17 1532.97 1382.7 1533.64 1380.59Z" fill-rule="evenodd"/><text fill="#000000" fill-opacity="0" font-family="Arial,Arial_MSFontService,sans-serif" font-size="38.0938" x="1525.07" y="1413.92">𝑡</text><path d="M1550.21 1373.03C1556.3 1374.63 1560.97 1378.1 1564.23 1383.42 1567.49 1388.74 1569.12 1395.17 1569.12 1402.69 1569.12 1410.23 1567.5 1416.65 1564.25 1421.95 1561 1427.25 1556.32 1430.71 1550.21 1432.31L1549.46 1429.91C1554.28 1428.3 1557.86 1425.13 1560.2 1420.41 1562.54 1415.68 1563.71 1409.67 1563.71 1402.37 1563.71 1395.33 1562.55 1389.48 1560.21 1384.83 1557.88 1380.17 1554.27 1377.04 1549.37 1375.44Z" fill-rule="evenodd"/><text fill="#000000" fill-opacity="0" font-family="Arial,Arial_MSFontService,sans-serif" font-size="59.2812" x="1549.37" y="1424.9">)</text><path d="M1315.5 1275.5C1315.5 1298.7 1313.93 1317.5 1312 1317.5L608.999 1317.5C607.067 1317.5 605.5 1298.7 605.5 1275.5" stroke="#000000" stroke-width="3.4375" stroke-miterlimit="8" fill="none" fill-rule="evenodd"/><path d="M0 0 73.0465 0 73.0465 72.2088 72.8804 72.2088 72.8804 178.074" stroke="#000000" stroke-width="4.58333" stroke-miterlimit="8" fill="none" fill-rule="evenodd" transform="matrix(1.83697e-16 1 1 -1.83697e-16 960.5 1317.5)"/></g></svg>