<svg width="2058" height="564" xmlns="http://www.w3.org/2000/svg" xmlns:xlink="http://www.w3.org/1999/xlink" xml:space="preserve" overflow="hidden"><g transform="translate(4 -60)"><path d="M247.5 165.5 247.5 518.833" stroke="#FFC000" stroke-width="20.625" stroke-miterlimit="8" stroke-opacity="0.4" fill="none" fill-rule="evenodd"/><path d="M319.5 165.5 319.5 518.833" stroke="#FFC000" stroke-width="20.625" stroke-miterlimit="8" stroke-opacity="0.4" fill="none" fill-rule="evenodd"/><path d="M393.5 165.5 393.5 518.833" stroke="#FFC000" stroke-width="20.625" stroke-miterlimit="8" stroke-opacity="0.4" fill="none" fill-rule="evenodd"/><path d="M467.5 165.5 467.5 518.833" stroke="#FFC000" stroke-width="20.625" stroke-miterlimit="8" stroke-opacity="0.4" fill="none" fill-rule="evenodd"/><path d="M1269.5 165.5 1269.5 518.833" stroke="#FFC000" stroke-width="20.625" stroke-miterlimit="8" fill="none" fill-rule="evenodd"/><path d="M1455.5 165.5 1455.5 518.833" stroke="#FFC000" stroke-width="20.625" stroke-miterlimit="8" fill="none" fill-rule="evenodd"/><path d="M1646.5 165.5 1646.5 518.833" stroke="#FFC000" stroke-width="20.625" stroke-miterlimit="8" fill="none" fill-rule="evenodd"/><path d="M1838.5 165.5 1838.5 518.833" stroke="#FFC000" stroke-width="20.625" stroke-miterlimit="8" fill="none" fill-rule="evenodd"/><path d="M173.5 517.781 596.312 517.781 596.312 521.219 173.5 521.219ZM596.313 519.5 577.979 496.584 623.813 519.5 577.979 542.417Z"/><path d="M1.71875-1.48358e-06 1.71909 390.598-1.71841 390.598-1.71875 1.48358e-06ZM0.000337155 390.599 22.917 372.265 0.000360892 418.099-22.9163 372.265Z" transform="matrix(1 0 0 -1 180.5 524.599)"/><path d="M1196.5 517.781 1976.98 517.781 1976.98 521.219 1196.5 521.219ZM1976.98 519.5 1958.64 496.584 2004.48 519.5 1958.64 542.417Z"/><path d="M1.71875-1.48358e-06 1.71909 390.598-1.71841 390.598-1.71875 1.48358e-06ZM0.000337155 390.599 22.917 372.265 0.000360892 418.099-22.9163 372.265Z" transform="matrix(1 0 0 -1 1202.5 524.599)"/><path d="M599.267 439.838 603.579 439.838 601.861 447.557 611.361 447.557 610.673 450.713 601.173 450.713 598.392 462.838C597.85 465.192 597.506 466.885 597.361 467.916 597.215 468.947 597.142 469.775 597.142 470.4 597.142 472.984 598.215 474.275 600.361 474.275 601.277 474.275 602.251 473.926 603.282 473.228 604.314 472.531 605.538 471.338 606.954 469.65L608.767 471.525C606.954 473.713 605.21 475.327 603.532 476.369 601.855 477.411 600.1 477.932 598.267 477.932 593.913 477.932 591.736 475.734 591.736 471.338 591.736 469.942 591.913 468.473 592.267 466.932L595.954 450.713 590.704 450.713 591.173 448.557C592.402 448.536 593.335 448.442 593.97 448.275 594.605 448.109 595.137 447.879 595.564 447.588 595.991 447.296 596.381 446.879 596.736 446.338 597.09 445.796 597.434 445.103 597.767 444.26 598.1 443.416 598.6 441.942 599.267 439.838Z" fill-rule="evenodd"/><text fill="#000000" fill-opacity="0" font-family="Arial,Arial_MSFontService,sans-serif" font-size="38.0938" x="590.704" y="473.17">洧노</text><path d="M1970.84 449.494C1968.69 449.494 1966.76 450.358 1965.05 452.087 1963.35 453.817 1962.01 456.134 1961.05 459.041 1960.1 461.947 1959.62 464.848 1959.62 467.744 1959.62 469.91 1959.91 471.53 1960.51 472.603 1961.1 473.676 1962.1 474.212 1963.49 474.212 1964.87 474.212 1966.22 473.619 1967.54 472.431 1968.86 471.244 1970.23 469.551 1971.63 467.353 1973.04 465.155 1974.03 462.619 1974.62 459.744L1974.9 458.4C1975.09 457.546 1975.21 456.806 1975.27 456.181 1975.34 455.556 1975.37 454.879 1975.37 454.15 1975.37 452.546 1975.02 451.369 1974.34 450.619 1973.65 449.869 1972.48 449.494 1970.84 449.494ZM1970.21 447.025C1971.56 447.025 1972.83 447.176 1974.01 447.478 1975.18 447.78 1976.4 448.317 1977.65 449.087L1980.52 447.025 1982.52 447.525 1977.93 467.337C1977.47 469.317 1977.24 470.858 1977.24 471.962 1977.24 472.796 1977.38 473.4 1977.65 473.775 1977.92 474.15 1978.35 474.337 1978.93 474.337 1979.55 474.337 1980.22 474.082 1980.93 473.572 1981.64 473.061 1982.64 472.087 1983.93 470.65L1985.71 472.4C1983.84 474.4 1982.24 475.822 1980.91 476.666 1979.59 477.509 1978.16 477.931 1976.62 477.931 1975.32 477.931 1974.29 477.504 1973.52 476.65 1972.75 475.796 1972.37 474.66 1972.37 473.244 1972.37 472.098 1972.61 470.879 1973.09 469.587L1972.68 469.462C1970.68 472.379 1968.78 474.515 1966.99 475.869 1965.2 477.223 1963.3 477.9 1961.3 477.9 1959.01 477.9 1957.24 477.035 1955.98 475.306 1954.72 473.577 1954.09 471.15 1954.09 468.025 1954.09 464.442 1954.79 460.999 1956.19 457.697 1957.6 454.395 1959.53 451.791 1961.99 449.884 1964.45 447.978 1967.19 447.025 1970.21 447.025ZM1999.02 439.837 2003.34 439.837 2001.62 447.556 2011.12 447.556 2010.43 450.712 2000.93 450.712 1998.15 462.837C1997.61 465.192 1997.26 466.884 1997.12 467.916 1996.97 468.947 1996.9 469.775 1996.9 470.4 1996.9 472.983 1997.97 474.275 2000.12 474.275 2001.03 474.275 2002.01 473.926 2003.04 473.228 2004.07 472.53 2005.29 471.337 2006.71 469.65L2008.52 471.525C2006.71 473.712 2004.97 475.327 2003.29 476.369 2001.61 477.41 1999.86 477.931 1998.02 477.931 1993.67 477.931 1991.49 475.733 1991.49 471.337 1991.49 469.942 1991.67 468.473 1992.02 466.931L1995.71 450.712 1990.46 450.712 1990.93 448.556C1992.16 448.535 1993.09 448.442 1993.73 448.275 1994.36 448.108 1994.89 447.879 1995.32 447.587 1995.75 447.296 1996.14 446.879 1996.49 446.337 1996.85 445.796 1997.19 445.103 1997.52 444.259 1997.86 443.416 1998.36 441.942 1999.02 439.837Z" fill-rule="evenodd"/><text fill="#000000" fill-opacity="0" font-family="Arial,Arial_MSFontService,sans-serif" font-size="38.0938" x="1954.09" y="473.169">洧녩洧노</text><path d="M230.546 550.912 234.858 550.912 233.14 558.631 242.64 558.631 241.952 561.787 232.452 561.787 229.671 573.912C229.129 576.266 228.785 577.959 228.64 578.99 228.494 580.021 228.421 580.849 228.421 581.474 228.421 584.058 229.494 585.349 231.64 585.349 232.556 585.349 233.53 585 234.561 584.302 235.593 583.604 236.817 582.412 238.233 580.724L240.046 582.599C238.233 584.787 236.489 586.401 234.811 587.443 233.134 588.485 231.379 589.006 229.546 589.006 225.192 589.006 223.015 586.808 223.015 582.412 223.015 581.016 223.192 579.547 223.546 578.006L227.233 561.787 221.983 561.787 222.452 559.631C223.681 559.61 224.614 559.516 225.249 559.349 225.884 559.183 226.416 558.953 226.843 558.662 227.27 558.37 227.66 557.953 228.015 557.412 228.369 556.87 228.712 556.177 229.046 555.334 229.379 554.49 229.879 553.016 230.546 550.912Z" fill-rule="evenodd"/><text fill="#000000" fill-opacity="0" font-family="Arial,Arial_MSFontService,sans-serif" font-size="38.0938" x="221.983" y="584.244">洧노</text><path d="M256.205 574.098C255.134 574.098 254.239 574.377 253.52 574.935 252.801 575.494 252.231 576.312 251.81 577.391 251.389 578.47 251.091 579.785 250.915 581.338 250.739 582.891 250.651 584.654 250.651 586.628 250.651 588.908 250.762 590.878 250.984 592.538 251.206 594.198 251.55 595.563 252.016 596.634 252.483 597.705 253.068 598.493 253.772 598.998 254.476 599.503 255.317 599.755 256.297 599.755 257.214 599.755 258.018 599.518 258.706 599.044 259.395 598.569 259.965 597.831 260.416 596.829 260.867 595.827 261.208 594.557 261.437 593.019 261.667 591.482 261.781 589.665 261.781 587.569 261.781 585.213 261.655 583.186 261.403 581.487 261.15 579.789 260.795 578.393 260.336 577.299 259.877 576.205 259.299 575.398 258.603 574.878 257.907 574.358 257.107 574.098 256.205 574.098ZM256.297 571.872C258.117 571.872 259.674 572.212 260.967 572.893 262.259 573.574 263.315 574.545 264.134 575.808 264.952 577.07 265.553 578.611 265.935 580.432 266.318 582.252 266.509 584.31 266.509 586.605 266.509 591.7 265.606 595.552 263.801 598.16 261.996 600.769 259.379 602.073 255.952 602.073 252.556 602.073 250.031 600.841 248.379 598.378 246.727 595.915 245.901 592.182 245.901 587.179 245.901 584.563 246.157 582.298 246.669 580.386 247.182 578.474 247.901 576.886 248.827 575.624 249.752 574.362 250.85 573.421 252.12 572.801 253.39 572.182 254.782 571.872 256.297 571.872Z" fill-rule="evenodd"/><text fill="#000000" fill-opacity="0" font-family="Arial,Arial_MSFontService,sans-serif" font-size="30.2012" x="245.901" y="598.298">0</text><path d="M309.235 550.912 313.548 550.912 311.829 558.631 321.329 558.631 320.642 561.787 311.142 561.787 308.36 573.912C307.819 576.266 307.475 577.959 307.329 578.99 307.183 580.021 307.11 580.849 307.11 581.474 307.11 584.058 308.183 585.349 310.329 585.349 311.246 585.349 312.22 585 313.251 584.302 314.282 583.604 315.506 582.412 316.923 580.724L318.735 582.599C316.923 584.787 315.178 586.401 313.501 587.443 311.824 588.485 310.069 589.006 308.235 589.006 303.881 589.006 301.704 586.808 301.704 582.412 301.704 581.016 301.881 579.547 302.235 578.006L305.923 561.787 300.673 561.787 301.142 559.631C302.371 559.61 303.303 559.516 303.938 559.349 304.574 559.183 305.105 558.953 305.532 558.662 305.959 558.37 306.35 557.953 306.704 557.412 307.058 556.87 307.402 556.177 307.735 555.334 308.069 554.49 308.569 553.016 309.235 550.912Z" fill-rule="evenodd"/><text fill="#000000" fill-opacity="0" font-family="Arial,Arial_MSFontService,sans-serif" font-size="38.0938" x="300.673" y="584.244">洧노</text><path d="M335.286 572.032 336.686 572.032C336.656 572.874 336.633 573.627 336.618 574.293 336.602 574.958 336.591 575.605 336.583 576.232 336.575 576.859 336.572 577.479 336.572 578.091L336.572 595.532C336.572 596.007 336.587 596.416 336.618 596.76 336.648 597.104 336.698 597.395 336.767 597.632 336.836 597.869 336.927 598.072 337.042 598.24 337.157 598.409 337.291 598.554 337.444 598.676 337.627 598.86 337.872 599.002 338.178 599.101 338.484 599.2 338.874 599.285 339.348 599.353 339.823 599.422 340.393 599.476 341.058 599.514 341.724 599.552 342.523 599.579 343.456 599.594L343.456 601.591 325.258 601.591 325.258 599.594C326.16 599.564 326.925 599.529 327.553 599.491 328.18 599.453 328.715 599.399 329.159 599.331 329.603 599.262 329.958 599.185 330.226 599.101 330.494 599.017 330.727 598.914 330.926 598.791 331.14 598.654 331.324 598.504 331.477 598.344 331.63 598.183 331.752 597.98 331.844 597.736 331.936 597.491 332.009 597.192 332.062 596.841 332.116 596.489 332.142 596.053 332.142 595.532L332.142 579.078C332.142 578.481 332.028 578.06 331.798 577.816 331.569 577.571 331.24 577.448 330.811 577.448 330.337 577.448 329.633 577.693 328.7 578.183 327.767 578.672 326.558 579.399 325.074 580.363 324.875 580.011 324.692 579.659 324.523 579.307 324.355 578.955 324.179 578.596 323.995 578.229 325.893 577.188 327.771 576.152 329.629 575.119 331.488 574.086 333.374 573.057 335.286 572.032Z" fill-rule="evenodd"/><text fill="#000000" fill-opacity="0" font-family="Arial,Arial_MSFontService,sans-serif" font-size="29.5586" x="323.995" y="597.896">1</text><path d="M386.412 550.912 390.725 550.912 389.006 558.631 398.506 558.631 397.819 561.787 388.319 561.787 385.537 573.912C384.996 576.266 384.652 577.959 384.506 578.99 384.36 580.021 384.287 580.849 384.287 581.474 384.287 584.058 385.36 585.349 387.506 585.349 388.423 585.349 389.397 585 390.428 584.302 391.459 583.604 392.683 582.412 394.1 580.724L395.912 582.599C394.1 584.787 392.355 586.401 390.678 587.443 389.001 588.485 387.246 589.006 385.412 589.006 381.058 589.006 378.881 586.808 378.881 582.412 378.881 581.016 379.058 579.547 379.412 578.006L383.1 561.787 377.85 561.787 378.319 559.631C379.548 559.61 380.48 559.516 381.115 559.349 381.751 559.183 382.282 558.953 382.709 558.662 383.136 558.37 383.527 557.953 383.881 557.412 384.235 556.87 384.579 556.177 384.912 555.334 385.246 554.49 385.746 553.016 386.412 550.912Z" fill-rule="evenodd"/><text fill="#000000" fill-opacity="0" font-family="Arial,Arial_MSFontService,sans-serif" font-size="38.0938" x="377.85" y="584.244">洧노</text><path d="M412.163 571.872C413.754 571.872 415.112 572.052 416.237 572.411 417.361 572.771 418.275 573.256 418.979 573.868 419.683 574.48 420.191 575.215 420.505 576.071 420.819 576.928 420.976 577.854 420.976 578.848 420.976 579.445 420.933 580 420.849 580.512 420.765 581.025 420.62 581.53 420.413 582.027 420.207 582.524 419.935 583.025 419.599 583.53 419.262 584.035 418.841 584.57 418.336 585.136 417.954 585.626 417.457 586.192 416.845 586.835 416.233 587.477 415.563 588.166 414.837 588.9 414.11 589.634 413.349 590.399 412.553 591.195 411.758 591.991 410.985 592.779 410.235 593.559 409.486 594.339 408.797 595.096 408.17 595.831 407.543 596.565 407.03 597.238 406.632 597.85L415.123 597.85C415.843 597.85 416.416 597.823 416.845 597.77 417.273 597.716 417.629 597.598 417.912 597.414 418.195 597.231 418.436 596.951 418.635 596.577 418.834 596.202 419.063 595.685 419.323 595.028L421.457 595.028C421.381 596.114 421.308 597.208 421.239 598.309 421.171 599.411 421.098 600.505 421.021 601.591L401.583 601.591 401.583 600.398C401.951 599.571 402.379 598.757 402.869 597.954 403.358 597.15 403.909 596.336 404.521 595.509 405.133 594.683 405.829 593.83 406.609 592.951 407.39 592.071 408.254 591.157 409.203 590.208 410.641 588.77 411.811 587.542 412.714 586.525 413.616 585.507 414.328 584.601 414.848 583.805 415.368 583.01 415.724 582.275 415.915 581.602 416.106 580.929 416.202 580.21 416.202 579.445 416.202 578.665 416.091 577.946 415.869 577.288 415.647 576.63 415.33 576.071 414.917 575.612 414.504 575.154 413.98 574.794 413.345 574.534 412.71 574.274 411.979 574.144 411.153 574.144 409.73 574.144 408.537 574.53 407.573 575.303 406.609 576.075 405.86 577.196 405.324 578.665L402.318 578.665 402.318 574.19C404.276 573.379 406.078 572.79 407.722 572.423 409.367 572.055 410.847 571.872 412.163 571.872Z" fill-rule="evenodd"/><text fill="#000000" fill-opacity="0" font-family="Arial,Arial_MSFontService,sans-serif" font-size="29.7192" x="401.583" y="597.876">2</text><path d="M464.346 550.912 468.658 550.912 466.939 558.631 476.439 558.631 475.752 561.787 466.252 561.787 463.471 573.912C462.929 576.266 462.585 577.959 462.439 578.99 462.294 580.021 462.221 580.849 462.221 581.474 462.221 584.058 463.294 585.349 465.439 585.349 466.356 585.349 467.33 585 468.361 584.302 469.392 583.604 470.616 582.412 472.033 580.724L473.846 582.599C472.033 584.787 470.288 586.401 468.611 587.443 466.934 588.485 465.179 589.006 463.346 589.006 458.991 589.006 456.814 586.808 456.814 582.412 456.814 581.016 456.991 579.547 457.346 578.006L461.033 561.787 455.783 561.787 456.252 559.631C457.481 559.61 458.413 559.516 459.049 559.349 459.684 559.183 460.215 558.953 460.642 558.662 461.07 558.37 461.46 557.953 461.814 557.412 462.169 556.87 462.512 556.177 462.846 555.334 463.179 554.49 463.679 553.016 464.346 550.912Z" fill-rule="evenodd"/><text fill="#000000" fill-opacity="0" font-family="Arial,Arial_MSFontService,sans-serif" font-size="38.0938" x="455.783" y="584.244">洧노</text><path d="M490.05 571.872C491.274 571.872 492.418 572.002 493.481 572.262 494.545 572.522 495.466 572.916 496.247 573.444 497.027 573.972 497.635 574.63 498.071 575.417 498.507 576.205 498.725 577.12 498.725 578.16 498.725 579.139 498.587 580.003 498.312 580.753 498.037 581.503 497.612 582.184 497.038 582.796 496.465 583.408 495.761 583.962 494.927 584.459 494.093 584.957 493.133 585.435 492.047 585.894L492.047 586.169C493.072 586.353 494.028 586.647 494.916 587.053 495.803 587.458 496.579 587.971 497.245 588.59 497.91 589.21 498.435 589.925 498.817 590.736 499.199 591.547 499.391 592.442 499.391 593.421 499.391 594.645 499.161 595.781 498.702 596.829 498.243 597.877 497.555 598.784 496.637 599.549 495.719 600.313 494.587 600.91 493.24 601.339 491.894 601.767 490.318 601.981 488.513 601.981 487.09 601.981 485.644 601.84 484.175 601.557 482.707 601.274 481.314 600.903 479.999 600.444L479.999 595.487 482.959 595.487C483.204 596.251 483.495 596.906 483.831 597.449 484.168 597.992 484.562 598.435 485.013 598.78 485.464 599.124 485.985 599.373 486.574 599.526 487.163 599.679 487.832 599.755 488.582 599.755 490.555 599.755 492.051 599.285 493.068 598.344 494.086 597.403 494.594 595.976 494.594 594.064 494.594 592.029 493.925 590.487 492.586 589.439 491.248 588.391 489.262 587.867 486.631 587.867L484.611 587.867 484.611 585.664C486.218 585.588 487.606 585.362 488.777 584.987 489.947 584.612 490.922 584.127 491.703 583.53 492.483 582.933 493.064 582.237 493.447 581.442 493.829 580.646 494.021 579.797 494.021 578.894 494.021 577.425 493.585 576.267 492.712 575.417 491.84 574.568 490.578 574.144 488.926 574.144 487.534 574.144 486.367 574.526 485.426 575.291 484.485 576.056 483.762 577.196 483.257 578.711L480.343 578.711 480.343 574.19C482.148 573.425 483.85 572.847 485.449 572.457 487.048 572.067 488.582 571.872 490.05 571.872Z" fill-rule="evenodd"/><text fill="#000000" fill-opacity="0" font-family="Arial,Arial_MSFontService,sans-serif" font-size="30.1094" x="479.999" y="598.217">3</text><path d="M1247.9 560.568C1245.76 560.568 1243.83 561.433 1242.12 563.162 1240.41 564.891 1239.08 567.209 1238.12 570.115 1237.16 573.021 1236.68 575.922 1236.68 578.818 1236.68 580.985 1236.98 582.604 1237.58 583.677 1238.17 584.75 1239.16 585.287 1240.56 585.287 1241.93 585.287 1243.28 584.693 1244.61 583.506 1245.93 582.318 1247.29 580.625 1248.7 578.427 1250.11 576.229 1251.1 573.693 1251.68 570.818L1251.97 569.474C1252.15 568.62 1252.28 567.881 1252.34 567.256 1252.4 566.631 1252.43 565.953 1252.43 565.224 1252.43 563.62 1252.09 562.443 1251.4 561.693 1250.72 560.943 1249.55 560.568 1247.9 560.568ZM1247.28 558.099C1248.63 558.099 1249.9 558.25 1251.08 558.552 1252.25 558.854 1253.47 559.391 1254.72 560.162L1257.59 558.099 1259.59 558.599 1255 578.412C1254.54 580.391 1254.31 581.933 1254.31 583.037 1254.31 583.87 1254.44 584.474 1254.72 584.849 1254.99 585.224 1255.41 585.412 1256 585.412 1256.62 585.412 1257.29 585.157 1258 584.646 1258.71 584.136 1259.71 583.162 1261 581.724L1262.78 583.474C1260.9 585.474 1259.3 586.896 1257.98 587.74 1256.66 588.584 1255.23 589.006 1253.68 589.006 1252.39 589.006 1251.36 588.578 1250.59 587.724 1249.82 586.87 1249.43 585.735 1249.43 584.318 1249.43 583.172 1249.67 581.953 1250.15 580.662L1249.75 580.537C1247.75 583.453 1245.85 585.589 1244.06 586.943 1242.27 588.297 1240.37 588.974 1238.37 588.974 1236.08 588.974 1234.3 588.11 1233.04 586.381 1231.78 584.651 1231.15 582.224 1231.15 579.099 1231.15 575.516 1231.86 572.073 1233.26 568.771 1234.67 565.469 1236.6 562.865 1239.06 560.959 1241.52 559.052 1244.26 558.099 1247.28 558.099Z" fill-rule="evenodd"/><text fill="#000000" fill-opacity="0" font-family="Arial,Arial_MSFontService,sans-serif" font-size="30.9062" x="1231.15" y="585.142">洧녩</text><path d="M1275.61 550.912 1279.92 550.912 1278.21 558.631 1287.71 558.631 1287.02 561.787 1277.52 561.787 1274.74 573.912C1274.19 576.266 1273.85 577.959 1273.71 578.99 1273.56 580.021 1273.49 580.849 1273.49 581.474 1273.49 584.058 1274.56 585.349 1276.71 585.349 1277.62 585.349 1278.6 585 1279.63 584.302 1280.66 583.604 1281.88 582.412 1283.3 580.724L1285.11 582.599C1283.3 584.787 1281.55 586.401 1279.88 587.443 1278.2 588.485 1276.44 589.006 1274.61 589.006 1270.26 589.006 1268.08 586.808 1268.08 582.412 1268.08 581.016 1268.26 579.547 1268.61 578.006L1272.3 561.787 1267.05 561.787 1267.52 559.631C1268.75 559.61 1269.68 559.516 1270.31 559.349 1270.95 559.183 1271.48 558.953 1271.91 558.662 1272.34 558.37 1272.73 557.953 1273.08 557.412 1273.43 556.87 1273.78 556.177 1274.11 555.334 1274.44 554.49 1274.94 553.016 1275.61 550.912Z" fill-rule="evenodd"/><text fill="#000000" fill-opacity="0" font-family="Arial,Arial_MSFontService,sans-serif" font-size="38.0938" x="1267.05" y="584.244">洧노</text><path d="M1301.27 574.098C1300.2 574.098 1299.3 574.377 1298.59 574.935 1297.87 575.494 1297.3 576.312 1296.88 577.391 1296.45 578.47 1296.16 579.785 1295.98 581.338 1295.8 582.891 1295.72 584.654 1295.72 586.628 1295.72 588.908 1295.83 590.878 1296.05 592.538 1296.27 594.198 1296.62 595.563 1297.08 596.634 1297.55 597.705 1298.13 598.493 1298.84 598.998 1299.54 599.503 1300.38 599.755 1301.36 599.755 1302.28 599.755 1303.08 599.518 1303.77 599.044 1304.46 598.569 1305.03 597.831 1305.48 596.829 1305.93 595.827 1306.27 594.557 1306.5 593.019 1306.73 591.482 1306.85 589.665 1306.85 587.569 1306.85 585.213 1306.72 583.186 1306.47 581.487 1306.22 579.789 1305.86 578.393 1305.4 577.299 1304.94 576.205 1304.36 575.398 1303.67 574.878 1302.97 574.358 1302.17 574.098 1301.27 574.098ZM1301.36 571.872C1303.18 571.872 1304.74 572.212 1306.03 572.893 1307.33 573.574 1308.38 574.545 1309.2 575.808 1310.02 577.07 1310.62 578.611 1311 580.432 1311.38 582.252 1311.57 584.31 1311.57 586.605 1311.57 591.7 1310.67 595.552 1308.87 598.16 1307.06 600.769 1304.45 602.073 1301.02 602.073 1297.62 602.073 1295.1 600.841 1293.44 598.378 1291.79 595.915 1290.97 592.182 1290.97 587.179 1290.97 584.563 1291.22 582.298 1291.74 580.386 1292.25 578.474 1292.97 576.886 1293.89 575.624 1294.82 574.362 1295.92 573.421 1297.19 572.801 1298.46 572.182 1299.85 571.872 1301.36 571.872Z" fill-rule="evenodd"/><text fill="#000000" fill-opacity="0" font-family="Arial,Arial_MSFontService,sans-serif" font-size="30.2012" x="1290.97" y="598.298">0</text><path d="M1440.68 560.568C1438.53 560.568 1436.61 561.433 1434.9 563.162 1433.19 564.891 1431.86 567.209 1430.9 570.115 1429.94 573.021 1429.46 575.922 1429.46 578.818 1429.46 580.985 1429.76 582.604 1430.35 583.677 1430.95 584.75 1431.94 585.287 1433.34 585.287 1434.71 585.287 1436.06 584.693 1437.38 583.506 1438.71 582.318 1440.07 580.625 1441.48 578.427 1442.88 576.229 1443.88 573.693 1444.46 570.818L1444.74 569.474C1444.93 568.62 1445.05 567.881 1445.12 567.256 1445.18 566.631 1445.21 565.953 1445.21 565.224 1445.21 563.62 1444.87 562.443 1444.18 561.693 1443.49 560.943 1442.33 560.568 1440.68 560.568ZM1440.05 558.099C1441.41 558.099 1442.67 558.25 1443.85 558.552 1445.03 558.854 1446.24 559.391 1447.49 560.162L1450.37 558.099 1452.37 558.599 1447.77 578.412C1447.32 580.391 1447.09 581.933 1447.09 583.037 1447.09 583.87 1447.22 584.474 1447.49 584.849 1447.76 585.224 1448.19 585.412 1448.77 585.412 1449.4 585.412 1450.07 585.157 1450.77 584.646 1451.48 584.136 1452.48 583.162 1453.77 581.724L1455.55 583.474C1453.68 585.474 1452.08 586.896 1450.76 587.74 1449.43 588.584 1448 589.006 1446.46 589.006 1445.17 589.006 1444.14 588.578 1443.37 587.724 1442.6 586.87 1442.21 585.735 1442.21 584.318 1442.21 583.172 1442.45 581.953 1442.93 580.662L1442.52 580.537C1440.52 583.453 1438.63 585.589 1436.84 586.943 1435.04 588.297 1433.15 588.974 1431.15 588.974 1428.86 588.974 1427.08 588.11 1425.82 586.381 1424.56 584.651 1423.93 582.224 1423.93 579.099 1423.93 575.516 1424.63 572.073 1426.04 568.771 1427.45 565.469 1429.38 562.865 1431.84 560.959 1434.29 559.052 1437.03 558.099 1440.05 558.099Z" fill-rule="evenodd"/><text fill="#000000" fill-opacity="0" font-family="Arial,Arial_MSFontService,sans-serif" font-size="30.9062" x="1423.93" y="585.142">洧녩</text><path d="M1468.39 550.912 1472.7 550.912 1470.98 558.631 1480.48 558.631 1479.79 561.787 1470.29 561.787 1467.51 573.912C1466.97 576.266 1466.63 577.959 1466.48 578.99 1466.34 580.021 1466.26 580.849 1466.26 581.474 1466.26 584.058 1467.34 585.349 1469.48 585.349 1470.4 585.349 1471.37 585 1472.4 584.302 1473.43 583.604 1474.66 582.412 1476.08 580.724L1477.89 582.599C1476.08 584.787 1474.33 586.401 1472.65 587.443 1470.98 588.485 1469.22 589.006 1467.39 589.006 1463.03 589.006 1460.86 586.808 1460.86 582.412 1460.86 581.016 1461.03 579.547 1461.39 578.006L1465.08 561.787 1459.83 561.787 1460.29 559.631C1461.52 559.61 1462.46 559.516 1463.09 559.349 1463.73 559.183 1464.26 558.953 1464.68 558.662 1465.11 558.37 1465.5 557.953 1465.86 557.412 1466.21 556.87 1466.55 556.177 1466.89 555.334 1467.22 554.49 1467.72 553.016 1468.39 550.912Z" fill-rule="evenodd"/><text fill="#000000" fill-opacity="0" font-family="Arial,Arial_MSFontService,sans-serif" font-size="38.0938" x="1459.83" y="584.244">洧노</text><path d="M1494.44 572.032 1495.84 572.032C1495.81 572.874 1495.79 573.627 1495.77 574.293 1495.76 574.958 1495.74 575.605 1495.74 576.232 1495.73 576.859 1495.72 577.479 1495.72 578.091L1495.72 595.532C1495.72 596.007 1495.74 596.416 1495.77 596.76 1495.8 597.104 1495.85 597.395 1495.92 597.632 1495.99 597.869 1496.08 598.072 1496.19 598.24 1496.31 598.409 1496.44 598.554 1496.6 598.676 1496.78 598.86 1497.02 599.002 1497.33 599.101 1497.64 599.2 1498.03 599.285 1498.5 599.353 1498.98 599.422 1499.55 599.476 1500.21 599.514 1500.88 599.552 1501.68 599.579 1502.61 599.594L1502.61 601.591 1484.41 601.591 1484.41 599.594C1485.31 599.564 1486.08 599.529 1486.71 599.491 1487.33 599.453 1487.87 599.399 1488.31 599.331 1488.76 599.262 1489.11 599.185 1489.38 599.101 1489.65 599.017 1489.88 598.914 1490.08 598.791 1490.29 598.654 1490.48 598.504 1490.63 598.344 1490.78 598.183 1490.91 597.98 1491 597.736 1491.09 597.491 1491.16 597.192 1491.21 596.841 1491.27 596.489 1491.3 596.053 1491.3 595.532L1491.3 579.078C1491.3 578.481 1491.18 578.06 1490.95 577.816 1490.72 577.571 1490.39 577.448 1489.96 577.448 1489.49 577.448 1488.79 577.693 1487.85 578.183 1486.92 578.672 1485.71 579.399 1484.23 580.363 1484.03 580.011 1483.84 579.659 1483.68 579.307 1483.51 578.955 1483.33 578.596 1483.15 578.229 1485.05 577.188 1486.92 576.152 1488.78 575.119 1490.64 574.086 1492.53 573.057 1494.44 572.032Z" fill-rule="evenodd"/><text fill="#000000" fill-opacity="0" font-family="Arial,Arial_MSFontService,sans-serif" font-size="29.5586" x="1483.15" y="597.896">1</text><path d="M1629.68 560.568C1627.53 560.568 1625.61 561.433 1623.9 563.162 1622.19 564.891 1620.86 567.209 1619.9 570.115 1618.94 573.021 1618.46 575.922 1618.46 578.818 1618.46 580.985 1618.76 582.604 1619.35 583.677 1619.94 584.75 1620.94 585.287 1622.33 585.287 1623.71 585.287 1625.06 584.693 1626.38 583.506 1627.7 582.318 1629.07 580.625 1630.48 578.427 1631.88 576.229 1632.88 573.693 1633.46 570.818L1633.74 569.474C1633.93 568.62 1634.05 567.881 1634.12 567.256 1634.18 566.631 1634.21 565.953 1634.21 565.224 1634.21 563.62 1633.87 562.443 1633.18 561.693 1632.49 560.943 1631.32 560.568 1629.68 560.568ZM1629.05 558.099C1630.41 558.099 1631.67 558.25 1632.85 558.552 1634.03 558.854 1635.24 559.391 1636.49 560.162L1639.37 558.099 1641.37 558.599 1636.77 578.412C1636.31 580.391 1636.08 581.933 1636.08 583.037 1636.08 583.87 1636.22 584.474 1636.49 584.849 1636.76 585.224 1637.19 585.412 1637.77 585.412 1638.4 585.412 1639.06 585.157 1639.77 584.646 1640.48 584.136 1641.48 583.162 1642.77 581.724L1644.55 583.474C1642.68 585.474 1641.08 586.896 1639.76 587.74 1638.43 588.584 1637 589.006 1635.46 589.006 1634.17 589.006 1633.14 588.578 1632.37 587.724 1631.59 586.87 1631.21 585.735 1631.21 584.318 1631.21 583.172 1631.45 581.953 1631.93 580.662L1631.52 580.537C1629.52 583.453 1627.63 585.589 1625.83 586.943 1624.04 588.297 1622.15 588.974 1620.15 588.974 1617.86 588.974 1616.08 588.11 1614.82 586.381 1613.56 584.651 1612.93 582.224 1612.93 579.099 1612.93 575.516 1613.63 572.073 1615.04 568.771 1616.44 565.469 1618.38 562.865 1620.83 560.959 1623.29 559.052 1626.03 558.099 1629.05 558.099Z" fill-rule="evenodd"/><text fill="#000000" fill-opacity="0" font-family="Arial,Arial_MSFontService,sans-serif" font-size="30.9062" x="1612.93" y="585.142">洧녩</text><path d="M1657.39 550.912 1661.7 550.912 1659.98 558.631 1669.48 558.631 1668.79 561.787 1659.29 561.787 1656.51 573.912C1655.97 576.266 1655.63 577.959 1655.48 578.99 1655.33 580.021 1655.26 580.849 1655.26 581.474 1655.26 584.058 1656.33 585.349 1658.48 585.349 1659.4 585.349 1660.37 585 1661.4 584.302 1662.43 583.604 1663.66 582.412 1665.07 580.724L1666.89 582.599C1665.07 584.787 1663.33 586.401 1661.65 587.443 1659.98 588.485 1658.22 589.006 1656.39 589.006 1652.03 589.006 1649.86 586.808 1649.86 582.412 1649.86 581.016 1650.03 579.547 1650.39 578.006L1654.07 561.787 1648.82 561.787 1649.29 559.631C1650.52 559.61 1651.45 559.516 1652.09 559.349 1652.73 559.183 1653.26 558.953 1653.68 558.662 1654.11 558.37 1654.5 557.953 1654.86 557.412 1655.21 556.87 1655.55 556.177 1655.89 555.334 1656.22 554.49 1656.72 553.016 1657.39 550.912Z" fill-rule="evenodd"/><text fill="#000000" fill-opacity="0" font-family="Arial,Arial_MSFontService,sans-serif" font-size="38.0938" x="1648.82" y="584.244">洧노</text><path d="M1683.14 571.872C1684.73 571.872 1686.09 572.052 1687.21 572.411 1688.34 572.771 1689.25 573.256 1689.95 573.868 1690.66 574.48 1691.17 575.215 1691.48 576.071 1691.79 576.928 1691.95 577.854 1691.95 578.848 1691.95 579.445 1691.91 580 1691.82 580.512 1691.74 581.025 1691.59 581.53 1691.39 582.027 1691.18 582.524 1690.91 583.025 1690.57 583.53 1690.24 584.035 1689.82 584.57 1689.31 585.136 1688.93 585.626 1688.43 586.192 1687.82 586.835 1687.21 587.477 1686.54 588.166 1685.81 588.9 1685.08 589.634 1684.32 590.399 1683.53 591.195 1682.73 591.991 1681.96 592.779 1681.21 593.559 1680.46 594.339 1679.77 595.096 1679.14 595.831 1678.52 596.565 1678 597.238 1677.61 597.85L1686.1 597.85C1686.82 597.85 1687.39 597.823 1687.82 597.77 1688.25 597.716 1688.6 597.598 1688.89 597.414 1689.17 597.231 1689.41 596.951 1689.61 596.577 1689.81 596.202 1690.04 595.685 1690.3 595.028L1692.43 595.028C1692.36 596.114 1692.28 597.208 1692.21 598.309 1692.14 599.411 1692.07 600.505 1692 601.591L1672.56 601.591 1672.56 600.398C1672.92 599.571 1673.35 598.757 1673.84 597.954 1674.33 597.15 1674.88 596.336 1675.5 595.509 1676.11 594.683 1676.8 593.83 1677.58 592.951 1678.36 592.071 1679.23 591.157 1680.18 590.208 1681.61 588.77 1682.79 587.542 1683.69 586.525 1684.59 585.507 1685.3 584.601 1685.82 583.805 1686.34 583.01 1686.7 582.275 1686.89 581.602 1687.08 580.929 1687.18 580.21 1687.18 579.445 1687.18 578.665 1687.07 577.946 1686.84 577.288 1686.62 576.63 1686.3 576.071 1685.89 575.612 1685.48 575.154 1684.95 574.794 1684.32 574.534 1683.68 574.274 1682.95 574.144 1682.13 574.144 1680.7 574.144 1679.51 574.53 1678.55 575.303 1677.58 576.075 1676.83 577.196 1676.3 578.665L1673.29 578.665 1673.29 574.19C1675.25 573.379 1677.05 572.79 1678.7 572.423 1680.34 572.055 1681.82 571.872 1683.14 571.872Z" fill-rule="evenodd"/><text fill="#000000" fill-opacity="0" font-family="Arial,Arial_MSFontService,sans-serif" font-size="29.7192" x="1672.56" y="597.876">2</text><path d="M1819.61 560.568C1817.47 560.568 1815.54 561.433 1813.83 563.162 1812.12 564.891 1810.79 567.209 1809.83 570.115 1808.87 573.021 1808.39 575.922 1808.39 578.818 1808.39 580.985 1808.69 582.604 1809.28 583.677 1809.88 584.75 1810.87 585.287 1812.27 585.287 1813.64 585.287 1814.99 584.693 1816.31 583.506 1817.64 582.318 1819 580.625 1820.41 578.427 1821.81 576.229 1822.81 573.693 1823.39 570.818L1823.67 569.474C1823.86 568.62 1823.99 567.881 1824.05 567.256 1824.11 566.631 1824.14 565.953 1824.14 565.224 1824.14 563.62 1823.8 562.443 1823.11 561.693 1822.42 560.943 1821.26 560.568 1819.61 560.568ZM1818.99 558.099C1820.34 558.099 1821.61 558.25 1822.78 558.552 1823.96 558.854 1825.17 559.391 1826.42 560.162L1829.3 558.099 1831.3 558.599 1826.7 578.412C1826.25 580.391 1826.02 581.933 1826.02 583.037 1826.02 583.87 1826.15 584.474 1826.42 584.849 1826.69 585.224 1827.12 585.412 1827.7 585.412 1828.33 585.412 1829 585.157 1829.7 584.646 1830.41 584.136 1831.41 583.162 1832.7 581.724L1834.49 583.474C1832.61 585.474 1831.01 586.896 1829.69 587.74 1828.37 588.584 1826.93 589.006 1825.39 589.006 1824.1 589.006 1823.07 588.578 1822.3 587.724 1821.53 586.87 1821.14 585.735 1821.14 584.318 1821.14 583.172 1821.38 581.953 1821.86 580.662L1821.45 580.537C1819.45 583.453 1817.56 585.589 1815.77 586.943 1813.98 588.297 1812.08 588.974 1810.08 588.974 1807.79 588.974 1806.01 588.11 1804.75 586.381 1803.49 584.651 1802.86 582.224 1802.86 579.099 1802.86 575.516 1803.56 572.073 1804.97 568.771 1806.38 565.469 1808.31 562.865 1810.77 560.959 1813.23 559.052 1815.97 558.099 1818.99 558.099Z" fill-rule="evenodd"/><text fill="#000000" fill-opacity="0" font-family="Arial,Arial_MSFontService,sans-serif" font-size="30.9062" x="1802.86" y="585.142">洧녩</text><path d="M1848.88 550.912 1853.19 550.912 1851.47 558.631 1860.97 558.631 1860.28 561.787 1850.78 561.787 1848 573.912C1847.46 576.266 1847.12 577.959 1846.97 578.99 1846.83 580.021 1846.75 580.849 1846.75 581.474 1846.75 584.058 1847.83 585.349 1849.97 585.349 1850.89 585.349 1851.86 585 1852.89 584.302 1853.92 583.604 1855.15 582.412 1856.57 580.724L1858.38 582.599C1856.57 584.787 1854.82 586.401 1853.14 587.443 1851.47 588.485 1849.71 589.006 1847.88 589.006 1843.52 589.006 1841.35 586.808 1841.35 582.412 1841.35 581.016 1841.52 579.547 1841.88 578.006L1845.57 561.787 1840.32 561.787 1840.78 559.631C1842.01 559.61 1842.95 559.516 1843.58 559.349 1844.22 559.183 1844.75 558.953 1845.17 558.662 1845.6 558.37 1845.99 557.953 1846.35 557.412 1846.7 556.87 1847.04 556.177 1847.38 555.334 1847.71 554.49 1848.21 553.016 1848.88 550.912Z" fill-rule="evenodd"/><text fill="#000000" fill-opacity="0" font-family="Arial,Arial_MSFontService,sans-serif" font-size="38.0938" x="1840.32" y="584.244">洧노</text><path d="M1874.58 571.872C1875.81 571.872 1876.95 572.002 1878.01 572.262 1879.08 572.522 1880 572.916 1880.78 573.444 1881.56 573.972 1882.17 574.63 1882.6 575.417 1883.04 576.205 1883.26 577.12 1883.26 578.16 1883.26 579.139 1883.12 580.003 1882.84 580.753 1882.57 581.503 1882.14 582.184 1881.57 582.796 1881 583.408 1880.29 583.962 1879.46 584.459 1878.63 584.957 1877.67 585.435 1876.58 585.894L1876.58 586.169C1877.6 586.353 1878.56 586.647 1879.45 587.053 1880.33 587.458 1881.11 587.971 1881.78 588.59 1882.44 589.21 1882.97 589.925 1883.35 590.736 1883.73 591.547 1883.92 592.442 1883.92 593.421 1883.92 594.645 1883.69 595.781 1883.23 596.829 1882.78 597.877 1882.09 598.784 1881.17 599.549 1880.25 600.313 1879.12 600.91 1877.77 601.339 1876.43 601.767 1874.85 601.981 1873.04 601.981 1871.62 601.981 1870.18 601.84 1868.71 601.557 1867.24 601.274 1865.85 600.903 1864.53 600.444L1864.53 595.487 1867.49 595.487C1867.74 596.251 1868.03 596.906 1868.36 597.449 1868.7 597.992 1869.09 598.435 1869.55 598.78 1870 599.124 1870.52 599.373 1871.11 599.526 1871.69 599.679 1872.36 599.755 1873.11 599.755 1875.09 599.755 1876.58 599.285 1877.6 598.344 1878.62 597.403 1879.13 595.976 1879.13 594.064 1879.13 592.029 1878.46 590.487 1877.12 589.439 1875.78 588.391 1873.79 587.867 1871.16 587.867L1869.14 587.867 1869.14 585.664C1870.75 585.588 1872.14 585.362 1873.31 584.987 1874.48 584.612 1875.45 584.127 1876.23 583.53 1877.02 582.933 1877.6 582.237 1877.98 581.442 1878.36 580.646 1878.55 579.797 1878.55 578.894 1878.55 577.425 1878.12 576.267 1877.24 575.417 1876.37 574.568 1875.11 574.144 1873.46 574.144 1872.07 574.144 1870.9 574.526 1869.96 575.291 1869.02 576.056 1868.29 577.196 1867.79 578.711L1864.87 578.711 1864.87 574.19C1866.68 573.425 1868.38 572.847 1869.98 572.457 1871.58 572.067 1873.11 571.872 1874.58 571.872Z" fill-rule="evenodd"/><text fill="#000000" fill-opacity="0" font-family="Arial,Arial_MSFontService,sans-serif" font-size="30.1094" x="1864.53" y="598.217">3</text><text font-family="Times New Roman,Times New Roman_MSFontService,sans-serif" font-weight="400" font-size="73" transform="matrix(1 0 0 1 682.433 207)">timescale </text><path d="M823.705 263.987C820.922 263.987 818.423 265.108 816.208 267.35 813.992 269.593 812.263 272.599 811.02 276.368 809.777 280.137 809.156 283.899 809.156 287.655 809.156 290.464 809.541 292.565 810.311 293.957 811.081 295.348 812.371 296.044 814.181 296.044 815.964 296.044 817.714 295.274 819.43 293.734 821.145 292.194 822.915 289.998 824.739 287.148 826.562 284.298 827.852 281.008 828.609 277.28L828.974 275.537C829.217 274.429 829.379 273.47 829.46 272.659 829.541 271.849 829.582 270.971 829.582 270.025 829.582 267.945 829.136 266.418 828.244 265.446 827.353 264.473 825.84 263.987 823.705 263.987ZM822.895 260.785C824.651 260.785 826.292 260.981 827.819 261.373 829.345 261.764 830.919 262.46 832.54 263.46L836.269 260.785 838.862 261.433 832.905 287.128C832.31 289.694 832.013 291.694 832.013 293.126 832.013 294.206 832.189 294.99 832.54 295.476 832.891 295.963 833.445 296.206 834.202 296.206 835.012 296.206 835.877 295.875 836.795 295.213 837.714 294.551 839.011 293.288 840.686 291.424L842.996 293.693C840.565 296.287 838.491 298.131 836.775 299.225 835.06 300.319 833.202 300.866 831.203 300.866 829.528 300.866 828.19 300.313 827.19 299.205 826.191 298.097 825.691 296.625 825.691 294.787 825.691 293.301 826.002 291.721 826.623 290.046L826.096 289.884C823.503 293.666 821.044 296.435 818.72 298.192 816.397 299.948 813.938 300.826 811.344 300.826 808.372 300.826 806.069 299.705 804.434 297.462 802.8 295.22 801.982 292.072 801.982 288.019 801.982 283.372 802.894 278.907 804.718 274.625 806.542 270.343 809.048 266.965 812.236 264.493 815.424 262.021 818.977 260.785 822.895 260.785Z" fill-rule="evenodd"/><text fill="#000000" fill-opacity="0" font-family="Arial,Arial_MSFontService,sans-serif" font-size="40.0815" x="801.982" y="295.856">洧녩</text><path d="M743 369.75 746.469 369.75 746.469 425.25 743 425.25ZM749.937 369.75 756.875 369.75 756.875 425.25 749.937 425.25ZM760.344 369.75 845.5 369.75 845.5 342 901 397.5 845.5 453 845.5 425.25 760.344 425.25Z" fill="#7F7F7F" fill-rule="evenodd"/><path d="M49.1438 111.824C46.9771 111.824 45.0865 112.731 43.4719 114.543 41.8574 116.356 40.5865 118.949 39.6594 122.324 38.7324 125.699 38.2688 128.606 38.2688 131.043 38.2688 133.335 38.7428 135.028 39.6907 136.121 40.6386 137.215 42.0709 137.762 43.9876 137.762 46.0292 137.762 47.8417 136.845 49.4251 135.012 51.0084 133.179 52.2584 130.611 53.1751 127.309 54.0917 124.007 54.5501 121.106 54.5501 118.606 54.5501 116.356 54.1126 114.663 53.2376 113.528 52.3626 112.392 50.998 111.824 49.1438 111.824ZM49.7688 109.324C53.1021 109.324 55.6438 110.236 57.3938 112.059 59.1438 113.882 60.0188 116.491 60.0188 119.887 60.0188 122.304 59.5969 124.887 58.7532 127.637 57.9094 130.387 56.7532 132.699 55.2844 134.574 53.8157 136.449 52.0605 137.861 50.0188 138.809 47.9771 139.757 45.6334 140.231 42.9876 140.231 39.7584 140.231 37.2532 139.324 35.4719 137.512 33.6907 135.699 32.8001 133.095 32.8001 129.699 32.8001 128.033 33.0501 126.106 33.5501 123.918 34.1959 120.96 35.2792 118.377 36.8001 116.168 38.3209 113.96 40.1959 112.267 42.4251 111.09 44.6542 109.913 47.1021 109.324 49.7688 109.324Z" fill-rule="evenodd"/><text fill="#000000" fill-opacity="0" font-family="Arial,Arial_MSFontService,sans-serif" font-size="30.9062" x="32.8001" y="136.367">洧녶</text><path d="M89.6896 94.5432 90.5334 96.9494C85.6584 98.5536 82.049 101.684 79.7053 106.34 77.3615 110.996 76.1896 116.845 76.1896 123.887 76.1896 131.179 77.3615 137.189 79.7053 141.918 82.049 146.647 85.6271 149.814 90.4396 151.418L89.6896 153.824C83.5855 152.22 78.9084 148.767 75.6584 143.465 72.4084 138.163 70.7834 131.741 70.7834 124.199 70.7834 116.679 72.4136 110.257 75.674 104.934 78.9344 99.6109 83.6063 96.1474 89.6896 94.5432Z" fill-rule="evenodd"/><text fill="#000000" fill-opacity="0" font-family="Arial,Arial_MSFontService,sans-serif" font-size="59.2812" x="70.7834" y="146.414">(</text><path d="M103.731 102.106 108.044 102.106 106.325 109.824 115.825 109.824 115.138 112.981 105.638 112.981 102.856 125.106C102.315 127.46 101.971 129.153 101.825 130.184 101.679 131.215 101.606 132.043 101.606 132.668 101.606 135.252 102.679 136.543 104.825 136.543 105.742 136.543 106.716 136.194 107.747 135.496 108.778 134.798 110.002 133.606 111.419 131.918L113.231 133.793C111.419 135.981 109.674 137.595 107.997 138.637 106.32 139.679 104.565 140.199 102.731 140.199 98.3772 140.199 96.2001 138.002 96.2001 133.606 96.2001 132.21 96.3772 130.741 96.7313 129.199L100.419 112.981 95.1688 112.981 95.6376 110.824C96.8667 110.804 97.799 110.71 98.4344 110.543 99.0699 110.377 99.6011 110.147 100.028 109.856 100.455 109.564 100.846 109.147 101.2 108.606 101.554 108.064 101.898 107.371 102.231 106.528 102.565 105.684 103.065 104.21 103.731 102.106Z" fill-rule="evenodd"/><text fill="#000000" fill-opacity="0" font-family="Arial,Arial_MSFontService,sans-serif" font-size="38.0938" x="95.1688" y="135.438">洧노</text><path d="M120.31 94.5432C126.394 96.1474 131.066 99.6109 134.326 104.934 137.587 110.257 139.217 116.679 139.217 124.199 139.217 131.741 137.592 138.163 134.342 143.465 131.092 148.767 126.415 152.22 120.31 153.824L119.56 151.418C124.373 149.814 127.951 146.647 130.295 141.918 132.639 137.189 133.81 131.179 133.81 123.887 133.81 116.845 132.644 110.996 130.31 106.34 127.977 101.684 124.363 98.5536 119.467 96.9494Z" fill-rule="evenodd"/><text fill="#000000" fill-opacity="0" font-family="Arial,Arial_MSFontService,sans-serif" font-size="59.2812" x="119.467" y="146.414">)</text><path d="M1032.97 115.824C1030.8 115.824 1028.91 116.73 1027.29 118.543 1025.68 120.355 1024.41 122.949 1023.48 126.324 1022.56 129.699 1022.09 132.605 1022.09 135.043 1022.09 137.335 1022.57 139.027 1023.51 140.121 1024.46 141.215 1025.89 141.762 1027.81 141.762 1029.85 141.762 1031.66 140.845 1033.25 139.012 1034.83 137.178 1036.08 134.611 1037 131.309 1037.91 128.007 1038.37 125.105 1038.37 122.605 1038.37 120.355 1037.94 118.663 1037.06 117.527 1036.19 116.392 1034.82 115.824 1032.97 115.824ZM1033.59 113.324C1036.93 113.324 1039.47 114.236 1041.22 116.059 1042.97 117.882 1043.84 120.491 1043.84 123.887 1043.84 126.303 1043.42 128.887 1042.58 131.637 1041.73 134.387 1040.58 136.699 1039.11 138.574 1037.64 140.449 1035.88 141.861 1033.84 142.809 1031.8 143.757 1029.46 144.23 1026.81 144.23 1023.58 144.23 1021.08 143.324 1019.29 141.512 1017.51 139.699 1016.62 137.095 1016.62 133.699 1016.62 132.033 1016.87 130.105 1017.37 127.918 1018.02 124.96 1019.1 122.376 1020.62 120.168 1022.14 117.96 1024.02 116.267 1026.25 115.09 1028.48 113.913 1030.93 113.324 1033.59 113.324Z" fill-rule="evenodd"/><text fill="#000000" fill-opacity="0" font-family="Arial,Arial_MSFontService,sans-serif" font-size="30.9062" x="1016.62" y="140.367">洧녶</text><path d="M1073.51 98.543 1074.36 100.949C1069.48 102.553 1065.87 105.684 1063.53 110.34 1061.18 114.996 1060.01 120.845 1060.01 127.887 1060.01 135.178 1061.18 141.189 1063.53 145.918 1065.87 150.647 1069.45 153.814 1074.26 155.418L1073.51 157.824C1067.41 156.22 1062.73 152.767 1059.48 147.465 1056.23 142.163 1054.61 135.741 1054.61 128.199 1054.61 120.678 1056.24 114.257 1059.5 108.934 1062.76 103.611 1067.43 100.147 1073.51 98.543Z" fill-rule="evenodd"/><text fill="#000000" fill-opacity="0" font-family="Arial,Arial_MSFontService,sans-serif" font-size="59.2812" x="1054.61" y="150.414">(</text><path d="M1095.37 115.762C1093.22 115.762 1091.29 116.626 1089.59 118.355 1087.88 120.085 1086.54 122.402 1085.59 125.309 1084.63 128.215 1084.15 131.116 1084.15 134.012 1084.15 136.178 1084.44 137.798 1085.04 138.871 1085.63 139.944 1086.63 140.48 1088.02 140.48 1089.4 140.48 1090.75 139.887 1092.07 138.699 1093.39 137.512 1094.76 135.819 1096.16 133.621 1097.57 131.423 1098.56 128.887 1099.15 126.012L1099.43 124.668C1099.62 123.814 1099.74 123.074 1099.8 122.449 1099.87 121.824 1099.9 121.147 1099.9 120.418 1099.9 118.814 1099.55 117.637 1098.87 116.887 1098.18 116.137 1097.01 115.762 1095.37 115.762ZM1094.74 113.293C1096.1 113.293 1097.36 113.444 1098.54 113.746 1099.72 114.048 1100.93 114.585 1102.18 115.355L1105.05 113.293 1107.05 113.793 1102.46 133.605C1102 135.585 1101.77 137.126 1101.77 138.23 1101.77 139.064 1101.91 139.668 1102.18 140.043 1102.45 140.418 1102.88 140.605 1103.46 140.605 1104.09 140.605 1104.75 140.35 1105.46 139.84 1106.17 139.329 1107.17 138.355 1108.46 136.918L1110.24 138.668C1108.37 140.668 1106.77 142.09 1105.44 142.934 1104.12 143.777 1102.69 144.199 1101.15 144.199 1099.86 144.199 1098.83 143.772 1098.05 142.918 1097.28 142.064 1096.9 140.928 1096.9 139.512 1096.9 138.366 1097.14 137.147 1097.62 135.855L1097.21 135.73C1095.21 138.647 1093.31 140.783 1091.52 142.137 1089.73 143.491 1087.84 144.168 1085.84 144.168 1083.54 144.168 1081.77 143.303 1080.51 141.574 1079.25 139.845 1078.62 137.418 1078.62 134.293 1078.62 130.71 1079.32 127.267 1080.73 123.965 1082.13 120.663 1084.06 118.059 1086.52 116.152 1088.98 114.246 1091.72 113.293 1094.74 113.293ZM1123.55 106.105 1127.87 106.105 1126.15 113.824 1135.65 113.824 1134.96 116.98 1125.46 116.98 1122.68 129.105C1122.14 131.46 1121.79 133.152 1121.65 134.184 1121.5 135.215 1121.43 136.043 1121.43 136.668 1121.43 139.251 1122.5 140.543 1124.65 140.543 1125.56 140.543 1126.54 140.194 1127.57 139.496 1128.6 138.798 1129.83 137.605 1131.24 135.918L1133.05 137.793C1131.24 139.98 1129.5 141.595 1127.82 142.637 1126.14 143.678 1124.39 144.199 1122.55 144.199 1118.2 144.199 1116.02 142.001 1116.02 137.605 1116.02 136.21 1116.2 134.741 1116.55 133.199L1120.24 116.98 1114.99 116.98 1115.46 114.824C1116.69 114.803 1117.62 114.71 1118.26 114.543 1118.89 114.376 1119.42 114.147 1119.85 113.855 1120.28 113.564 1120.67 113.147 1121.02 112.605 1121.38 112.064 1121.72 111.371 1122.05 110.527 1122.39 109.684 1122.89 108.21 1123.55 106.105Z" fill-rule="evenodd"/><text fill="#000000" fill-opacity="0" font-family="Arial,Arial_MSFontService,sans-serif" font-size="38.0938" x="1078.62" y="139.438">洧녩洧노</text><path d="M1139.65 98.543C1145.74 100.147 1150.41 103.611 1153.67 108.934 1156.93 114.257 1158.56 120.678 1158.56 128.199 1158.56 135.741 1156.94 142.163 1153.69 147.465 1150.44 152.767 1145.76 156.22 1139.65 157.824L1138.9 155.418C1143.72 153.814 1147.29 150.647 1149.64 145.918 1151.98 141.189 1153.15 135.178 1153.15 127.887 1153.15 120.845 1151.99 114.996 1149.65 110.34 1147.32 105.684 1143.71 102.553 1138.81 100.949Z" fill-rule="evenodd"/><text fill="#000000" fill-opacity="0" font-family="Arial,Arial_MSFontService,sans-serif" font-size="59.2812" x="1138.81" y="150.414">)</text></g></svg>