<?xml version="1.0" encoding="utf-8" standalone="no"?>
<!DOCTYPE svg PUBLIC "-//W3C//DTD SVG 1.1//EN"
  "http://www.w3.org/Graphics/SVG/1.1/DTD/svg11.dtd">
<svg xmlns:xlink="http://www.w3.org/1999/xlink" width="424.8pt" height="241.92pt" viewBox="0 0 424.8 241.92" xmlns="http://www.w3.org/2000/svg" version="1.1">
 <metadata>
  <rdf:RDF xmlns:dc="http://purl.org/dc/elements/1.1/" xmlns:cc="http://creativecommons.org/ns#" xmlns:rdf="http://www.w3.org/1999/02/22-rdf-syntax-ns#">
   <cc:Work>
    <dc:type rdf:resource="http://purl.org/dc/dcmitype/StillImage"/>
    <dc:date>2025-01-10T11:14:46.146260</dc:date>
    <dc:format>image/svg+xml</dc:format>
    <dc:creator>
     <cc:Agent>
      <dc:title>Matplotlib v3.9.0, https://matplotlib.org/</dc:title>
     </cc:Agent>
    </dc:creator>
   </cc:Work>
  </rdf:RDF>
 </metadata>
 <defs>
  <style type="text/css">*{stroke-linejoin: round; stroke-linecap: butt}</style>
 </defs>
 <g id="figure_1">
  <g id="patch_1">
   <path d="M 0 241.92 
L 424.8 241.92 
L 424.8 0 
L 0 0 
z
" style="fill: #ffffff"/>
  </g>
  <g id="axes_1">
   <g id="patch_2">
    <path d="M 53.1 201.161432 
L 382.32 201.161432 
L 382.32 62.984084 
L 53.1 62.984084 
z
" style="fill: #eaeaf2"/>
   </g>
   <g id="matplotlib.axis_1">
    <g id="xtick_1">
     <g id="line2d_1">
      <path d="M 68.064545 201.161432 
L 68.064545 62.984084 
" clip-path="url(#pcf7db93592)" style="fill: none; stroke: #ffffff; stroke-linecap: round"/>
     </g>
     <g id="text_1">
      <!-- $\mathdefault{10^{-1}}$ -->
      <g style="fill: #262626" transform="translate(56.80121 218.963611) scale(0.12 -0.12)">
       <defs>
        <path id="CMR17-31" d="M 1702 4058 
C 1702 4192 1696 4192 1606 4192 
C 1357 3916 979 3827 621 3827 
C 602 3827 570 3827 563 3808 
C 557 3795 557 3782 557 3648 
C 755 3648 1088 3686 1344 3839 
L 1344 461 
C 1344 236 1331 160 781 160 
L 589 160 
L 589 0 
C 896 0 1216 0 1523 0 
C 1830 0 2150 0 2458 0 
L 2458 160 
L 2266 160 
C 1715 160 1702 230 1702 458 
L 1702 4058 
z
" transform="scale(0.015625)"/>
        <path id="CMR17-30" d="M 2688 2025 
C 2688 2416 2682 3080 2413 3591 
C 2176 4039 1798 4198 1466 4198 
C 1158 4198 768 4058 525 3597 
C 269 3118 243 2524 243 2025 
C 243 1661 250 1106 448 619 
C 723 -39 1216 -128 1466 -128 
C 1760 -128 2208 -7 2470 600 
C 2662 1042 2688 1559 2688 2025 
z
M 1466 -26 
C 1056 -26 813 325 723 812 
C 653 1188 653 1738 653 2096 
C 653 2588 653 2997 736 3387 
C 858 3929 1216 4096 1466 4096 
C 1728 4096 2067 3923 2189 3400 
C 2272 3036 2278 2607 2278 2096 
C 2278 1680 2278 1169 2202 792 
C 2067 95 1690 -26 1466 -26 
z
" transform="scale(0.015625)"/>
        <path id="CMSY10-0" d="M 4218 1472 
C 4326 1472 4442 1472 4442 1600 
C 4442 1728 4326 1728 4218 1728 
L 755 1728 
C 646 1728 531 1728 531 1600 
C 531 1472 646 1472 755 1472 
L 4218 1472 
z
" transform="scale(0.015625)"/>
       </defs>
       <use xlink:href="#CMR17-31" transform="scale(0.996264)"/>
       <use xlink:href="#CMR17-30" transform="translate(45.690477 0) scale(0.996264)"/>
       <use xlink:href="#CMSY10-0" transform="translate(91.380954 36.153639) scale(0.697382)"/>
       <use xlink:href="#CMR17-31" transform="translate(145.621947 36.153639) scale(0.697382)"/>
      </g>
     </g>
    </g>
    <g id="xtick_2">
     <g id="line2d_2">
      <path d="M 217.71 201.161432 
L 217.71 62.984084 
" clip-path="url(#pcf7db93592)" style="fill: none; stroke: #ffffff; stroke-linecap: round"/>
     </g>
     <g id="text_2">
      <!-- $\mathdefault{10^{0}}$ -->
      <g style="fill: #262626" transform="translate(209.739918 218.963611) scale(0.12 -0.12)">
       <use xlink:href="#CMR17-31" transform="scale(0.996264)"/>
       <use xlink:href="#CMR17-30" transform="translate(45.690477 0) scale(0.996264)"/>
       <use xlink:href="#CMR17-30" transform="translate(91.380954 36.153639) scale(0.697382)"/>
      </g>
     </g>
    </g>
    <g id="xtick_3">
     <g id="line2d_3">
      <path d="M 367.355455 201.161432 
L 367.355455 62.984084 
" clip-path="url(#pcf7db93592)" style="fill: none; stroke: #ffffff; stroke-linecap: round"/>
     </g>
     <g id="text_3">
      <!-- $\mathdefault{10^{1}}$ -->
      <g style="fill: #262626" transform="translate(359.385373 218.963611) scale(0.12 -0.12)">
       <use xlink:href="#CMR17-31" transform="scale(0.996264)"/>
       <use xlink:href="#CMR17-30" transform="translate(45.690477 0) scale(0.996264)"/>
       <use xlink:href="#CMR17-31" transform="translate(91.380954 36.153639) scale(0.697382)"/>
      </g>
     </g>
    </g>
    <g id="xtick_4"/>
    <g id="xtick_5"/>
    <g id="xtick_6"/>
    <g id="xtick_7"/>
    <g id="xtick_8"/>
    <g id="xtick_9"/>
    <g id="xtick_10"/>
    <g id="xtick_11"/>
    <g id="xtick_12"/>
    <g id="xtick_13"/>
    <g id="xtick_14"/>
    <g id="xtick_15"/>
    <g id="xtick_16"/>
    <g id="xtick_17"/>
    <g id="xtick_18"/>
    <g id="xtick_19"/>
    <g id="xtick_20"/>
    <g id="xtick_21"/>
    <g id="text_4">
     <!-- timescale $a$ -->
     <g style="fill: #262626" transform="translate(184.497397 234.974084) scale(0.14 -0.14)">
      <defs>
       <path id="CMR17-74" d="M 966 2560 
L 1862 2560 
L 1862 2725 
L 966 2725 
L 966 3904 
L 851 3904 
C 838 3245 614 2668 70 2668 
L 70 2560 
L 627 2560 
L 627 771 
C 627 650 627 -64 1370 -64 
C 1747 -64 1965 306 1965 777 
L 1965 1140 
L 1850 1140 
L 1850 783 
C 1850 344 1677 51 1408 51 
C 1222 51 966 178 966 758 
L 966 2560 
z
" transform="scale(0.015625)"/>
       <path id="CMR17-69" d="M 992 3909 
C 992 4049 877 4170 730 4170 
C 589 4170 467 4056 467 3909 
C 467 3769 582 3648 730 3648 
C 870 3648 992 3763 992 3909 
z
M 243 2706 
L 243 2541 
C 602 2541 653 2502 653 2197 
L 653 427 
C 653 184 627 153 218 153 
L 218 -13 
C 371 0 646 0 806 0 
C 960 0 1222 0 1370 -13 
L 1370 153 
C 992 153 979 191 979 420 
L 979 2776 
L 243 2706 
z
" transform="scale(0.015625)"/>
       <path id="CMR17-6d" d="M 4326 1933 
C 4326 2252 4269 2790 3507 2790 
C 3072 2790 2771 2496 2656 2151 
L 2650 2151 
C 2573 2676 2195 2790 1837 2790 
C 1331 2790 1069 2400 973 2144 
L 966 2144 
L 966 2790 
L 211 2720 
L 211 2554 
C 589 2554 646 2515 646 2208 
L 646 428 
C 646 184 621 153 211 153 
L 211 -13 
C 365 0 646 0 813 0 
C 979 0 1267 0 1421 -13 
L 1421 153 
C 1011 153 986 178 986 428 
L 986 1658 
C 986 2247 1344 2688 1792 2688 
C 2266 2688 2317 2266 2317 1958 
L 2317 428 
C 2317 184 2291 153 1882 153 
L 1882 -13 
C 2035 0 2317 0 2483 0 
C 2650 0 2938 0 3091 -13 
L 3091 153 
C 2682 153 2656 178 2656 428 
L 2656 1658 
C 2656 2247 3014 2688 3462 2688 
C 3936 2688 3987 2266 3987 1958 
L 3987 428 
C 3987 184 3962 153 3552 153 
L 3552 -13 
C 3706 0 3987 0 4154 0 
C 4320 0 4608 0 4762 -13 
L 4762 153 
C 4352 153 4326 178 4326 428 
L 4326 1933 
z
" transform="scale(0.015625)"/>
       <path id="CMR17-65" d="M 2438 1472 
C 2464 1498 2464 1511 2464 1576 
C 2464 2238 2118 2816 1389 2816 
C 710 2816 173 2169 173 1383 
C 173 551 781 -64 1459 -64 
C 2176 -64 2458 607 2458 740 
C 2458 784 2419 784 2406 784 
C 2362 784 2355 771 2330 696 
C 2189 265 1837 51 1504 51 
C 1229 51 954 203 781 480 
C 582 803 582 1176 582 1472 
L 2438 1472 
z
M 589 1568 
C 634 2505 1126 2714 1382 2714 
C 1818 2714 2112 2297 2118 1568 
L 589 1568 
z
" transform="scale(0.015625)"/>
       <path id="CMR17-73" d="M 1978 2697 
C 1978 2813 1971 2819 1933 2819 
C 1907 2819 1901 2813 1824 2717 
C 1805 2691 1747 2626 1728 2601 
C 1523 2819 1235 2819 1126 2819 
C 416 2819 160 2447 160 2076 
C 160 1498 813 1365 998 1325 
C 1402 1243 1542 1217 1677 1101 
C 1760 1025 1901 884 1901 654 
C 1901 384 1747 38 1158 38 
C 602 38 403 460 288 1021 
C 269 1110 269 1117 218 1117 
C 166 1117 160 1110 160 983 
L 160 63 
C 160 -51 166 -58 205 -58 
C 237 -58 243 -51 275 0 
C 314 57 410 211 448 276 
C 576 103 800 -64 1158 -64 
C 1792 -64 2131 283 2131 784 
C 2131 1112 1958 1285 1875 1362 
C 1683 1561 1459 1606 1190 1657 
C 838 1735 390 1825 390 2217 
C 390 2383 480 2737 1126 2737 
C 1811 2737 1850 2094 1862 1888 
C 1869 1856 1901 1849 1920 1849 
C 1978 1849 1978 1869 1978 1978 
L 1978 2697 
z
" transform="scale(0.015625)"/>
       <path id="CMR17-63" d="M 2234 2240 
C 2112 2240 1933 2240 1933 2017 
C 1933 1838 2080 1787 2163 1787 
C 2208 1787 2394 1807 2394 2024 
C 2394 2467 1958 2803 1466 2803 
C 787 2803 211 2178 211 1363 
C 211 516 813 -64 1466 -64 
C 2259 -64 2458 677 2458 748 
C 2458 774 2451 793 2406 793 
C 2362 793 2355 787 2330 703 
C 2163 180 1798 51 1523 51 
C 1114 51 621 427 621 1369 
C 621 2338 1094 2688 1472 2688 
C 1722 2688 2093 2573 2234 2240 
z
" transform="scale(0.015625)"/>
       <path id="CMR17-61" d="M 2304 1653 
C 2304 2072 2304 2294 2035 2543 
C 1798 2752 1523 2816 1306 2816 
C 800 2816 435 2407 435 1971 
C 435 1728 627 1728 666 1728 
C 749 1728 896 1778 896 1954 
C 896 2112 774 2181 666 2181 
C 640 2181 608 2174 589 2168 
C 723 2592 1069 2714 1293 2714 
C 1613 2714 1965 2429 1965 1885 
L 1965 1600 
C 1587 1600 1133 1549 774 1357 
C 371 1133 256 813 256 570 
C 256 77 832 -64 1171 -64 
C 1523 -64 1850 139 1990 511 
C 2003 233 2182 -18 2464 -18 
C 2598 -18 2938 70 2938 567 
L 2938 920 
L 2822 920 
L 2822 562 
C 2822 178 2650 128 2566 128 
C 2304 128 2304 458 2304 738 
L 2304 1653 
z
M 1965 870 
C 1965 317 1568 38 1216 38 
C 896 38 646 275 646 570 
C 646 761 730 1100 1101 1305 
C 1408 1478 1760 1504 1965 1504 
L 1965 870 
z
" transform="scale(0.015625)"/>
       <path id="CMR17-6c" d="M 979 4396 
L 218 4326 
L 218 4160 
C 595 4160 653 4122 653 3817 
L 653 426 
C 653 184 627 153 218 153 
L 218 -13 
C 371 0 653 0 813 0 
C 979 0 1261 0 1414 -13 
L 1414 153 
C 1005 153 979 178 979 426 
L 979 4396 
z
" transform="scale(0.015625)"/>
       <path id="CMMI12-61" d="M 1926 760 
C 1894 651 1894 639 1805 517 
C 1664 338 1382 64 1082 64 
C 819 64 672 300 672 677 
C 672 1028 870 1743 992 2012 
C 1210 2459 1510 2689 1760 2689 
C 2182 2689 2266 2165 2266 2114 
C 2266 2108 2246 2024 2240 2012 
L 1926 760 
z
M 2336 2395 
C 2266 2561 2093 2816 1760 2816 
C 1037 2816 256 1884 256 939 
C 256 307 627 -64 1062 -64 
C 1414 -64 1715 211 1894 422 
C 1958 45 2259 -64 2451 -64 
C 2643 -64 2797 51 2912 281 
C 3014 498 3104 888 3104 913 
C 3104 945 3078 971 3040 971 
C 2982 971 2976 939 2950 843 
C 2854 466 2733 64 2470 64 
C 2285 64 2272 230 2272 358 
C 2272 505 2291 575 2349 824 
C 2394 984 2426 1124 2477 1309 
C 2714 2267 2771 2497 2771 2535 
C 2771 2625 2701 2695 2605 2695 
C 2400 2695 2349 2472 2336 2395 
z
" transform="scale(0.015625)"/>
      </defs>
      <use xlink:href="#CMR17-74" transform="scale(0.996264)"/>
      <use xlink:href="#CMR17-69" transform="translate(35.280768 0) scale(0.996264)"/>
      <use xlink:href="#CMR17-6d" transform="translate(60.151826 0) scale(0.996264)"/>
      <use xlink:href="#CMR17-65" transform="translate(137.071416 0) scale(0.996264)"/>
      <use xlink:href="#CMR17-73" transform="translate(177.557077 0) scale(0.996264)"/>
      <use xlink:href="#CMR17-63" transform="translate(213.358414 0) scale(0.996264)"/>
      <use xlink:href="#CMR17-61" transform="translate(253.844075 0) scale(0.996264)"/>
      <use xlink:href="#CMR17-6c" transform="translate(299.534552 0) scale(0.996264)"/>
      <use xlink:href="#CMR17-65" transform="translate(324.40561 0) scale(0.996264)"/>
      <use xlink:href="#CMMI12-61" transform="translate(394.967237 0) scale(0.996264)"/>
     </g>
    </g>
   </g>
   <g id="matplotlib.axis_2">
    <g id="ytick_1">
     <g id="line2d_4">
      <path d="M 53.1 165.628707 
L 382.32 165.628707 
" clip-path="url(#pcf7db93592)" style="fill: none; stroke: #ffffff; stroke-linecap: round"/>
     </g>
     <g id="text_5">
      <!-- $\mathdefault{10^{-7}}$ -->
      <g style="fill: #262626" transform="translate(21.07333 169.779797) scale(0.12 -0.12)">
       <defs>
        <path id="CMR17-37" d="M 2886 3941 
L 2886 4081 
L 1382 4081 
C 634 4081 621 4165 595 4288 
L 480 4288 
L 294 3094 
L 410 3094 
C 429 3215 474 3540 550 3661 
C 589 3712 1062 3712 1171 3712 
L 2579 3712 
L 1869 2661 
C 1395 1954 1069 999 1069 165 
C 1069 89 1069 -128 1299 -128 
C 1530 -128 1530 89 1530 171 
L 1530 465 
C 1530 1508 1709 2196 2003 2636 
L 2886 3941 
z
" transform="scale(0.015625)"/>
       </defs>
       <use xlink:href="#CMR17-31" transform="scale(0.996264)"/>
       <use xlink:href="#CMR17-30" transform="translate(45.690477 0) scale(0.996264)"/>
       <use xlink:href="#CMSY10-0" transform="translate(91.380954 36.153639) scale(0.697382)"/>
       <use xlink:href="#CMR17-37" transform="translate(145.621947 36.153639) scale(0.697382)"/>
      </g>
     </g>
    </g>
    <g id="ytick_2">
     <g id="line2d_5">
      <path d="M 53.1 119.757805 
L 382.32 119.757805 
" clip-path="url(#pcf7db93592)" style="fill: none; stroke: #ffffff; stroke-linecap: round"/>
     </g>
     <g id="text_6">
      <!-- $\mathdefault{10^{-6}}$ -->
      <g style="fill: #262626" transform="translate(21.07333 123.908895) scale(0.12 -0.12)">
       <defs>
        <path id="CMR17-36" d="M 678 2176 
C 678 3690 1395 4032 1811 4032 
C 1946 4032 2272 4009 2400 3776 
C 2298 3776 2106 3776 2106 3553 
C 2106 3381 2246 3323 2336 3323 
C 2394 3323 2566 3348 2566 3560 
C 2566 3954 2246 4179 1805 4179 
C 1043 4179 243 3390 243 1984 
C 243 253 966 -128 1478 -128 
C 2099 -128 2688 427 2688 1283 
C 2688 2081 2170 2662 1517 2662 
C 1126 2662 838 2407 678 1960 
L 678 2176 
z
M 1478 25 
C 691 25 691 1200 691 1436 
C 691 1896 909 2560 1504 2560 
C 1613 2560 1926 2560 2138 2120 
C 2253 1870 2253 1609 2253 1289 
C 2253 944 2253 690 2118 434 
C 1978 171 1773 25 1478 25 
z
" transform="scale(0.015625)"/>
       </defs>
       <use xlink:href="#CMR17-31" transform="scale(0.996264)"/>
       <use xlink:href="#CMR17-30" transform="translate(45.690477 0) scale(0.996264)"/>
       <use xlink:href="#CMSY10-0" transform="translate(91.380954 36.153639) scale(0.697382)"/>
       <use xlink:href="#CMR17-36" transform="translate(145.621947 36.153639) scale(0.697382)"/>
      </g>
     </g>
    </g>
    <g id="ytick_3">
     <g id="line2d_6">
      <path d="M 53.1 73.886903 
L 382.32 73.886903 
" clip-path="url(#pcf7db93592)" style="fill: none; stroke: #ffffff; stroke-linecap: round"/>
     </g>
     <g id="text_7">
      <!-- $\mathdefault{10^{-5}}$ -->
      <g style="fill: #262626" transform="translate(21.07333 78.037993) scale(0.12 -0.12)">
       <defs>
        <path id="CMR17-35" d="M 730 3692 
C 794 3666 1056 3584 1325 3584 
C 1920 3584 2246 3911 2432 4100 
C 2432 4157 2432 4192 2394 4192 
C 2387 4192 2374 4192 2323 4163 
C 2099 4058 1837 3973 1517 3973 
C 1325 3973 1037 3999 723 4139 
C 653 4171 640 4171 634 4171 
C 602 4171 595 4164 595 4037 
L 595 2203 
C 595 2089 595 2057 659 2057 
C 691 2057 704 2070 736 2114 
C 941 2401 1222 2522 1542 2522 
C 1766 2522 2246 2382 2246 1289 
C 2246 1085 2246 715 2054 421 
C 1894 159 1645 25 1370 25 
C 947 25 518 320 403 814 
C 429 807 480 795 506 795 
C 589 795 749 840 749 1038 
C 749 1210 627 1280 506 1280 
C 358 1280 262 1190 262 1011 
C 262 454 704 -128 1382 -128 
C 2042 -128 2669 440 2669 1264 
C 2669 2030 2170 2624 1549 2624 
C 1222 2624 947 2503 730 2274 
L 730 3692 
z
" transform="scale(0.015625)"/>
       </defs>
       <use xlink:href="#CMR17-31" transform="scale(0.996264)"/>
       <use xlink:href="#CMR17-30" transform="translate(45.690477 0) scale(0.996264)"/>
       <use xlink:href="#CMSY10-0" transform="translate(91.380954 36.153639) scale(0.697382)"/>
       <use xlink:href="#CMR17-35" transform="translate(145.621947 36.153639) scale(0.697382)"/>
      </g>
     </g>
    </g>
    <g id="ytick_4"/>
    <g id="ytick_5"/>
    <g id="ytick_6"/>
    <g id="ytick_7"/>
    <g id="ytick_8"/>
    <g id="ytick_9"/>
    <g id="ytick_10"/>
    <g id="ytick_11"/>
    <g id="ytick_12"/>
    <g id="ytick_13"/>
    <g id="ytick_14"/>
    <g id="ytick_15"/>
    <g id="ytick_16"/>
    <g id="ytick_17"/>
    <g id="ytick_18"/>
    <g id="ytick_19"/>
    <g id="ytick_20"/>
    <g id="ytick_21"/>
    <g id="ytick_22"/>
    <g id="ytick_23"/>
    <g id="ytick_24"/>
    <g id="ytick_25"/>
    <g id="ytick_26"/>
    <g id="ytick_27"/>
    <g id="text_8">
     <!-- MSE -->
     <g style="fill: #262626" transform="translate(14.361302 146.769355) rotate(-90) scale(0.14 -0.14)">
      <defs>
       <path id="CMR17-4d" d="M 1338 4224 
C 1299 4320 1293 4320 1158 4320 
L 339 4320 
L 339 4160 
C 781 4160 851 4160 851 3875 
L 851 610 
C 851 451 851 153 339 153 
L 339 -13 
C 486 0 755 0 915 0 
C 1075 0 1344 0 1491 -13 
L 1491 153 
C 979 153 979 451 979 610 
L 979 4135 
L 986 4135 
L 2490 89 
C 2515 25 2528 -13 2579 -13 
C 2630 -13 2643 25 2669 89 
L 4186 4166 
L 4192 4166 
L 4192 438 
C 4192 153 4122 153 3680 153 
L 3680 -13 
C 3853 0 4198 0 4384 0 
C 4570 0 4922 0 5094 -13 
L 5094 153 
C 4653 153 4582 153 4582 438 
L 4582 3875 
C 4582 4160 4653 4160 5094 4160 
L 5094 4320 
L 4282 4320 
C 4147 4320 4141 4314 4102 4218 
L 2720 502 
L 1338 4224 
z
" transform="scale(0.015625)"/>
       <path id="CMR17-53" d="M 2803 4290 
C 2803 4404 2797 4411 2758 4411 
C 2720 4411 2707 4385 2682 4328 
L 2490 3907 
C 2246 4257 1875 4416 1472 4416 
C 819 4416 294 3901 294 3253 
C 294 3056 339 2776 557 2510 
C 794 2218 1018 2167 1530 2033 
C 1722 1982 2042 1899 2106 1874 
C 2470 1722 2662 1341 2662 985 
C 2662 527 2336 38 1779 38 
C 1094 38 454 419 410 1311 
C 403 1413 397 1419 352 1419 
C 301 1419 294 1413 294 1285 
L 294 -1 
C 294 -115 301 -122 339 -122 
C 384 -122 397 -90 486 108 
C 493 127 493 140 614 381 
C 934 -39 1472 -128 1779 -128 
C 2477 -128 2970 451 2970 1124 
C 2970 1454 2848 1708 2778 1823 
C 2509 2230 2221 2306 1914 2382 
C 1869 2402 1856 2402 1498 2490 
C 1152 2579 1005 2624 845 2796 
C 666 2992 602 3196 602 3399 
C 602 3812 934 4263 1478 4263 
C 2157 4263 2579 3786 2675 2993 
C 2694 2878 2701 2872 2746 2872 
C 2803 2872 2803 2891 2803 2999 
L 2803 4290 
z
" transform="scale(0.015625)"/>
       <path id="CMR17-45" d="M 3885 1615 
L 3770 1615 
C 3629 676 3546 166 2419 166 
L 1530 166 
C 1274 166 1261 197 1261 414 
L 1261 2176 
L 1862 2176 
C 2464 2176 2522 1960 2522 1430 
L 2637 1430 
L 2637 3081 
L 2522 3081 
C 2522 2557 2464 2342 1862 2342 
L 1261 2342 
L 1261 3913 
C 1261 4128 1274 4160 1530 4160 
L 2406 4160 
C 3398 4160 3514 3769 3603 2929 
L 3718 2929 
L 3565 4325 
L 326 4325 
L 326 4160 
C 768 4160 838 4160 838 3874 
L 838 451 
C 838 166 768 166 326 166 
L 326 0 
L 3654 0 
L 3885 1615 
z
" transform="scale(0.015625)"/>
      </defs>
      <use xlink:href="#CMR17-4d" transform="scale(0.996264)"/>
      <use xlink:href="#CMR17-53" transform="translate(84.686941 0) scale(0.996264)"/>
      <use xlink:href="#CMR17-45" transform="translate(135.58231 0) scale(0.996264)"/>
     </g>
    </g>
   </g>
   <g id="line2d_7">
    <path d="M 68.064545 133.913154 
L 113.112316 114.426105 
L 139.463572 126.542027 
L 158.160087 139.348552 
L 172.662229 138.642879 
L 184.511343 121.653684 
L 194.529626 107.103234 
L 203.207857 106.576332 
L 210.8626 101.684252 
L 262.757771 171.535657 
L 289.109027 166.557661 
L 307.805541 166.386941 
L 322.307684 172.417772 
L 334.156798 150.633987 
L 344.17508 159.323276 
L 352.853312 170.991161 
L 360.508054 156.630512 
L 367.355455 170.642576 
" clip-path="url(#pcf7db93592)" style="fill: none; stroke-dasharray: 6.4,1.6,1,1.6; stroke-dashoffset: 0; stroke: #9bd93c"/>
    <defs>
     <path id="m1122083f43" d="M -2.5 2.5 
L 2.5 -2.5 
M -2.5 -2.5 
L 2.5 2.5 
" style="stroke: #9bd93c"/>
    </defs>
    <g clip-path="url(#pcf7db93592)">
     <use xlink:href="#m1122083f43" x="68.064545" y="133.913154" style="fill: #9bd93c; stroke: #9bd93c"/>
     <use xlink:href="#m1122083f43" x="113.112316" y="114.426105" style="fill: #9bd93c; stroke: #9bd93c"/>
     <use xlink:href="#m1122083f43" x="139.463572" y="126.542027" style="fill: #9bd93c; stroke: #9bd93c"/>
     <use xlink:href="#m1122083f43" x="158.160087" y="139.348552" style="fill: #9bd93c; stroke: #9bd93c"/>
     <use xlink:href="#m1122083f43" x="172.662229" y="138.642879" style="fill: #9bd93c; stroke: #9bd93c"/>
     <use xlink:href="#m1122083f43" x="184.511343" y="121.653684" style="fill: #9bd93c; stroke: #9bd93c"/>
     <use xlink:href="#m1122083f43" x="194.529626" y="107.103234" style="fill: #9bd93c; stroke: #9bd93c"/>
     <use xlink:href="#m1122083f43" x="203.207857" y="106.576332" style="fill: #9bd93c; stroke: #9bd93c"/>
     <use xlink:href="#m1122083f43" x="210.8626" y="101.684252" style="fill: #9bd93c; stroke: #9bd93c"/>
     <use xlink:href="#m1122083f43" x="262.757771" y="171.535657" style="fill: #9bd93c; stroke: #9bd93c"/>
     <use xlink:href="#m1122083f43" x="289.109027" y="166.557661" style="fill: #9bd93c; stroke: #9bd93c"/>
     <use xlink:href="#m1122083f43" x="307.805541" y="166.386941" style="fill: #9bd93c; stroke: #9bd93c"/>
     <use xlink:href="#m1122083f43" x="322.307684" y="172.417772" style="fill: #9bd93c; stroke: #9bd93c"/>
     <use xlink:href="#m1122083f43" x="334.156798" y="150.633987" style="fill: #9bd93c; stroke: #9bd93c"/>
     <use xlink:href="#m1122083f43" x="344.17508" y="159.323276" style="fill: #9bd93c; stroke: #9bd93c"/>
     <use xlink:href="#m1122083f43" x="352.853312" y="170.991161" style="fill: #9bd93c; stroke: #9bd93c"/>
     <use xlink:href="#m1122083f43" x="360.508054" y="156.630512" style="fill: #9bd93c; stroke: #9bd93c"/>
     <use xlink:href="#m1122083f43" x="367.355455" y="170.642576" style="fill: #9bd93c; stroke: #9bd93c"/>
    </g>
   </g>
   <g id="line2d_8">
    <path d="M 68.064545 145.373065 
L 113.112316 122.365678 
L 139.463572 119.408292 
L 158.160087 126.187876 
L 172.662229 132.26463 
L 184.511343 122.723781 
L 194.529626 110.860647 
L 203.207857 113.836999 
L 210.8626 108.886515 
L 262.757771 160.414506 
L 289.109027 186.103733 
L 307.805541 160.131272 
L 322.307684 167.856424 
L 334.156798 179.849428 
L 344.17508 186.960639 
L 352.853312 183.04359 
L 360.508054 173.055807 
L 367.355455 160.439924 
" clip-path="url(#pcf7db93592)" style="fill: none; stroke: #9bd93c; stroke-linecap: round"/>
    <defs>
     <path id="m215538fe75" d="M 0 2.5 
C 0.663008 2.5 1.29895 2.236584 1.767767 1.767767 
C 2.236584 1.29895 2.5 0.663008 2.5 0 
C 2.5 -0.663008 2.236584 -1.29895 1.767767 -1.767767 
C 1.29895 -2.236584 0.663008 -2.5 0 -2.5 
C -0.663008 -2.5 -1.29895 -2.236584 -1.767767 -1.767767 
C -2.236584 -1.29895 -2.5 -0.663008 -2.5 0 
C -2.5 0.663008 -2.236584 1.29895 -1.767767 1.767767 
C -1.29895 2.236584 -0.663008 2.5 0 2.5 
z
" style="stroke: #9bd93c"/>
    </defs>
    <g clip-path="url(#pcf7db93592)">
     <use xlink:href="#m215538fe75" x="68.064545" y="145.373065" style="fill: #9bd93c; stroke: #9bd93c"/>
     <use xlink:href="#m215538fe75" x="113.112316" y="122.365678" style="fill: #9bd93c; stroke: #9bd93c"/>
     <use xlink:href="#m215538fe75" x="139.463572" y="119.408292" style="fill: #9bd93c; stroke: #9bd93c"/>
     <use xlink:href="#m215538fe75" x="158.160087" y="126.187876" style="fill: #9bd93c; stroke: #9bd93c"/>
     <use xlink:href="#m215538fe75" x="172.662229" y="132.26463" style="fill: #9bd93c; stroke: #9bd93c"/>
     <use xlink:href="#m215538fe75" x="184.511343" y="122.723781" style="fill: #9bd93c; stroke: #9bd93c"/>
     <use xlink:href="#m215538fe75" x="194.529626" y="110.860647" style="fill: #9bd93c; stroke: #9bd93c"/>
     <use xlink:href="#m215538fe75" x="203.207857" y="113.836999" style="fill: #9bd93c; stroke: #9bd93c"/>
     <use xlink:href="#m215538fe75" x="210.8626" y="108.886515" style="fill: #9bd93c; stroke: #9bd93c"/>
     <use xlink:href="#m215538fe75" x="262.757771" y="160.414506" style="fill: #9bd93c; stroke: #9bd93c"/>
     <use xlink:href="#m215538fe75" x="289.109027" y="186.103733" style="fill: #9bd93c; stroke: #9bd93c"/>
     <use xlink:href="#m215538fe75" x="307.805541" y="160.131272" style="fill: #9bd93c; stroke: #9bd93c"/>
     <use xlink:href="#m215538fe75" x="322.307684" y="167.856424" style="fill: #9bd93c; stroke: #9bd93c"/>
     <use xlink:href="#m215538fe75" x="334.156798" y="179.849428" style="fill: #9bd93c; stroke: #9bd93c"/>
     <use xlink:href="#m215538fe75" x="344.17508" y="186.960639" style="fill: #9bd93c; stroke: #9bd93c"/>
     <use xlink:href="#m215538fe75" x="352.853312" y="183.04359" style="fill: #9bd93c; stroke: #9bd93c"/>
     <use xlink:href="#m215538fe75" x="360.508054" y="173.055807" style="fill: #9bd93c; stroke: #9bd93c"/>
     <use xlink:href="#m215538fe75" x="367.355455" y="160.439924" style="fill: #9bd93c; stroke: #9bd93c"/>
    </g>
   </g>
   <g id="line2d_9">
    <path d="M 68.064545 129.806436 
L 113.112316 160.230193 
L 139.463572 119.14376 
L 158.160087 126.009454 
L 172.662229 145.012054 
L 184.511343 115.662414 
L 194.529626 113.259556 
L 203.207857 99.958449 
L 210.8626 95.0137 
L 262.757771 185.969945 
L 289.109027 167.13088 
L 307.805541 172.791359 
L 322.307684 153.218163 
L 334.156798 150.187768 
L 344.17508 152.570273 
L 352.853312 194.880643 
L 360.508054 165.432213 
L 367.355455 155.801342 
" clip-path="url(#pcf7db93592)" style="fill: none; stroke-dasharray: 3.7,1.6; stroke-dashoffset: 0; stroke: #9bd93c"/>
    <defs>
     <path id="mba4c749c88" d="M -2.5 2.5 
L 2.5 2.5 
L 2.5 -2.5 
L -2.5 -2.5 
z
" style="stroke: #9bd93c; stroke-linejoin: miter"/>
    </defs>
    <g clip-path="url(#pcf7db93592)">
     <use xlink:href="#mba4c749c88" x="68.064545" y="129.806436" style="fill: #9bd93c; stroke: #9bd93c; stroke-linejoin: miter"/>
     <use xlink:href="#mba4c749c88" x="113.112316" y="160.230193" style="fill: #9bd93c; stroke: #9bd93c; stroke-linejoin: miter"/>
     <use xlink:href="#mba4c749c88" x="139.463572" y="119.14376" style="fill: #9bd93c; stroke: #9bd93c; stroke-linejoin: miter"/>
     <use xlink:href="#mba4c749c88" x="158.160087" y="126.009454" style="fill: #9bd93c; stroke: #9bd93c; stroke-linejoin: miter"/>
     <use xlink:href="#mba4c749c88" x="172.662229" y="145.012054" style="fill: #9bd93c; stroke: #9bd93c; stroke-linejoin: miter"/>
     <use xlink:href="#mba4c749c88" x="184.511343" y="115.662414" style="fill: #9bd93c; stroke: #9bd93c; stroke-linejoin: miter"/>
     <use xlink:href="#mba4c749c88" x="194.529626" y="113.259556" style="fill: #9bd93c; stroke: #9bd93c; stroke-linejoin: miter"/>
     <use xlink:href="#mba4c749c88" x="203.207857" y="99.958449" style="fill: #9bd93c; stroke: #9bd93c; stroke-linejoin: miter"/>
     <use xlink:href="#mba4c749c88" x="210.8626" y="95.0137" style="fill: #9bd93c; stroke: #9bd93c; stroke-linejoin: miter"/>
     <use xlink:href="#mba4c749c88" x="262.757771" y="185.969945" style="fill: #9bd93c; stroke: #9bd93c; stroke-linejoin: miter"/>
     <use xlink:href="#mba4c749c88" x="289.109027" y="167.13088" style="fill: #9bd93c; stroke: #9bd93c; stroke-linejoin: miter"/>
     <use xlink:href="#mba4c749c88" x="307.805541" y="172.791359" style="fill: #9bd93c; stroke: #9bd93c; stroke-linejoin: miter"/>
     <use xlink:href="#mba4c749c88" x="322.307684" y="153.218163" style="fill: #9bd93c; stroke: #9bd93c; stroke-linejoin: miter"/>
     <use xlink:href="#mba4c749c88" x="334.156798" y="150.187768" style="fill: #9bd93c; stroke: #9bd93c; stroke-linejoin: miter"/>
     <use xlink:href="#mba4c749c88" x="344.17508" y="152.570273" style="fill: #9bd93c; stroke: #9bd93c; stroke-linejoin: miter"/>
     <use xlink:href="#mba4c749c88" x="352.853312" y="194.880643" style="fill: #9bd93c; stroke: #9bd93c; stroke-linejoin: miter"/>
     <use xlink:href="#mba4c749c88" x="360.508054" y="165.432213" style="fill: #9bd93c; stroke: #9bd93c; stroke-linejoin: miter"/>
     <use xlink:href="#mba4c749c88" x="367.355455" y="155.801342" style="fill: #9bd93c; stroke: #9bd93c; stroke-linejoin: miter"/>
    </g>
   </g>
   <g id="line2d_10">
    <path d="M 68.064545 87.040866 
L 113.112316 76.467861 
L 139.463572 77.038558 
L 158.160087 87.514344 
L 172.662229 101.668931 
L 184.511343 90.209633 
L 194.529626 87.993228 
L 203.207857 94.212001 
L 210.8626 96.164662 
L 262.757771 125.62252 
L 289.109027 123.795798 
L 307.805541 120.215683 
L 322.307684 120.859203 
L 334.156798 117.219574 
L 344.17508 116.209804 
L 352.853312 123.084564 
L 360.508054 116.070677 
L 367.355455 121.874454 
" clip-path="url(#pcf7db93592)" style="fill: none; stroke-dasharray: 6.4,1.6,1,1.6; stroke-dashoffset: 0; stroke: #375a8c"/>
    <defs>
     <path id="m0576672a6a" d="M -2.5 2.5 
L 2.5 -2.5 
M -2.5 -2.5 
L 2.5 2.5 
" style="stroke: #375a8c"/>
    </defs>
    <g clip-path="url(#pcf7db93592)">
     <use xlink:href="#m0576672a6a" x="68.064545" y="87.040866" style="fill: #375a8c; stroke: #375a8c"/>
     <use xlink:href="#m0576672a6a" x="113.112316" y="76.467861" style="fill: #375a8c; stroke: #375a8c"/>
     <use xlink:href="#m0576672a6a" x="139.463572" y="77.038558" style="fill: #375a8c; stroke: #375a8c"/>
     <use xlink:href="#m0576672a6a" x="158.160087" y="87.514344" style="fill: #375a8c; stroke: #375a8c"/>
     <use xlink:href="#m0576672a6a" x="172.662229" y="101.668931" style="fill: #375a8c; stroke: #375a8c"/>
     <use xlink:href="#m0576672a6a" x="184.511343" y="90.209633" style="fill: #375a8c; stroke: #375a8c"/>
     <use xlink:href="#m0576672a6a" x="194.529626" y="87.993228" style="fill: #375a8c; stroke: #375a8c"/>
     <use xlink:href="#m0576672a6a" x="203.207857" y="94.212001" style="fill: #375a8c; stroke: #375a8c"/>
     <use xlink:href="#m0576672a6a" x="210.8626" y="96.164662" style="fill: #375a8c; stroke: #375a8c"/>
     <use xlink:href="#m0576672a6a" x="262.757771" y="125.62252" style="fill: #375a8c; stroke: #375a8c"/>
     <use xlink:href="#m0576672a6a" x="289.109027" y="123.795798" style="fill: #375a8c; stroke: #375a8c"/>
     <use xlink:href="#m0576672a6a" x="307.805541" y="120.215683" style="fill: #375a8c; stroke: #375a8c"/>
     <use xlink:href="#m0576672a6a" x="322.307684" y="120.859203" style="fill: #375a8c; stroke: #375a8c"/>
     <use xlink:href="#m0576672a6a" x="334.156798" y="117.219574" style="fill: #375a8c; stroke: #375a8c"/>
     <use xlink:href="#m0576672a6a" x="344.17508" y="116.209804" style="fill: #375a8c; stroke: #375a8c"/>
     <use xlink:href="#m0576672a6a" x="352.853312" y="123.084564" style="fill: #375a8c; stroke: #375a8c"/>
     <use xlink:href="#m0576672a6a" x="360.508054" y="116.070677" style="fill: #375a8c; stroke: #375a8c"/>
     <use xlink:href="#m0576672a6a" x="367.355455" y="121.874454" style="fill: #375a8c; stroke: #375a8c"/>
    </g>
   </g>
   <g id="line2d_11">
    <path d="M 68.064545 91.664333 
L 113.112316 75.537236 
L 139.463572 72.504798 
L 158.160087 82.432127 
L 172.662229 98.242642 
L 184.511343 94.406367 
L 194.529626 96.112378 
L 203.207857 103.477225 
L 210.8626 103.845299 
L 262.757771 108.848701 
L 289.109027 136.159515 
L 307.805541 120.591691 
L 322.307684 122.26388 
L 334.156798 128.466149 
L 344.17508 143.786647 
L 352.853312 140.195483 
L 360.508054 127.762357 
L 367.355455 123.240477 
" clip-path="url(#pcf7db93592)" style="fill: none; stroke: #375a8c; stroke-linecap: round"/>
    <defs>
     <path id="mc5cf0f27c2" d="M 0 2.5 
C 0.663008 2.5 1.29895 2.236584 1.767767 1.767767 
C 2.236584 1.29895 2.5 0.663008 2.5 0 
C 2.5 -0.663008 2.236584 -1.29895 1.767767 -1.767767 
C 1.29895 -2.236584 0.663008 -2.5 0 -2.5 
C -0.663008 -2.5 -1.29895 -2.236584 -1.767767 -1.767767 
C -2.236584 -1.29895 -2.5 -0.663008 -2.5 0 
C -2.5 0.663008 -2.236584 1.29895 -1.767767 1.767767 
C -1.29895 2.236584 -0.663008 2.5 0 2.5 
z
" style="stroke: #375a8c"/>
    </defs>
    <g clip-path="url(#pcf7db93592)">
     <use xlink:href="#mc5cf0f27c2" x="68.064545" y="91.664333" style="fill: #375a8c; stroke: #375a8c"/>
     <use xlink:href="#mc5cf0f27c2" x="113.112316" y="75.537236" style="fill: #375a8c; stroke: #375a8c"/>
     <use xlink:href="#mc5cf0f27c2" x="139.463572" y="72.504798" style="fill: #375a8c; stroke: #375a8c"/>
     <use xlink:href="#mc5cf0f27c2" x="158.160087" y="82.432127" style="fill: #375a8c; stroke: #375a8c"/>
     <use xlink:href="#mc5cf0f27c2" x="172.662229" y="98.242642" style="fill: #375a8c; stroke: #375a8c"/>
     <use xlink:href="#mc5cf0f27c2" x="184.511343" y="94.406367" style="fill: #375a8c; stroke: #375a8c"/>
     <use xlink:href="#mc5cf0f27c2" x="194.529626" y="96.112378" style="fill: #375a8c; stroke: #375a8c"/>
     <use xlink:href="#mc5cf0f27c2" x="203.207857" y="103.477225" style="fill: #375a8c; stroke: #375a8c"/>
     <use xlink:href="#mc5cf0f27c2" x="210.8626" y="103.845299" style="fill: #375a8c; stroke: #375a8c"/>
     <use xlink:href="#mc5cf0f27c2" x="262.757771" y="108.848701" style="fill: #375a8c; stroke: #375a8c"/>
     <use xlink:href="#mc5cf0f27c2" x="289.109027" y="136.159515" style="fill: #375a8c; stroke: #375a8c"/>
     <use xlink:href="#mc5cf0f27c2" x="307.805541" y="120.591691" style="fill: #375a8c; stroke: #375a8c"/>
     <use xlink:href="#mc5cf0f27c2" x="322.307684" y="122.26388" style="fill: #375a8c; stroke: #375a8c"/>
     <use xlink:href="#mc5cf0f27c2" x="334.156798" y="128.466149" style="fill: #375a8c; stroke: #375a8c"/>
     <use xlink:href="#mc5cf0f27c2" x="344.17508" y="143.786647" style="fill: #375a8c; stroke: #375a8c"/>
     <use xlink:href="#mc5cf0f27c2" x="352.853312" y="140.195483" style="fill: #375a8c; stroke: #375a8c"/>
     <use xlink:href="#mc5cf0f27c2" x="360.508054" y="127.762357" style="fill: #375a8c; stroke: #375a8c"/>
     <use xlink:href="#mc5cf0f27c2" x="367.355455" y="123.240477" style="fill: #375a8c; stroke: #375a8c"/>
    </g>
   </g>
   <g id="line2d_12">
    <path d="M 68.064545 80.73613 
L 113.112316 94.731739 
L 139.463572 69.264873 
L 158.160087 87.343425 
L 172.662229 105.14361 
L 184.511343 96.940603 
L 194.529626 98.174833 
L 203.207857 90.750274 
L 210.8626 89.805741 
L 262.757771 136.998265 
L 289.109027 122.730609 
L 307.805541 123.477352 
L 322.307684 107.587055 
L 334.156798 103.387579 
L 344.17508 108.67742 
L 352.853312 152.401778 
L 360.508054 136.94283 
L 367.355455 116.369047 
" clip-path="url(#pcf7db93592)" style="fill: none; stroke-dasharray: 3.7,1.6; stroke-dashoffset: 0; stroke: #375a8c"/>
    <defs>
     <path id="mcc4205fb9f" d="M -2.5 2.5 
L 2.5 2.5 
L 2.5 -2.5 
L -2.5 -2.5 
z
" style="stroke: #375a8c; stroke-linejoin: miter"/>
    </defs>
    <g clip-path="url(#pcf7db93592)">
     <use xlink:href="#mcc4205fb9f" x="68.064545" y="80.73613" style="fill: #375a8c; stroke: #375a8c; stroke-linejoin: miter"/>
     <use xlink:href="#mcc4205fb9f" x="113.112316" y="94.731739" style="fill: #375a8c; stroke: #375a8c; stroke-linejoin: miter"/>
     <use xlink:href="#mcc4205fb9f" x="139.463572" y="69.264873" style="fill: #375a8c; stroke: #375a8c; stroke-linejoin: miter"/>
     <use xlink:href="#mcc4205fb9f" x="158.160087" y="87.343425" style="fill: #375a8c; stroke: #375a8c; stroke-linejoin: miter"/>
     <use xlink:href="#mcc4205fb9f" x="172.662229" y="105.14361" style="fill: #375a8c; stroke: #375a8c; stroke-linejoin: miter"/>
     <use xlink:href="#mcc4205fb9f" x="184.511343" y="96.940603" style="fill: #375a8c; stroke: #375a8c; stroke-linejoin: miter"/>
     <use xlink:href="#mcc4205fb9f" x="194.529626" y="98.174833" style="fill: #375a8c; stroke: #375a8c; stroke-linejoin: miter"/>
     <use xlink:href="#mcc4205fb9f" x="203.207857" y="90.750274" style="fill: #375a8c; stroke: #375a8c; stroke-linejoin: miter"/>
     <use xlink:href="#mcc4205fb9f" x="210.8626" y="89.805741" style="fill: #375a8c; stroke: #375a8c; stroke-linejoin: miter"/>
     <use xlink:href="#mcc4205fb9f" x="262.757771" y="136.998265" style="fill: #375a8c; stroke: #375a8c; stroke-linejoin: miter"/>
     <use xlink:href="#mcc4205fb9f" x="289.109027" y="122.730609" style="fill: #375a8c; stroke: #375a8c; stroke-linejoin: miter"/>
     <use xlink:href="#mcc4205fb9f" x="307.805541" y="123.477352" style="fill: #375a8c; stroke: #375a8c; stroke-linejoin: miter"/>
     <use xlink:href="#mcc4205fb9f" x="322.307684" y="107.587055" style="fill: #375a8c; stroke: #375a8c; stroke-linejoin: miter"/>
     <use xlink:href="#mcc4205fb9f" x="334.156798" y="103.387579" style="fill: #375a8c; stroke: #375a8c; stroke-linejoin: miter"/>
     <use xlink:href="#mcc4205fb9f" x="344.17508" y="108.67742" style="fill: #375a8c; stroke: #375a8c; stroke-linejoin: miter"/>
     <use xlink:href="#mcc4205fb9f" x="352.853312" y="152.401778" style="fill: #375a8c; stroke: #375a8c; stroke-linejoin: miter"/>
     <use xlink:href="#mcc4205fb9f" x="360.508054" y="136.94283" style="fill: #375a8c; stroke: #375a8c; stroke-linejoin: miter"/>
     <use xlink:href="#mcc4205fb9f" x="367.355455" y="116.369047" style="fill: #375a8c; stroke: #375a8c; stroke-linejoin: miter"/>
    </g>
   </g>
   <g id="legend_1">
    <g id="patch_3">
     <path d="M 115.208785 56.932349 
L 320.211215 56.932349 
Q 321.811215 56.932349 321.811215 55.332349 
L 321.811215 20.222013 
Q 321.811215 18.622013 320.211215 18.622013 
L 115.208785 18.622013 
Q 113.608785 18.622013 113.608785 20.222013 
L 113.608785 55.332349 
Q 113.608785 56.932349 115.208785 56.932349 
z
" style="fill: #eaeaf2; opacity: 0.8; stroke: #cccccc; stroke-linejoin: miter"/>
    </g>
    <g id="line2d_13">
     <path d="M 116.808785 24.999597 
L 124.808785 24.999597 
L 132.808785 24.999597 
" style="fill: none; stroke-dasharray: 6.4,1.6,1,1.6; stroke-dashoffset: 0; stroke: #9bd93c"/>
     <g>
      <use xlink:href="#m1122083f43" x="124.808785" y="24.999597" style="fill: #9bd93c; stroke: #9bd93c"/>
     </g>
    </g>
    <g id="text_9">
     <!-- Proposed ($\tau=0.005$) -->
     <g style="fill: #262626" transform="translate(139.208785 27.799597) scale(0.08 -0.08)">
      <defs>
       <path id="CMR17-50" d="M 1267 2042 
L 2291 2042 
C 3117 2042 3718 2578 3718 3184 
C 3718 3791 3130 4352 2291 4352 
L 333 4352 
L 333 4186 
C 774 4186 845 4186 845 3899 
L 845 446 
C 845 160 774 160 333 160 
L 333 0 
C 518 0 858 0 1056 0 
C 1254 0 1594 0 1779 0 
L 1779 160 
C 1338 160 1267 160 1267 446 
L 1267 2042 
z
M 1254 2176 
L 1254 3938 
C 1254 4155 1267 4186 1523 4186 
L 2170 4186 
C 2995 4186 3232 3714 3232 3184 
C 3232 2604 2950 2176 2170 2176 
L 1254 2176 
z
" transform="scale(0.015625)"/>
       <path id="CMR17-72" d="M 960 1497 
C 960 2112 1222 2688 1702 2688 
C 1747 2688 1792 2682 1837 2662 
C 1837 2662 1696 2617 1696 2452 
C 1696 2298 1818 2234 1914 2234 
C 1990 2234 2131 2279 2131 2458 
C 2131 2663 1926 2790 1709 2790 
C 1222 2790 1011 2317 947 2093 
L 941 2093 
L 941 2790 
L 198 2720 
L 198 2554 
C 576 2554 634 2515 634 2208 
L 634 428 
C 634 184 608 153 198 153 
L 198 -13 
C 352 0 646 0 813 0 
C 998 0 1325 0 1498 -13 
L 1498 153 
C 1037 153 960 153 960 440 
L 960 1497 
z
" transform="scale(0.015625)"/>
       <path id="CMR17-6f" d="M 2758 1356 
C 2758 2176 2163 2816 1466 2816 
C 768 2816 173 2176 173 1356 
C 173 551 768 -64 1466 -64 
C 2163 -64 2758 551 2758 1356 
z
M 1466 51 
C 1165 51 909 230 762 480 
C 602 767 582 1126 582 1408 
C 582 1677 595 2010 762 2298 
C 890 2509 1139 2714 1466 2714 
C 1754 2714 1997 2554 2150 2330 
C 2349 2029 2349 1607 2349 1408 
C 2349 1158 2336 775 2163 467 
C 1984 173 1709 51 1466 51 
z
" transform="scale(0.015625)"/>
       <path id="CMR17-70" d="M 1408 -1063 
C 998 -1063 973 -1037 973 -789 
L 973 402 
C 1158 134 1427 -38 1766 -38 
C 2406 -38 3053 523 3053 1388 
C 3053 2191 2496 2802 1837 2802 
C 1453 2802 1139 2592 960 2338 
L 960 2802 
L 198 2732 
L 198 2567 
C 576 2567 634 2528 634 2223 
L 634 -789 
C 634 -1031 608 -1063 198 -1063 
L 198 -1228 
C 352 -1216 634 -1216 800 -1216 
C 966 -1216 1254 -1216 1408 -1228 
L 1408 -1063 
z
M 973 2012 
C 973 2102 973 2235 1222 2471 
C 1254 2497 1472 2688 1792 2688 
C 2259 2688 2643 2108 2643 1382 
C 2643 656 2234 64 1728 64 
C 1498 64 1248 172 1056 472 
C 973 612 973 650 973 752 
L 973 2012 
z
" transform="scale(0.015625)"/>
       <path id="CMR17-64" d="M 1869 4326 
L 1869 4160 
C 2246 4160 2304 4122 2304 3820 
L 2304 2345 
C 2278 2377 2016 2790 1498 2790 
C 845 2790 211 2208 211 1364 
C 211 525 806 -64 1434 -64 
C 1978 -64 2259 337 2291 380 
L 2291 -63 
L 3066 -63 
L 3066 128 
C 2688 128 2630 166 2630 473 
L 2630 4396 
L 1869 4326 
z
M 2291 755 
C 2291 563 2176 390 2029 262 
C 1811 70 1594 38 1472 38 
C 1286 38 621 134 621 1356 
C 621 2612 1363 2688 1530 2688 
C 1824 2688 2061 2522 2208 2291 
C 2291 2157 2291 2138 2291 2023 
L 2291 755 
z
" transform="scale(0.015625)"/>
       <path id="CMR17-28" d="M 1958 -1561 
C 1958 -1555 1958 -1542 1939 -1523 
C 1645 -1224 858 -407 858 1581 
C 858 3569 1632 4379 1946 4697 
C 1946 4704 1958 4717 1958 4736 
C 1958 4755 1939 4768 1914 4768 
C 1843 4768 1299 4296 986 3594 
C 666 2887 576 2199 576 1588 
C 576 1128 621 351 1005 -471 
C 1312 -1135 1837 -1600 1914 -1600 
C 1946 -1600 1958 -1587 1958 -1561 
z
" transform="scale(0.015625)"/>
       <path id="CMMI12-1c" d="M 1837 2408 
L 2899 2408 
C 2982 2408 3194 2408 3194 2612 
C 3194 2752 3072 2752 2957 2752 
L 1197 2752 
C 1050 2752 832 2752 538 2440 
C 371 2255 166 1917 166 1879 
C 166 1841 198 1828 237 1828 
C 282 1828 288 1847 320 1885 
C 653 2408 986 2408 1146 2408 
L 1677 2408 
L 1011 223 
C 979 127 979 114 979 95 
C 979 25 1024 -64 1152 -64 
C 1350 -64 1382 108 1402 203 
L 1837 2408 
z
" transform="scale(0.015625)"/>
       <path id="CMR17-3d" d="M 4115 2017 
C 4211 2017 4307 2017 4307 2125 
C 4307 2240 4198 2240 4090 2240 
L 512 2240 
C 403 2240 294 2240 294 2125 
C 294 2017 390 2017 486 2017 
L 4115 2017 
z
M 4090 896 
C 4198 896 4307 896 4307 1011 
C 4307 1119 4211 1119 4115 1119 
L 486 1119 
C 390 1119 294 1119 294 1011 
C 294 896 403 896 512 896 
L 4090 896 
z
" transform="scale(0.015625)"/>
       <path id="CMMI12-3a" d="M 1178 307 
C 1178 492 1024 619 870 619 
C 685 619 557 466 557 313 
C 557 128 710 0 864 0 
C 1050 0 1178 153 1178 307 
z
" transform="scale(0.015625)"/>
       <path id="CMR17-29" d="M 1683 1581 
C 1683 2040 1638 2817 1254 3639 
C 947 4303 422 4768 346 4768 
C 326 4768 301 4761 301 4729 
C 301 4717 307 4710 314 4697 
C 621 4378 1402 3568 1402 1584 
C 1402 -407 627 -1217 314 -1537 
C 307 -1549 301 -1556 301 -1568 
C 301 -1600 326 -1600 346 -1600 
C 416 -1600 960 -1128 1274 -426 
C 1594 281 1683 969 1683 1581 
z
" transform="scale(0.015625)"/>
      </defs>
      <use xlink:href="#CMR17-50" transform="scale(0.996264)"/>
      <use xlink:href="#CMR17-72" transform="translate(62.586301 0) scale(0.996264)"/>
      <use xlink:href="#CMR17-6f" transform="translate(97.867068 0) scale(0.996264)"/>
      <use xlink:href="#CMR17-70" transform="translate(143.557545 0) scale(0.996264)"/>
      <use xlink:href="#CMR17-6f" transform="translate(197.055354 0) scale(0.996264)"/>
      <use xlink:href="#CMR17-73" transform="translate(242.745831 0) scale(0.996264)"/>
      <use xlink:href="#CMR17-65" transform="translate(278.547169 0) scale(0.996264)"/>
      <use xlink:href="#CMR17-64" transform="translate(319.032829 0) scale(0.996264)"/>
      <use xlink:href="#CMR17-28" transform="translate(400.004165 0) scale(0.996264)"/>
      <use xlink:href="#CMMI12-1c" transform="translate(435.284933 0) scale(0.996264)"/>
      <use xlink:href="#CMR17-3d" transform="translate(516.450107 0) scale(0.996264)"/>
      <use xlink:href="#CMR17-30" transform="translate(615.838904 0) scale(0.996264)"/>
      <use xlink:href="#CMMI12-3a" transform="translate(661.529381 0) scale(0.996264)"/>
      <use xlink:href="#CMR17-30" transform="translate(688.626558 0) scale(0.996264)"/>
      <use xlink:href="#CMR17-30" transform="translate(734.317036 0) scale(0.996264)"/>
      <use xlink:href="#CMR17-35" transform="translate(780.007513 0) scale(0.996264)"/>
      <use xlink:href="#CMR17-29" transform="translate(825.69799 0) scale(0.996264)"/>
     </g>
    </g>
    <g id="line2d_14">
     <path d="M 116.808785 36.969709 
L 124.808785 36.969709 
L 132.808785 36.969709 
" style="fill: none; stroke: #9bd93c; stroke-linecap: round"/>
     <g>
      <use xlink:href="#m215538fe75" x="124.808785" y="36.969709" style="fill: #9bd93c; stroke: #9bd93c"/>
     </g>
    </g>
    <g id="text_10">
     <!-- Proposed ($\tau=0.05$) -->
     <g style="fill: #262626" transform="translate(139.208785 39.769709) scale(0.08 -0.08)">
      <use xlink:href="#CMR17-50" transform="scale(0.996264)"/>
      <use xlink:href="#CMR17-72" transform="translate(62.586301 0) scale(0.996264)"/>
      <use xlink:href="#CMR17-6f" transform="translate(97.867068 0) scale(0.996264)"/>
      <use xlink:href="#CMR17-70" transform="translate(143.557545 0) scale(0.996264)"/>
      <use xlink:href="#CMR17-6f" transform="translate(197.055354 0) scale(0.996264)"/>
      <use xlink:href="#CMR17-73" transform="translate(242.745831 0) scale(0.996264)"/>
      <use xlink:href="#CMR17-65" transform="translate(278.547169 0) scale(0.996264)"/>
      <use xlink:href="#CMR17-64" transform="translate(319.032829 0) scale(0.996264)"/>
      <use xlink:href="#CMR17-28" transform="translate(400.004165 0) scale(0.996264)"/>
      <use xlink:href="#CMMI12-1c" transform="translate(435.284933 0) scale(0.996264)"/>
      <use xlink:href="#CMR17-3d" transform="translate(516.450107 0) scale(0.996264)"/>
      <use xlink:href="#CMR17-30" transform="translate(615.838904 0) scale(0.996264)"/>
      <use xlink:href="#CMMI12-3a" transform="translate(661.529381 0) scale(0.996264)"/>
      <use xlink:href="#CMR17-30" transform="translate(688.626558 0) scale(0.996264)"/>
      <use xlink:href="#CMR17-35" transform="translate(734.317036 0) scale(0.996264)"/>
      <use xlink:href="#CMR17-29" transform="translate(780.007513 0) scale(0.996264)"/>
     </g>
    </g>
    <g id="line2d_15">
     <path d="M 116.808785 48.939821 
L 124.808785 48.939821 
L 132.808785 48.939821 
" style="fill: none; stroke-dasharray: 3.7,1.6; stroke-dashoffset: 0; stroke: #9bd93c"/>
     <g>
      <use xlink:href="#mba4c749c88" x="124.808785" y="48.939821" style="fill: #9bd93c; stroke: #9bd93c; stroke-linejoin: miter"/>
     </g>
    </g>
    <g id="text_11">
     <!-- Proposed ($\tau=0.1$) -->
     <g style="fill: #262626" transform="translate(139.208785 51.739821) scale(0.08 -0.08)">
      <use xlink:href="#CMR17-50" transform="scale(0.996264)"/>
      <use xlink:href="#CMR17-72" transform="translate(62.586301 0) scale(0.996264)"/>
      <use xlink:href="#CMR17-6f" transform="translate(97.867068 0) scale(0.996264)"/>
      <use xlink:href="#CMR17-70" transform="translate(143.557545 0) scale(0.996264)"/>
      <use xlink:href="#CMR17-6f" transform="translate(197.055354 0) scale(0.996264)"/>
      <use xlink:href="#CMR17-73" transform="translate(242.745831 0) scale(0.996264)"/>
      <use xlink:href="#CMR17-65" transform="translate(278.547169 0) scale(0.996264)"/>
      <use xlink:href="#CMR17-64" transform="translate(319.032829 0) scale(0.996264)"/>
      <use xlink:href="#CMR17-28" transform="translate(400.004165 0) scale(0.996264)"/>
      <use xlink:href="#CMMI12-1c" transform="translate(435.284933 0) scale(0.996264)"/>
      <use xlink:href="#CMR17-3d" transform="translate(516.450107 0) scale(0.996264)"/>
      <use xlink:href="#CMR17-30" transform="translate(615.838904 0) scale(0.996264)"/>
      <use xlink:href="#CMMI12-3a" transform="translate(661.529381 0) scale(0.996264)"/>
      <use xlink:href="#CMR17-31" transform="translate(688.626558 0) scale(0.996264)"/>
      <use xlink:href="#CMR17-29" transform="translate(734.317036 0) scale(0.996264)"/>
     </g>
    </g>
    <g id="line2d_16">
     <path d="M 234.152766 24.999597 
L 242.152766 24.999597 
L 250.152766 24.999597 
" style="fill: none; stroke-dasharray: 6.4,1.6,1,1.6; stroke-dashoffset: 0; stroke: #375a8c"/>
     <g>
      <use xlink:href="#m0576672a6a" x="242.152766" y="24.999597" style="fill: #375a8c; stroke: #375a8c"/>
     </g>
    </g>
    <g id="text_12">
     <!-- SNN ($\tau=0.005$) -->
     <g style="fill: #262626" transform="translate(256.552766 27.799597) scale(0.08 -0.08)">
      <defs>
       <path id="CMR17-4e" d="M 1312 4250 
C 1267 4320 1261 4320 1139 4320 
L 326 4320 
L 326 4160 
L 448 4160 
C 704 4160 819 4129 838 4122 
L 838 610 
C 838 451 838 153 326 153 
L 326 -13 
C 474 0 742 0 902 0 
C 1062 0 1331 0 1478 -13 
L 1478 153 
C 966 153 966 451 966 610 
L 966 4033 
C 1011 3995 1011 3982 1056 3919 
L 3430 76 
C 3475 0 3494 0 3526 0 
C 3590 0 3590 19 3590 139 
L 3590 3705 
C 3590 3863 3590 4160 4102 4160 
L 4102 4326 
C 3955 4320 3686 4320 3526 4320 
C 3366 4320 3098 4320 2950 4326 
L 2950 4160 
C 3462 4160 3462 3862 3462 3703 
L 3462 763 
L 1312 4250 
z
" transform="scale(0.015625)"/>
      </defs>
      <use xlink:href="#CMR17-53" transform="scale(0.996264)"/>
      <use xlink:href="#CMR17-4e" transform="translate(50.89537 0) scale(0.996264)"/>
      <use xlink:href="#CMR17-4e" transform="translate(119.9678 0) scale(0.996264)"/>
      <use xlink:href="#CMR17-28" transform="translate(219.116196 0) scale(0.996264)"/>
      <use xlink:href="#CMMI12-1c" transform="translate(254.396964 0) scale(0.996264)"/>
      <use xlink:href="#CMR17-3d" transform="translate(335.562138 0) scale(0.996264)"/>
      <use xlink:href="#CMR17-30" transform="translate(434.950935 0) scale(0.996264)"/>
      <use xlink:href="#CMMI12-3a" transform="translate(480.641412 0) scale(0.996264)"/>
      <use xlink:href="#CMR17-30" transform="translate(507.738589 0) scale(0.996264)"/>
      <use xlink:href="#CMR17-30" transform="translate(553.429066 0) scale(0.996264)"/>
      <use xlink:href="#CMR17-35" transform="translate(599.119543 0) scale(0.996264)"/>
      <use xlink:href="#CMR17-29" transform="translate(644.81002 0) scale(0.996264)"/>
     </g>
    </g>
    <g id="line2d_17">
     <path d="M 234.152766 36.969709 
L 242.152766 36.969709 
L 250.152766 36.969709 
" style="fill: none; stroke: #375a8c; stroke-linecap: round"/>
     <g>
      <use xlink:href="#mc5cf0f27c2" x="242.152766" y="36.969709" style="fill: #375a8c; stroke: #375a8c"/>
     </g>
    </g>
    <g id="text_13">
     <!-- SNN ($\tau=0.05$) -->
     <g style="fill: #262626" transform="translate(256.552766 39.769709) scale(0.08 -0.08)">
      <use xlink:href="#CMR17-53" transform="scale(0.996264)"/>
      <use xlink:href="#CMR17-4e" transform="translate(50.89537 0) scale(0.996264)"/>
      <use xlink:href="#CMR17-4e" transform="translate(119.9678 0) scale(0.996264)"/>
      <use xlink:href="#CMR17-28" transform="translate(219.116196 0) scale(0.996264)"/>
      <use xlink:href="#CMMI12-1c" transform="translate(254.396964 0) scale(0.996264)"/>
      <use xlink:href="#CMR17-3d" transform="translate(335.562138 0) scale(0.996264)"/>
      <use xlink:href="#CMR17-30" transform="translate(434.950935 0) scale(0.996264)"/>
      <use xlink:href="#CMMI12-3a" transform="translate(480.641412 0) scale(0.996264)"/>
      <use xlink:href="#CMR17-30" transform="translate(507.738589 0) scale(0.996264)"/>
      <use xlink:href="#CMR17-35" transform="translate(553.429066 0) scale(0.996264)"/>
      <use xlink:href="#CMR17-29" transform="translate(599.119543 0) scale(0.996264)"/>
     </g>
    </g>
    <g id="line2d_18">
     <path d="M 234.152766 48.939821 
L 242.152766 48.939821 
L 250.152766 48.939821 
" style="fill: none; stroke-dasharray: 3.7,1.6; stroke-dashoffset: 0; stroke: #375a8c"/>
     <g>
      <use xlink:href="#mcc4205fb9f" x="242.152766" y="48.939821" style="fill: #375a8c; stroke: #375a8c; stroke-linejoin: miter"/>
     </g>
    </g>
    <g id="text_14">
     <!-- SNN ($\tau=0.1$) -->
     <g style="fill: #262626" transform="translate(256.552766 51.739821) scale(0.08 -0.08)">
      <use xlink:href="#CMR17-53" transform="scale(0.996264)"/>
      <use xlink:href="#CMR17-4e" transform="translate(50.89537 0) scale(0.996264)"/>
      <use xlink:href="#CMR17-4e" transform="translate(119.9678 0) scale(0.996264)"/>
      <use xlink:href="#CMR17-28" transform="translate(219.116196 0) scale(0.996264)"/>
      <use xlink:href="#CMMI12-1c" transform="translate(254.396964 0) scale(0.996264)"/>
      <use xlink:href="#CMR17-3d" transform="translate(335.562138 0) scale(0.996264)"/>
      <use xlink:href="#CMR17-30" transform="translate(434.950935 0) scale(0.996264)"/>
      <use xlink:href="#CMMI12-3a" transform="translate(480.641412 0) scale(0.996264)"/>
      <use xlink:href="#CMR17-31" transform="translate(507.738589 0) scale(0.996264)"/>
      <use xlink:href="#CMR17-29" transform="translate(553.429066 0) scale(0.996264)"/>
     </g>
    </g>
   </g>
  </g>
  <g id="text_15">
   <!-- CNN -->
   <g style="fill: #262626" transform="translate(197.230415 14.524276) scale(0.14 -0.14)">
    <defs>
     <path id="CMR17-43" d="M 3974 4289 
C 3974 4403 3968 4410 3930 4410 
C 3904 4410 3898 4403 3853 4327 
L 3571 3792 
C 3258 4187 2874 4416 2381 4416 
C 1286 4416 294 3456 294 2148 
C 294 826 1286 -128 2387 -128 
C 3366 -128 3974 730 3974 1461 
C 3974 1524 3974 1550 3917 1550 
C 3866 1550 3866 1531 3859 1474 
C 3808 585 3168 38 2477 38 
C 1824 38 781 495 781 2147 
C 781 3805 1843 4250 2464 4250 
C 3187 4250 3712 3628 3834 2745 
C 3846 2668 3846 2655 3904 2655 
C 3974 2655 3974 2668 3974 2783 
L 3974 4289 
z
" transform="scale(0.015625)"/>
    </defs>
    <use xlink:href="#CMR17-43" transform="scale(0.996264)"/>
    <use xlink:href="#CMR17-4e" transform="translate(66.509881 0) scale(0.996264)"/>
    <use xlink:href="#CMR17-4e" transform="translate(135.58231 0) scale(0.996264)"/>
   </g>
  </g>
 </g>
 <defs>
  <clipPath id="pcf7db93592">
   <rect x="53.1" y="62.984084" width="329.22" height="138.177347"/>
  </clipPath>
 </defs>
</svg>
