<?xml version="1.0" encoding="utf-8" standalone="no"?>
<!DOCTYPE svg PUBLIC "-//W3C//DTD SVG 1.1//EN"
  "http://www.w3.org/Graphics/SVG/1.1/DTD/svg11.dtd">
<svg xmlns:xlink="http://www.w3.org/1999/xlink" width="424.8pt" height="241.92pt" viewBox="0 0 424.8 241.92" xmlns="http://www.w3.org/2000/svg" version="1.1">
 <metadata>
  <rdf:RDF xmlns:dc="http://purl.org/dc/elements/1.1/" xmlns:cc="http://creativecommons.org/ns#" xmlns:rdf="http://www.w3.org/1999/02/22-rdf-syntax-ns#">
   <cc:Work>
    <dc:type rdf:resource="http://purl.org/dc/dcmitype/StillImage"/>
    <dc:date>2025-01-10T15:21:28.895192</dc:date>
    <dc:format>image/svg+xml</dc:format>
    <dc:creator>
     <cc:Agent>
      <dc:title>Matplotlib v3.9.0, https://matplotlib.org/</dc:title>
     </cc:Agent>
    </dc:creator>
   </cc:Work>
  </rdf:RDF>
 </metadata>
 <defs>
  <style type="text/css">*{stroke-linejoin: round; stroke-linecap: butt}</style>
 </defs>
 <g id="figure_1">
  <g id="patch_1">
   <path d="M 0 241.92 
L 424.8 241.92 
L 424.8 0 
L 0 0 
z
" style="fill: #ffffff"/>
  </g>
  <g id="axes_1">
   <g id="patch_2">
    <path d="M 53.1 201.161432 
L 382.32 201.161432 
L 382.32 51.666189 
L 53.1 51.666189 
z
" style="fill: #eaeaf2"/>
   </g>
   <g id="matplotlib.axis_1">
    <g id="xtick_1">
     <g id="line2d_1">
      <path d="M 68.064545 201.161432 
L 68.064545 51.666189 
" clip-path="url(#p98ad34a0ee)" style="fill: none; stroke: #ffffff; stroke-linecap: round"/>
     </g>
     <g id="text_1">
      <!-- $\mathdefault{0}$ -->
      <g style="fill: #262626" transform="translate(65.13805 218.963611) scale(0.12 -0.12)">
       <defs>
        <path id="CMR17-30" d="M 2688 2025 
C 2688 2416 2682 3080 2413 3591 
C 2176 4039 1798 4198 1466 4198 
C 1158 4198 768 4058 525 3597 
C 269 3118 243 2524 243 2025 
C 243 1661 250 1106 448 619 
C 723 -39 1216 -128 1466 -128 
C 1760 -128 2208 -7 2470 600 
C 2662 1042 2688 1559 2688 2025 
z
M 1466 -26 
C 1056 -26 813 325 723 812 
C 653 1188 653 1738 653 2096 
C 653 2588 653 2997 736 3387 
C 858 3929 1216 4096 1466 4096 
C 1728 4096 2067 3923 2189 3400 
C 2272 3036 2278 2607 2278 2096 
C 2278 1680 2278 1169 2202 792 
C 2067 95 1690 -26 1466 -26 
z
" transform="scale(0.015625)"/>
       </defs>
       <use xlink:href="#CMR17-30" transform="scale(0.996264)"/>
      </g>
     </g>
    </g>
    <g id="xtick_2">
     <g id="line2d_2">
      <path d="M 105.663906 201.161432 
L 105.663906 51.666189 
" clip-path="url(#p98ad34a0ee)" style="fill: none; stroke: #ffffff; stroke-linecap: round"/>
     </g>
     <g id="text_2">
      <!-- $\mathdefault{25}$ -->
      <g style="fill: #262626" transform="translate(99.810916 218.963611) scale(0.12 -0.12)">
       <defs>
        <path id="CMR17-32" d="M 2669 989 
L 2554 989 
C 2490 536 2438 459 2413 420 
C 2381 369 1920 369 1830 369 
L 602 369 
C 832 619 1280 1072 1824 1597 
C 2214 1967 2669 2402 2669 3035 
C 2669 3790 2067 4224 1395 4224 
C 691 4224 262 3604 262 3030 
C 262 2780 448 2748 525 2748 
C 589 2748 781 2787 781 3010 
C 781 3207 614 3264 525 3264 
C 486 3264 448 3258 422 3245 
C 544 3790 915 4058 1306 4058 
C 1862 4058 2227 3617 2227 3035 
C 2227 2479 1901 2000 1536 1584 
L 262 146 
L 262 0 
L 2515 0 
L 2669 989 
z
" transform="scale(0.015625)"/>
        <path id="CMR17-35" d="M 730 3692 
C 794 3666 1056 3584 1325 3584 
C 1920 3584 2246 3911 2432 4100 
C 2432 4157 2432 4192 2394 4192 
C 2387 4192 2374 4192 2323 4163 
C 2099 4058 1837 3973 1517 3973 
C 1325 3973 1037 3999 723 4139 
C 653 4171 640 4171 634 4171 
C 602 4171 595 4164 595 4037 
L 595 2203 
C 595 2089 595 2057 659 2057 
C 691 2057 704 2070 736 2114 
C 941 2401 1222 2522 1542 2522 
C 1766 2522 2246 2382 2246 1289 
C 2246 1085 2246 715 2054 421 
C 1894 159 1645 25 1370 25 
C 947 25 518 320 403 814 
C 429 807 480 795 506 795 
C 589 795 749 840 749 1038 
C 749 1210 627 1280 506 1280 
C 358 1280 262 1190 262 1011 
C 262 454 704 -128 1382 -128 
C 2042 -128 2669 440 2669 1264 
C 2669 2030 2170 2624 1549 2624 
C 1222 2624 947 2503 730 2274 
L 730 3692 
z
" transform="scale(0.015625)"/>
       </defs>
       <use xlink:href="#CMR17-32" transform="scale(0.996264)"/>
       <use xlink:href="#CMR17-35" transform="translate(45.690477 0) scale(0.996264)"/>
      </g>
     </g>
    </g>
    <g id="xtick_3">
     <g id="line2d_3">
      <path d="M 143.263266 201.161432 
L 143.263266 51.666189 
" clip-path="url(#p98ad34a0ee)" style="fill: none; stroke: #ffffff; stroke-linecap: round"/>
     </g>
     <g id="text_3">
      <!-- $\mathdefault{50}$ -->
      <g style="fill: #262626" transform="translate(137.410276 218.963611) scale(0.12 -0.12)">
       <use xlink:href="#CMR17-35" transform="scale(0.996264)"/>
       <use xlink:href="#CMR17-30" transform="translate(45.690477 0) scale(0.996264)"/>
      </g>
     </g>
    </g>
    <g id="xtick_4">
     <g id="line2d_4">
      <path d="M 180.862627 201.161432 
L 180.862627 51.666189 
" clip-path="url(#p98ad34a0ee)" style="fill: none; stroke: #ffffff; stroke-linecap: round"/>
     </g>
     <g id="text_4">
      <!-- $\mathdefault{75}$ -->
      <g style="fill: #262626" transform="translate(175.009637 218.963611) scale(0.12 -0.12)">
       <defs>
        <path id="CMR17-37" d="M 2886 3941 
L 2886 4081 
L 1382 4081 
C 634 4081 621 4165 595 4288 
L 480 4288 
L 294 3094 
L 410 3094 
C 429 3215 474 3540 550 3661 
C 589 3712 1062 3712 1171 3712 
L 2579 3712 
L 1869 2661 
C 1395 1954 1069 999 1069 165 
C 1069 89 1069 -128 1299 -128 
C 1530 -128 1530 89 1530 171 
L 1530 465 
C 1530 1508 1709 2196 2003 2636 
L 2886 3941 
z
" transform="scale(0.015625)"/>
       </defs>
       <use xlink:href="#CMR17-37" transform="scale(0.996264)"/>
       <use xlink:href="#CMR17-35" transform="translate(45.690477 0) scale(0.996264)"/>
      </g>
     </g>
    </g>
    <g id="xtick_5">
     <g id="line2d_5">
      <path d="M 218.461987 201.161432 
L 218.461987 51.666189 
" clip-path="url(#p98ad34a0ee)" style="fill: none; stroke: #ffffff; stroke-linecap: round"/>
     </g>
     <g id="text_5">
      <!-- $\mathdefault{100}$ -->
      <g style="fill: #262626" transform="translate(209.682502 218.963611) scale(0.12 -0.12)">
       <defs>
        <path id="CMR17-31" d="M 1702 4058 
C 1702 4192 1696 4192 1606 4192 
C 1357 3916 979 3827 621 3827 
C 602 3827 570 3827 563 3808 
C 557 3795 557 3782 557 3648 
C 755 3648 1088 3686 1344 3839 
L 1344 461 
C 1344 236 1331 160 781 160 
L 589 160 
L 589 0 
C 896 0 1216 0 1523 0 
C 1830 0 2150 0 2458 0 
L 2458 160 
L 2266 160 
C 1715 160 1702 230 1702 458 
L 1702 4058 
z
" transform="scale(0.015625)"/>
       </defs>
       <use xlink:href="#CMR17-31" transform="scale(0.996264)"/>
       <use xlink:href="#CMR17-30" transform="translate(45.690477 0) scale(0.996264)"/>
       <use xlink:href="#CMR17-30" transform="translate(91.380954 0) scale(0.996264)"/>
      </g>
     </g>
    </g>
    <g id="xtick_6">
     <g id="line2d_6">
      <path d="M 256.061348 201.161432 
L 256.061348 51.666189 
" clip-path="url(#p98ad34a0ee)" style="fill: none; stroke: #ffffff; stroke-linecap: round"/>
     </g>
     <g id="text_6">
      <!-- $\mathdefault{125}$ -->
      <g style="fill: #262626" transform="translate(247.281862 218.963611) scale(0.12 -0.12)">
       <use xlink:href="#CMR17-31" transform="scale(0.996264)"/>
       <use xlink:href="#CMR17-32" transform="translate(45.690477 0) scale(0.996264)"/>
       <use xlink:href="#CMR17-35" transform="translate(91.380954 0) scale(0.996264)"/>
      </g>
     </g>
    </g>
    <g id="xtick_7">
     <g id="line2d_7">
      <path d="M 293.660708 201.161432 
L 293.660708 51.666189 
" clip-path="url(#p98ad34a0ee)" style="fill: none; stroke: #ffffff; stroke-linecap: round"/>
     </g>
     <g id="text_7">
      <!-- $\mathdefault{150}$ -->
      <g style="fill: #262626" transform="translate(284.881223 218.963611) scale(0.12 -0.12)">
       <use xlink:href="#CMR17-31" transform="scale(0.996264)"/>
       <use xlink:href="#CMR17-35" transform="translate(45.690477 0) scale(0.996264)"/>
       <use xlink:href="#CMR17-30" transform="translate(91.380954 0) scale(0.996264)"/>
      </g>
     </g>
    </g>
    <g id="xtick_8">
     <g id="line2d_8">
      <path d="M 331.260069 201.161432 
L 331.260069 51.666189 
" clip-path="url(#p98ad34a0ee)" style="fill: none; stroke: #ffffff; stroke-linecap: round"/>
     </g>
     <g id="text_8">
      <!-- $\mathdefault{175}$ -->
      <g style="fill: #262626" transform="translate(322.480583 218.963611) scale(0.12 -0.12)">
       <use xlink:href="#CMR17-31" transform="scale(0.996264)"/>
       <use xlink:href="#CMR17-37" transform="translate(45.690477 0) scale(0.996264)"/>
       <use xlink:href="#CMR17-35" transform="translate(91.380954 0) scale(0.996264)"/>
      </g>
     </g>
    </g>
    <g id="xtick_9">
     <g id="line2d_9">
      <path d="M 368.859429 201.161432 
L 368.859429 51.666189 
" clip-path="url(#p98ad34a0ee)" style="fill: none; stroke: #ffffff; stroke-linecap: round"/>
     </g>
     <g id="text_9">
      <!-- $\mathdefault{200}$ -->
      <g style="fill: #262626" transform="translate(360.079944 218.963611) scale(0.12 -0.12)">
       <use xlink:href="#CMR17-32" transform="scale(0.996264)"/>
       <use xlink:href="#CMR17-30" transform="translate(45.690477 0) scale(0.996264)"/>
       <use xlink:href="#CMR17-30" transform="translate(91.380954 0) scale(0.996264)"/>
      </g>
     </g>
    </g>
    <g id="text_10">
     <!-- epoch -->
     <g style="fill: #262626" transform="translate(200.449098 234.974084) scale(0.14 -0.14)">
      <defs>
       <path id="CMR17-65" d="M 2438 1472 
C 2464 1498 2464 1511 2464 1576 
C 2464 2238 2118 2816 1389 2816 
C 710 2816 173 2169 173 1383 
C 173 551 781 -64 1459 -64 
C 2176 -64 2458 607 2458 740 
C 2458 784 2419 784 2406 784 
C 2362 784 2355 771 2330 696 
C 2189 265 1837 51 1504 51 
C 1229 51 954 203 781 480 
C 582 803 582 1176 582 1472 
L 2438 1472 
z
M 589 1568 
C 634 2505 1126 2714 1382 2714 
C 1818 2714 2112 2297 2118 1568 
L 589 1568 
z
" transform="scale(0.015625)"/>
       <path id="CMR17-70" d="M 1408 -1063 
C 998 -1063 973 -1037 973 -789 
L 973 402 
C 1158 134 1427 -38 1766 -38 
C 2406 -38 3053 523 3053 1388 
C 3053 2191 2496 2802 1837 2802 
C 1453 2802 1139 2592 960 2338 
L 960 2802 
L 198 2732 
L 198 2567 
C 576 2567 634 2528 634 2223 
L 634 -789 
C 634 -1031 608 -1063 198 -1063 
L 198 -1228 
C 352 -1216 634 -1216 800 -1216 
C 966 -1216 1254 -1216 1408 -1228 
L 1408 -1063 
z
M 973 2012 
C 973 2102 973 2235 1222 2471 
C 1254 2497 1472 2688 1792 2688 
C 2259 2688 2643 2108 2643 1382 
C 2643 656 2234 64 1728 64 
C 1498 64 1248 172 1056 472 
C 973 612 973 650 973 752 
L 973 2012 
z
" transform="scale(0.015625)"/>
       <path id="CMR17-6f" d="M 2758 1356 
C 2758 2176 2163 2816 1466 2816 
C 768 2816 173 2176 173 1356 
C 173 551 768 -64 1466 -64 
C 2163 -64 2758 551 2758 1356 
z
M 1466 51 
C 1165 51 909 230 762 480 
C 602 767 582 1126 582 1408 
C 582 1677 595 2010 762 2298 
C 890 2509 1139 2714 1466 2714 
C 1754 2714 1997 2554 2150 2330 
C 2349 2029 2349 1607 2349 1408 
C 2349 1158 2336 775 2163 467 
C 1984 173 1709 51 1466 51 
z
" transform="scale(0.015625)"/>
       <path id="CMR17-63" d="M 2234 2240 
C 2112 2240 1933 2240 1933 2017 
C 1933 1838 2080 1787 2163 1787 
C 2208 1787 2394 1807 2394 2024 
C 2394 2467 1958 2803 1466 2803 
C 787 2803 211 2178 211 1363 
C 211 516 813 -64 1466 -64 
C 2259 -64 2458 677 2458 748 
C 2458 774 2451 793 2406 793 
C 2362 793 2355 787 2330 703 
C 2163 180 1798 51 1523 51 
C 1114 51 621 427 621 1369 
C 621 2338 1094 2688 1472 2688 
C 1722 2688 2093 2573 2234 2240 
z
" transform="scale(0.015625)"/>
       <path id="CMR17-68" d="M 2656 1933 
C 2656 2259 2592 2790 1837 2790 
C 1312 2790 1056 2368 979 2157 
L 973 2157 
L 973 4396 
L 211 4326 
L 211 4160 
C 589 4160 646 4122 646 3817 
L 646 426 
C 646 184 621 153 211 153 
L 211 -13 
C 365 0 646 0 813 0 
C 979 0 1267 0 1421 -13 
L 1421 153 
C 1011 153 986 178 986 428 
L 986 1658 
C 986 2247 1344 2688 1792 2688 
C 2266 2688 2317 2266 2317 1958 
L 2317 428 
C 2317 184 2291 153 1882 153 
L 1882 -13 
C 2035 0 2317 0 2483 0 
C 2650 0 2938 0 3091 -13 
L 3091 153 
C 2682 153 2656 178 2656 428 
L 2656 1933 
z
" transform="scale(0.015625)"/>
      </defs>
      <use xlink:href="#CMR17-65" transform="scale(0.996264)"/>
      <use xlink:href="#CMR17-70" transform="translate(40.48566 0) scale(0.996264)"/>
      <use xlink:href="#CMR17-6f" transform="translate(93.983469 0) scale(0.996264)"/>
      <use xlink:href="#CMR17-63" transform="translate(142.276385 0) scale(0.996264)"/>
      <use xlink:href="#CMR17-68" transform="translate(180.159591 0) scale(0.996264)"/>
     </g>
    </g>
   </g>
   <g id="matplotlib.axis_2">
    <g id="ytick_1">
     <g id="line2d_10">
      <path d="M 53.1 125.295382 
L 382.32 125.295382 
" clip-path="url(#p98ad34a0ee)" style="fill: none; stroke: #ffffff; stroke-linecap: round"/>
     </g>
     <g id="text_11">
      <!-- $\mathdefault{10^{-1}}$ -->
      <g style="fill: #262626" transform="translate(21.07333 129.446472) scale(0.12 -0.12)">
       <defs>
        <path id="CMSY10-0" d="M 4218 1472 
C 4326 1472 4442 1472 4442 1600 
C 4442 1728 4326 1728 4218 1728 
L 755 1728 
C 646 1728 531 1728 531 1600 
C 531 1472 646 1472 755 1472 
L 4218 1472 
z
" transform="scale(0.015625)"/>
       </defs>
       <use xlink:href="#CMR17-31" transform="scale(0.996264)"/>
       <use xlink:href="#CMR17-30" transform="translate(45.690477 0) scale(0.996264)"/>
       <use xlink:href="#CMSY10-0" transform="translate(91.380954 36.153639) scale(0.697382)"/>
       <use xlink:href="#CMR17-31" transform="translate(145.621947 36.153639) scale(0.697382)"/>
      </g>
     </g>
    </g>
    <g id="ytick_2"/>
    <g id="ytick_3"/>
    <g id="ytick_4"/>
    <g id="ytick_5"/>
    <g id="ytick_6"/>
    <g id="ytick_7"/>
    <g id="ytick_8"/>
    <g id="ytick_9"/>
    <g id="ytick_10"/>
    <g id="ytick_11"/>
    <g id="ytick_12"/>
    <g id="ytick_13"/>
    <g id="ytick_14"/>
    <g id="text_12">
     <!-- Loss -->
     <g style="fill: #262626" transform="translate(14.361302 139.481574) rotate(-90) scale(0.14 -0.14)">
      <defs>
       <path id="CMR17-4c" d="M 3469 1615 
L 3354 1615 
C 3302 983 3219 166 2125 166 
L 1530 166 
C 1274 166 1261 197 1261 414 
L 1261 3898 
C 1261 4129 1274 4192 1760 4192 
L 1901 4192 
L 1901 4352 
C 1638 4352 1331 4352 1069 4352 
C 870 4352 512 4352 326 4352 
L 326 4192 
C 768 4192 838 4192 838 3905 
L 838 452 
C 838 166 768 166 326 166 
L 326 0 
L 3315 0 
L 3469 1615 
z
" transform="scale(0.015625)"/>
       <path id="CMR17-73" d="M 1978 2697 
C 1978 2813 1971 2819 1933 2819 
C 1907 2819 1901 2813 1824 2717 
C 1805 2691 1747 2626 1728 2601 
C 1523 2819 1235 2819 1126 2819 
C 416 2819 160 2447 160 2076 
C 160 1498 813 1365 998 1325 
C 1402 1243 1542 1217 1677 1101 
C 1760 1025 1901 884 1901 654 
C 1901 384 1747 38 1158 38 
C 602 38 403 460 288 1021 
C 269 1110 269 1117 218 1117 
C 166 1117 160 1110 160 983 
L 160 63 
C 160 -51 166 -58 205 -58 
C 237 -58 243 -51 275 0 
C 314 57 410 211 448 276 
C 576 103 800 -64 1158 -64 
C 1792 -64 2131 283 2131 784 
C 2131 1112 1958 1285 1875 1362 
C 1683 1561 1459 1606 1190 1657 
C 838 1735 390 1825 390 2217 
C 390 2383 480 2737 1126 2737 
C 1811 2737 1850 2094 1862 1888 
C 1869 1856 1901 1849 1920 1849 
C 1978 1849 1978 1869 1978 1978 
L 1978 2697 
z
" transform="scale(0.015625)"/>
      </defs>
      <use xlink:href="#CMR17-4c" transform="scale(0.996264)"/>
      <use xlink:href="#CMR17-6f" transform="translate(57.381408 0) scale(0.996264)"/>
      <use xlink:href="#CMR17-73" transform="translate(103.071885 0) scale(0.996264)"/>
      <use xlink:href="#CMR17-73" transform="translate(138.873223 0) scale(0.996264)"/>
     </g>
    </g>
   </g>
   <g id="PolyCollection_1">
    <defs>
     <path id="m9815fa79ef" d="M 68.064545 -182.788967 
L 68.064545 -181.669308 
L 69.56852 -181.605753 
L 71.072494 -181.607214 
L 72.576469 -181.605503 
L 74.080443 -181.588454 
L 75.584418 -181.597216 
L 77.088392 -179.494219 
L 78.592366 -164.854042 
L 80.096341 -156.574551 
L 81.600315 -150.029895 
L 83.10429 -141.838427 
L 84.608264 -134.358925 
L 86.112238 -127.302836 
L 87.616213 -122.350412 
L 89.120187 -117.270984 
L 90.624162 -112.380398 
L 92.128136 -105.679904 
L 93.632111 -100.715516 
L 95.136085 -96.197961 
L 96.640059 -93.918378 
L 98.144034 -92.376527 
L 99.648008 -88.635702 
L 101.151983 -87.834508 
L 102.655957 -84.018947 
L 104.159931 -84.61468 
L 105.663906 -82.986237 
L 107.16788 -82.183992 
L 108.671855 -79.82709 
L 110.175829 -80.337565 
L 111.679804 -77.584127 
L 113.183778 -77.189597 
L 114.687752 -75.932636 
L 116.191727 -76.172757 
L 117.695701 -74.069756 
L 119.199676 -74.242772 
L 120.70365 -72.995173 
L 122.207624 -74.470682 
L 123.711599 -72.011025 
L 125.215573 -73.180682 
L 126.719548 -71.277162 
L 128.223522 -70.631682 
L 129.727497 -70.444684 
L 131.231471 -73.140943 
L 132.735445 -69.377971 
L 134.23942 -69.555866 
L 135.743394 -69.062734 
L 137.247369 -68.555272 
L 138.751343 -68.386373 
L 140.255317 -68.402851 
L 141.759292 -68.826733 
L 143.263266 -68.15555 
L 144.767241 -66.768536 
L 146.271215 -68.016604 
L 147.77519 -65.465967 
L 149.279164 -64.406592 
L 150.783138 -64.824478 
L 152.287113 -64.856636 
L 153.791087 -65.560711 
L 155.295062 -63.404636 
L 156.799036 -64.311157 
L 158.303011 -66.920684 
L 159.806985 -64.421351 
L 161.310959 -64.494444 
L 162.814934 -63.832527 
L 164.318908 -63.070133 
L 165.822883 -63.332168 
L 167.326857 -64.829286 
L 168.830831 -64.676539 
L 170.334806 -62.406375 
L 171.83878 -62.769155 
L 173.342755 -62.54042 
L 174.846729 -61.539751 
L 176.350704 -62.300877 
L 177.854678 -61.325049 
L 179.358652 -60.915165 
L 180.862627 -61.798155 
L 182.366601 -60.414968 
L 183.870576 -60.629586 
L 185.37455 -59.651837 
L 186.878524 -59.773155 
L 188.382499 -60.529294 
L 189.886473 -59.43071 
L 191.390448 -58.719329 
L 192.894422 -59.174354 
L 194.398397 -58.95026 
L 195.902371 -58.639046 
L 197.406345 -57.622768 
L 198.91032 -61.584952 
L 200.414294 -58.241573 
L 201.918269 -57.930736 
L 203.422243 -56.707723 
L 204.926217 -58.157772 
L 206.430192 -59.038908 
L 207.934166 -55.725958 
L 209.438141 -56.231634 
L 210.942115 -56.707805 
L 212.44609 -56.210927 
L 213.950064 -58.417895 
L 215.454038 -57.836372 
L 216.958013 -58.394024 
L 218.461987 -55.018067 
L 219.965962 -55.042528 
L 221.469936 -55.800075 
L 222.97391 -53.371448 
L 224.477885 -55.635851 
L 225.981859 -55.709753 
L 227.485834 -56.689058 
L 228.989808 -55.124787 
L 230.493783 -56.063147 
L 231.997757 -57.187132 
L 233.501731 -54.271796 
L 235.005706 -55.082877 
L 236.50968 -53.039828 
L 238.013655 -53.959239 
L 239.517629 -54.381913 
L 241.021603 -52.941905 
L 242.525578 -54.540608 
L 244.029552 -53.141587 
L 245.533527 -54.032668 
L 247.037501 -51.89036 
L 248.541476 -53.845175 
L 250.04545 -54.647815 
L 251.549424 -52.551361 
L 253.053399 -52.505445 
L 254.557373 -54.266884 
L 256.061348 -51.931791 
L 257.565322 -53.13142 
L 259.069296 -54.781238 
L 260.573271 -54.10694 
L 262.077245 -54.684015 
L 263.58122 -55.09719 
L 265.085194 -52.660184 
L 266.589169 -53.179255 
L 268.093143 -52.395033 
L 269.597117 -49.283926 
L 271.101092 -52.578549 
L 272.605066 -51.415511 
L 274.109041 -51.936759 
L 275.613015 -53.946021 
L 277.116989 -51.81008 
L 278.620964 -53.548403 
L 280.124938 -53.65246 
L 281.628913 -53.155588 
L 283.132887 -50.721014 
L 284.636862 -50.626828 
L 286.140836 -51.694047 
L 287.64481 -49.391234 
L 289.148785 -48.332664 
L 290.652759 -51.032656 
L 292.156734 -54.395529 
L 293.660708 -51.131466 
L 295.164683 -52.973063 
L 296.668657 -51.6935 
L 298.172631 -52.26043 
L 299.676606 -53.339831 
L 301.18058 -50.814668 
L 302.684555 -52.638048 
L 304.188529 -53.234389 
L 305.692503 -50.423071 
L 307.196478 -51.865213 
L 308.700452 -52.278368 
L 310.204427 -49.659496 
L 311.708401 -49.52165 
L 313.212376 -51.008719 
L 314.71635 -50.880074 
L 316.220324 -52.862619 
L 317.724299 -54.07315 
L 319.228273 -53.053521 
L 320.732248 -53.313119 
L 322.236222 -50.421469 
L 323.740196 -49.913318 
L 325.244171 -53.704577 
L 326.748145 -54.909325 
L 328.25212 -50.653461 
L 329.756094 -52.305981 
L 331.260069 -53.744063 
L 332.764043 -51.747339 
L 334.268017 -53.573539 
L 335.771992 -53.308391 
L 337.275966 -54.819515 
L 338.779941 -52.434983 
L 340.283915 -52.080308 
L 341.787889 -52.895522 
L 343.291864 -51.919469 
L 344.795838 -51.142597 
L 346.299813 -47.553807 
L 347.803787 -51.603312 
L 349.307762 -51.200792 
L 350.811736 -50.759851 
L 352.31571 -50.874252 
L 353.819685 -53.302421 
L 355.323659 -50.57252 
L 356.827634 -53.62709 
L 358.331608 -52.715504 
L 359.835582 -53.112887 
L 361.339557 -50.927081 
L 362.843531 -52.250661 
L 364.347506 -51.766807 
L 365.85148 -52.386965 
L 367.355455 -51.183464 
L 367.355455 -57.393996 
L 367.355455 -57.393996 
L 365.85148 -58.324367 
L 364.347506 -57.50553 
L 362.843531 -57.814399 
L 361.339557 -56.639196 
L 359.835582 -58.428891 
L 358.331608 -58.894479 
L 356.827634 -58.552459 
L 355.323659 -55.576763 
L 353.819685 -58.216346 
L 352.31571 -56.949266 
L 350.811736 -55.431029 
L 349.307762 -55.562594 
L 347.803787 -56.042081 
L 346.299813 -52.168489 
L 344.795838 -55.665217 
L 343.291864 -55.838473 
L 341.787889 -56.780934 
L 340.283915 -56.914819 
L 338.779941 -57.051647 
L 337.275966 -61.271815 
L 335.771992 -58.727162 
L 334.268017 -57.754339 
L 332.764043 -55.692199 
L 331.260069 -57.359132 
L 329.756094 -56.475851 
L 328.25212 -55.074944 
L 326.748145 -58.618695 
L 325.244171 -57.9349 
L 323.740196 -54.815147 
L 322.236222 -55.190472 
L 320.732248 -57.163786 
L 319.228273 -57.871165 
L 317.724299 -59.192168 
L 316.220324 -57.488979 
L 314.71635 -55.842661 
L 313.212376 -56.618567 
L 311.708401 -54.949168 
L 310.204427 -55.662195 
L 308.700452 -57.050116 
L 307.196478 -56.733537 
L 305.692503 -54.981208 
L 304.188529 -57.839211 
L 302.684555 -57.517756 
L 301.18058 -55.89804 
L 299.676606 -58.187105 
L 298.172631 -56.909735 
L 296.668657 -57.089773 
L 295.164683 -58.23662 
L 293.660708 -55.98829 
L 292.156734 -59.606397 
L 290.652759 -56.964772 
L 289.148785 -55.331305 
L 287.64481 -56.20943 
L 286.140836 -57.865214 
L 284.636862 -57.390268 
L 283.132887 -57.470618 
L 281.628913 -59.404912 
L 280.124938 -59.510155 
L 278.620964 -58.779479 
L 277.116989 -57.610687 
L 275.613015 -59.880055 
L 274.109041 -58.475452 
L 272.605066 -61.351809 
L 271.101092 -58.229717 
L 269.597117 -55.562122 
L 268.093143 -58.178677 
L 266.589169 -58.935569 
L 265.085194 -59.145718 
L 263.58122 -60.997504 
L 262.077245 -61.117724 
L 260.573271 -60.560703 
L 259.069296 -61.07353 
L 257.565322 -59.720808 
L 256.061348 -59.201861 
L 254.557373 -62.585309 
L 253.053399 -58.085657 
L 251.549424 -59.339024 
L 250.04545 -60.317312 
L 248.541476 -60.263575 
L 247.037501 -57.988104 
L 245.533527 -59.516016 
L 244.029552 -59.104866 
L 242.525578 -59.3747 
L 241.021603 -59.341581 
L 239.517629 -60.567241 
L 238.013655 -59.94041 
L 236.50968 -58.830722 
L 235.005706 -60.895832 
L 233.501731 -60.31928 
L 231.997757 -62.036898 
L 230.493783 -60.401235 
L 228.989808 -60.216744 
L 227.485834 -61.903478 
L 225.981859 -61.015983 
L 224.477885 -60.912006 
L 222.97391 -59.778853 
L 221.469936 -61.583256 
L 219.965962 -61.348904 
L 218.461987 -60.459742 
L 216.958013 -62.895769 
L 215.454038 -62.603875 
L 213.950064 -62.61097 
L 212.44609 -59.892072 
L 210.942115 -61.860032 
L 209.438141 -60.685448 
L 207.934166 -60.707973 
L 206.430192 -64.714622 
L 204.926217 -63.080153 
L 203.422243 -60.913999 
L 201.918269 -62.658521 
L 200.414294 -62.467671 
L 198.91032 -65.937987 
L 197.406345 -62.234982 
L 195.902371 -63.61009 
L 194.398397 -63.076729 
L 192.894422 -63.994404 
L 191.390448 -63.650771 
L 189.886473 -65.177614 
L 188.382499 -66.353989 
L 186.878524 -65.55646 
L 185.37455 -65.583788 
L 183.870576 -66.167836 
L 182.366601 -66.070218 
L 180.862627 -68.230233 
L 179.358652 -67.254971 
L 177.854678 -67.081332 
L 176.350704 -68.661293 
L 174.846729 -68.320608 
L 173.342755 -68.930345 
L 171.83878 -68.998327 
L 170.334806 -69.410573 
L 168.830831 -70.505169 
L 167.326857 -71.163808 
L 165.822883 -68.548636 
L 164.318908 -69.273284 
L 162.814934 -70.016571 
L 161.310959 -69.721562 
L 159.806985 -70.772028 
L 158.303011 -72.550873 
L 156.799036 -70.572056 
L 155.295062 -69.960527 
L 153.791087 -71.088017 
L 152.287113 -71.253417 
L 150.783138 -71.653875 
L 149.279164 -71.8201 
L 147.77519 -72.490778 
L 146.271215 -74.451771 
L 144.767241 -73.181879 
L 143.263266 -74.020868 
L 141.759292 -74.987225 
L 140.255317 -74.254331 
L 138.751343 -73.965167 
L 137.247369 -73.884218 
L 135.743394 -74.248646 
L 134.23942 -75.32248 
L 132.735445 -74.657108 
L 131.231471 -78.513578 
L 129.727497 -75.64376 
L 128.223522 -76.162369 
L 126.719548 -76.200434 
L 125.215573 -78.160618 
L 123.711599 -76.838178 
L 122.207624 -79.573707 
L 120.70365 -77.820316 
L 119.199676 -78.748133 
L 117.695701 -79.45006 
L 116.191727 -81.505621 
L 114.687752 -80.8865 
L 113.183778 -81.889493 
L 111.679804 -81.863794 
L 110.175829 -84.398598 
L 108.671855 -83.672672 
L 107.16788 -86.529893 
L 105.663906 -86.314582 
L 104.159931 -88.902542 
L 102.655957 -89.213181 
L 101.151983 -90.68959 
L 99.648008 -92.517392 
L 98.144034 -96.536524 
L 96.640059 -98.076471 
L 95.136085 -100.758375 
L 93.632111 -104.575526 
L 92.128136 -108.81313 
L 90.624162 -115.586304 
L 89.120187 -121.26333 
L 87.616213 -126.883756 
L 86.112238 -132.452759 
L 84.608264 -139.230397 
L 83.10429 -146.667259 
L 81.600315 -153.879354 
L 80.096341 -160.239087 
L 78.592366 -167.025524 
L 77.088392 -180.656911 
L 75.584418 -182.791446 
L 74.080443 -182.794447 
L 72.576469 -182.790209 
L 71.072494 -182.790566 
L 69.56852 -182.784112 
L 68.064545 -182.788967 
z
" style="stroke: #9bd93c; stroke-opacity: 0.2"/>
    </defs>
    <g clip-path="url(#p98ad34a0ee)">
     <use xlink:href="#m9815fa79ef" x="0" y="241.92" style="fill: #9bd93c; fill-opacity: 0.2; stroke: #9bd93c; stroke-opacity: 0.2"/>
    </g>
   </g>
   <g id="PolyCollection_2">
    <defs>
     <path id="mc00ca63c67" d="M 68.064545 -183.057595 
L 68.064545 -181.677564 
L 69.56852 -181.674025 
L 71.072494 -179.393278 
L 72.576469 -170.491965 
L 74.080443 -162.430259 
L 75.584418 -153.698379 
L 77.088392 -139.467945 
L 78.592366 -129.420156 
L 80.096341 -124.304786 
L 81.600315 -113.309058 
L 83.10429 -109.051287 
L 84.608264 -103.208252 
L 86.112238 -93.844048 
L 87.616213 -91.878814 
L 89.120187 -91.382487 
L 90.624162 -87.575381 
L 92.128136 -87.095834 
L 93.632111 -88.593207 
L 95.136085 -84.66574 
L 96.640059 -84.6181 
L 98.144034 -86.212953 
L 99.648008 -83.536053 
L 101.151983 -81.779625 
L 102.655957 -83.166883 
L 104.159931 -82.653403 
L 105.663906 -82.616606 
L 107.16788 -82.306559 
L 108.671855 -84.126943 
L 110.175829 -81.889418 
L 111.679804 -79.525027 
L 113.183778 -81.109658 
L 114.687752 -80.468125 
L 116.191727 -80.134501 
L 117.695701 -79.241668 
L 119.199676 -80.826423 
L 120.70365 -81.237253 
L 122.207624 -81.604059 
L 123.711599 -79.029591 
L 125.215573 -79.894909 
L 126.719548 -81.308632 
L 128.223522 -81.206288 
L 129.727497 -82.2399 
L 131.231471 -78.918603 
L 132.735445 -82.055126 
L 134.23942 -79.154639 
L 135.743394 -78.937241 
L 137.247369 -79.972179 
L 138.751343 -79.927883 
L 140.255317 -80.43281 
L 141.759292 -80.388997 
L 143.263266 -79.103621 
L 144.767241 -81.800337 
L 146.271215 -78.864249 
L 147.77519 -78.333122 
L 149.279164 -79.867896 
L 150.783138 -77.978059 
L 152.287113 -76.681289 
L 153.791087 -75.480277 
L 155.295062 -82.908148 
L 156.799036 -76.62758 
L 158.303011 -73.159144 
L 159.806985 -77.014391 
L 161.310959 -79.291503 
L 162.814934 -76.638266 
L 164.318908 -77.24295 
L 165.822883 -75.493713 
L 167.326857 -74.321585 
L 168.830831 -74.717146 
L 170.334806 -73.383861 
L 171.83878 -72.947609 
L 173.342755 -75.798578 
L 174.846729 -76.433747 
L 176.350704 -72.937564 
L 177.854678 -76.482586 
L 179.358652 -75.57121 
L 180.862627 -71.019429 
L 182.366601 -71.386259 
L 183.870576 -74.317127 
L 185.37455 -72.057485 
L 186.878524 -72.72829 
L 188.382499 -73.779715 
L 189.886473 -73.182221 
L 191.390448 -72.408245 
L 192.894422 -76.094705 
L 194.398397 -72.667964 
L 195.902371 -72.819629 
L 197.406345 -73.442567 
L 198.91032 -74.821355 
L 200.414294 -74.722205 
L 201.918269 -72.881692 
L 203.422243 -72.177697 
L 204.926217 -72.05207 
L 206.430192 -71.167035 
L 207.934166 -73.664555 
L 209.438141 -72.950258 
L 210.942115 -70.716978 
L 212.44609 -72.902145 
L 213.950064 -71.678944 
L 215.454038 -71.979873 
L 216.958013 -73.004232 
L 218.461987 -74.004149 
L 219.965962 -71.278779 
L 221.469936 -68.647164 
L 222.97391 -72.904183 
L 224.477885 -71.875801 
L 225.981859 -73.138745 
L 227.485834 -73.671242 
L 228.989808 -72.509979 
L 230.493783 -74.665821 
L 231.997757 -74.671804 
L 233.501731 -74.129041 
L 235.005706 -73.632946 
L 236.50968 -70.29006 
L 238.013655 -73.538115 
L 239.517629 -71.650984 
L 241.021603 -70.49041 
L 242.525578 -69.33742 
L 244.029552 -73.326069 
L 245.533527 -72.294922 
L 247.037501 -71.774818 
L 248.541476 -75.719292 
L 250.04545 -73.311605 
L 251.549424 -74.593286 
L 253.053399 -73.487821 
L 254.557373 -73.639342 
L 256.061348 -73.585776 
L 257.565322 -71.667185 
L 259.069296 -74.919281 
L 260.573271 -70.156168 
L 262.077245 -72.820951 
L 263.58122 -72.686077 
L 265.085194 -72.18338 
L 266.589169 -72.538454 
L 268.093143 -73.527071 
L 269.597117 -68.344023 
L 271.101092 -68.83057 
L 272.605066 -72.253486 
L 274.109041 -68.753364 
L 275.613015 -69.955863 
L 277.116989 -71.79119 
L 278.620964 -71.430954 
L 280.124938 -70.320311 
L 281.628913 -70.410684 
L 283.132887 -68.975172 
L 284.636862 -69.44891 
L 286.140836 -71.208039 
L 287.64481 -70.521633 
L 289.148785 -71.675929 
L 290.652759 -70.164465 
L 292.156734 -69.568164 
L 293.660708 -69.684573 
L 295.164683 -69.280545 
L 296.668657 -68.105065 
L 298.172631 -72.214856 
L 299.676606 -72.189311 
L 301.18058 -72.549439 
L 302.684555 -71.737899 
L 304.188529 -69.359375 
L 305.692503 -69.933881 
L 307.196478 -71.35841 
L 308.700452 -69.405644 
L 310.204427 -71.183312 
L 311.708401 -69.365822 
L 313.212376 -71.980293 
L 314.71635 -68.558207 
L 316.220324 -70.440893 
L 317.724299 -67.865158 
L 319.228273 -72.311683 
L 320.732248 -66.683535 
L 322.236222 -71.719807 
L 323.740196 -67.047482 
L 325.244171 -69.214402 
L 326.748145 -69.25642 
L 328.25212 -65.958167 
L 329.756094 -69.348971 
L 331.260069 -70.323566 
L 332.764043 -69.096914 
L 334.268017 -70.778671 
L 335.771992 -69.291348 
L 337.275966 -70.594078 
L 338.779941 -72.458647 
L 340.283915 -69.70015 
L 341.787889 -69.569391 
L 343.291864 -69.135858 
L 344.795838 -70.510215 
L 346.299813 -70.34206 
L 347.803787 -69.939415 
L 349.307762 -68.000888 
L 350.811736 -70.109648 
L 352.31571 -66.915875 
L 353.819685 -70.483307 
L 355.323659 -72.187031 
L 356.827634 -69.818076 
L 358.331608 -68.130668 
L 359.835582 -72.060658 
L 361.339557 -69.302084 
L 362.843531 -71.258987 
L 364.347506 -70.716324 
L 365.85148 -70.565369 
L 367.355455 -67.296404 
L 367.355455 -73.640659 
L 367.355455 -73.640659 
L 365.85148 -76.284216 
L 364.347506 -76.621087 
L 362.843531 -77.192604 
L 361.339557 -75.004367 
L 359.835582 -77.638034 
L 358.331608 -73.756242 
L 356.827634 -76.104597 
L 355.323659 -77.136815 
L 353.819685 -76.587945 
L 352.31571 -72.817831 
L 350.811736 -76.173677 
L 349.307762 -74.060828 
L 347.803787 -75.539473 
L 346.299813 -76.665064 
L 344.795838 -77.347695 
L 343.291864 -75.445915 
L 341.787889 -75.817996 
L 340.283915 -76.152961 
L 338.779941 -77.516754 
L 337.275966 -76.744991 
L 335.771992 -75.881427 
L 334.268017 -76.462175 
L 332.764043 -76.483614 
L 331.260069 -76.382174 
L 329.756094 -76.125188 
L 328.25212 -73.15418 
L 326.748145 -75.784174 
L 325.244171 -75.501013 
L 323.740196 -74.986396 
L 322.236222 -77.739557 
L 320.732248 -73.543678 
L 319.228273 -76.784572 
L 317.724299 -74.89782 
L 316.220324 -76.000487 
L 314.71635 -75.028266 
L 313.212376 -77.014478 
L 311.708401 -74.964574 
L 310.204427 -77.364771 
L 308.700452 -74.795416 
L 307.196478 -77.130417 
L 305.692503 -75.970476 
L 304.188529 -75.439106 
L 302.684555 -77.433268 
L 301.18058 -77.803978 
L 299.676606 -78.563843 
L 298.172631 -77.825686 
L 296.668657 -74.78383 
L 295.164683 -76.153714 
L 293.660708 -75.86022 
L 292.156734 -76.276734 
L 290.652759 -76.730124 
L 289.148785 -78.612816 
L 287.64481 -77.004751 
L 286.140836 -78.040538 
L 284.636862 -76.167364 
L 283.132887 -75.233731 
L 281.628913 -76.557874 
L 280.124938 -77.332882 
L 278.620964 -78.116643 
L 277.116989 -78.071686 
L 275.613015 -76.737384 
L 274.109041 -75.239498 
L 272.605066 -78.7652 
L 271.101092 -76.128473 
L 269.597117 -74.944281 
L 268.093143 -80.059413 
L 266.589169 -79.945439 
L 265.085194 -78.403668 
L 263.58122 -78.756304 
L 262.077245 -79.20394 
L 260.573271 -78.483328 
L 259.069296 -80.205571 
L 257.565322 -77.531923 
L 256.061348 -80.404387 
L 254.557373 -79.872572 
L 253.053399 -79.474853 
L 251.549424 -79.735071 
L 250.04545 -79.477404 
L 248.541476 -81.341685 
L 247.037501 -79.149394 
L 245.533527 -78.653999 
L 244.029552 -79.103211 
L 242.525578 -77.491822 
L 241.021603 -78.06221 
L 239.517629 -79.066294 
L 238.013655 -80.447236 
L 236.50968 -78.309887 
L 235.005706 -80.922963 
L 233.501731 -81.123527 
L 231.997757 -81.709981 
L 230.493783 -81.255418 
L 228.989808 -79.405176 
L 227.485834 -80.242613 
L 225.981859 -80.170733 
L 224.477885 -79.425574 
L 222.97391 -80.327948 
L 221.469936 -77.122633 
L 219.965962 -79.698789 
L 218.461987 -80.784349 
L 216.958013 -81.36973 
L 215.454038 -80.697823 
L 213.950064 -79.889884 
L 212.44609 -79.521721 
L 210.942115 -79.00424 
L 209.438141 -81.098807 
L 207.934166 -82.958607 
L 206.430192 -80.008085 
L 204.926217 -79.862984 
L 203.422243 -80.139853 
L 201.918269 -81.593591 
L 200.414294 -82.8044 
L 198.91032 -82.591167 
L 197.406345 -81.846098 
L 195.902371 -81.837757 
L 194.398397 -82.372845 
L 192.894422 -84.190423 
L 191.390448 -82.969343 
L 189.886473 -83.559623 
L 188.382499 -84.084901 
L 186.878524 -83.381312 
L 185.37455 -85.1214 
L 183.870576 -84.823888 
L 182.366601 -83.225587 
L 180.862627 -82.422727 
L 179.358652 -87.12486 
L 177.854678 -86.523482 
L 176.350704 -86.028414 
L 174.846729 -86.850612 
L 173.342755 -86.294375 
L 171.83878 -84.370072 
L 170.334806 -84.332166 
L 168.830831 -84.848624 
L 167.326857 -84.325275 
L 165.822883 -86.228448 
L 164.318908 -87.522078 
L 162.814934 -86.949258 
L 161.310959 -88.996511 
L 159.806985 -87.151116 
L 158.303011 -84.780916 
L 156.799036 -87.577428 
L 155.295062 -92.722205 
L 153.791087 -85.819363 
L 152.287113 -86.997311 
L 150.783138 -89.929758 
L 149.279164 -89.853935 
L 147.77519 -88.12348 
L 146.271215 -89.58003 
L 144.767241 -91.639355 
L 143.263266 -90.571931 
L 141.759292 -91.625595 
L 140.255317 -90.901962 
L 138.751343 -90.790476 
L 137.247369 -90.886677 
L 135.743394 -90.635186 
L 134.23942 -89.565639 
L 132.735445 -91.746759 
L 131.231471 -89.76386 
L 129.727497 -92.415578 
L 128.223522 -92.017115 
L 126.719548 -92.186799 
L 125.215573 -90.909412 
L 123.711599 -89.993054 
L 122.207624 -92.125663 
L 120.70365 -91.24305 
L 119.199676 -89.052554 
L 117.695701 -90.422163 
L 116.191727 -89.93264 
L 114.687752 -89.986907 
L 113.183778 -91.683277 
L 111.679804 -89.47294 
L 110.175829 -91.99709 
L 108.671855 -93.270721 
L 107.16788 -91.042238 
L 105.663906 -92.654774 
L 104.159931 -92.284025 
L 102.655957 -91.88069 
L 101.151983 -92.198523 
L 99.648008 -93.435463 
L 98.144034 -94.101947 
L 96.640059 -92.917242 
L 95.136085 -94.152628 
L 93.632111 -96.541739 
L 92.128136 -96.572034 
L 90.624162 -96.782413 
L 89.120187 -101.209362 
L 87.616213 -103.057718 
L 86.112238 -107.502328 
L 84.608264 -114.589381 
L 83.10429 -120.512874 
L 81.600315 -126.0171 
L 80.096341 -135.71796 
L 78.592366 -140.914844 
L 77.088392 -148.561999 
L 75.584418 -159.717127 
L 74.080443 -166.513995 
L 72.576469 -172.716812 
L 71.072494 -180.906055 
L 69.56852 -183.050999 
L 68.064545 -183.057595 
z
" style="stroke: #375a8c; stroke-opacity: 0.2"/>
    </defs>
    <g clip-path="url(#p98ad34a0ee)">
     <use xlink:href="#mc00ca63c67" x="0" y="241.92" style="fill: #375a8c; fill-opacity: 0.2; stroke: #375a8c; stroke-opacity: 0.2"/>
    </g>
   </g>
   <g id="PolyCollection_3">
    <defs>
     <path id="m2d3dc1cd98" d="M 68.064545 -183.318647 
L 68.064545 -181.948081 
L 69.56852 -181.709177 
L 71.072494 -181.702953 
L 72.576469 -181.793697 
L 74.080443 -181.755149 
L 75.584418 -181.551396 
L 77.088392 -181.151396 
L 78.592366 -172.337622 
L 80.096341 -163.770319 
L 81.600315 -157.638531 
L 83.10429 -151.696991 
L 84.608264 -146.156195 
L 86.112238 -140.176997 
L 87.616213 -136.049814 
L 89.120187 -132.869917 
L 90.624162 -129.484251 
L 92.128136 -125.713599 
L 93.632111 -122.96956 
L 95.136085 -120.825822 
L 96.640059 -118.37225 
L 98.144034 -116.722578 
L 99.648008 -115.146755 
L 101.151983 -113.417324 
L 102.655957 -112.440852 
L 104.159931 -111.791325 
L 105.663906 -110.410125 
L 107.16788 -109.122159 
L 108.671855 -108.470594 
L 110.175829 -106.836363 
L 111.679804 -106.097071 
L 113.183778 -105.441418 
L 114.687752 -104.92036 
L 116.191727 -104.237279 
L 117.695701 -103.077583 
L 119.199676 -102.897402 
L 120.70365 -102.227972 
L 122.207624 -101.909826 
L 123.711599 -101.294077 
L 125.215573 -100.786837 
L 126.719548 -100.060541 
L 128.223522 -99.573408 
L 129.727497 -99.63448 
L 131.231471 -98.303843 
L 132.735445 -97.85509 
L 134.23942 -97.973875 
L 135.743394 -97.973143 
L 137.247369 -96.79363 
L 138.751343 -96.900807 
L 140.255317 -96.62786 
L 141.759292 -96.483648 
L 143.263266 -95.977779 
L 144.767241 -95.881092 
L 146.271215 -95.827943 
L 147.77519 -95.404634 
L 149.279164 -95.232965 
L 150.783138 -95.123607 
L 152.287113 -94.439409 
L 153.791087 -95.020871 
L 155.295062 -94.225322 
L 156.799036 -94.371517 
L 158.303011 -93.669736 
L 159.806985 -93.928798 
L 161.310959 -93.784482 
L 162.814934 -93.179268 
L 164.318908 -93.070112 
L 165.822883 -92.918351 
L 167.326857 -93.009464 
L 168.830831 -92.634152 
L 170.334806 -92.776175 
L 171.83878 -92.440445 
L 173.342755 -91.974258 
L 174.846729 -92.170826 
L 176.350704 -91.733444 
L 177.854678 -91.802019 
L 179.358652 -91.46082 
L 180.862627 -91.527883 
L 182.366601 -91.260827 
L 183.870576 -91.378003 
L 185.37455 -91.785635 
L 186.878524 -91.237005 
L 188.382499 -90.966406 
L 189.886473 -90.517959 
L 191.390448 -90.550216 
L 192.894422 -90.683659 
L 194.398397 -90.311965 
L 195.902371 -89.968583 
L 197.406345 -90.119328 
L 198.91032 -90.159353 
L 200.414294 -90.263328 
L 201.918269 -90.240447 
L 203.422243 -89.88361 
L 204.926217 -89.918285 
L 206.430192 -89.383551 
L 207.934166 -89.234574 
L 209.438141 -89.365833 
L 210.942115 -89.541436 
L 212.44609 -89.039954 
L 213.950064 -89.139238 
L 215.454038 -89.029431 
L 216.958013 -89.235946 
L 218.461987 -88.825523 
L 219.965962 -88.864526 
L 221.469936 -88.601337 
L 222.97391 -88.701393 
L 224.477885 -88.281382 
L 225.981859 -88.234855 
L 227.485834 -88.059068 
L 228.989808 -88.090114 
L 230.493783 -87.895796 
L 231.997757 -87.763399 
L 233.501731 -87.961502 
L 235.005706 -88.034409 
L 236.50968 -87.467539 
L 238.013655 -88.097776 
L 239.517629 -87.847702 
L 241.021603 -87.766419 
L 242.525578 -87.519958 
L 244.029552 -87.798559 
L 245.533527 -87.680618 
L 247.037501 -87.494906 
L 248.541476 -87.453866 
L 250.04545 -87.29338 
L 251.549424 -87.451069 
L 253.053399 -87.615767 
L 254.557373 -87.245547 
L 256.061348 -87.180413 
L 257.565322 -87.243058 
L 259.069296 -87.27316 
L 260.573271 -87.140857 
L 262.077245 -86.892188 
L 263.58122 -87.224838 
L 265.085194 -87.058945 
L 266.589169 -86.562558 
L 268.093143 -86.859124 
L 269.597117 -87.017355 
L 271.101092 -87.065607 
L 272.605066 -86.867756 
L 274.109041 -86.900572 
L 275.613015 -86.890384 
L 277.116989 -86.469912 
L 278.620964 -86.914143 
L 280.124938 -86.839713 
L 281.628913 -86.519641 
L 283.132887 -86.997542 
L 284.636862 -86.204583 
L 286.140836 -86.393619 
L 287.64481 -86.6802 
L 289.148785 -86.248005 
L 290.652759 -85.952852 
L 292.156734 -86.808562 
L 293.660708 -86.288308 
L 295.164683 -86.457765 
L 296.668657 -86.668303 
L 298.172631 -86.363979 
L 299.676606 -85.818151 
L 301.18058 -86.378126 
L 302.684555 -85.923438 
L 304.188529 -85.784069 
L 305.692503 -86.256385 
L 307.196478 -85.833966 
L 308.700452 -86.09333 
L 310.204427 -86.165781 
L 311.708401 -86.129254 
L 313.212376 -85.992131 
L 314.71635 -85.867068 
L 316.220324 -85.875733 
L 317.724299 -86.049342 
L 319.228273 -85.739408 
L 320.732248 -86.167648 
L 322.236222 -85.469837 
L 323.740196 -85.674813 
L 325.244171 -85.846844 
L 326.748145 -85.518031 
L 328.25212 -85.379382 
L 329.756094 -85.693904 
L 331.260069 -85.791181 
L 332.764043 -85.90096 
L 334.268017 -85.580967 
L 335.771992 -84.988331 
L 337.275966 -85.747267 
L 338.779941 -85.448663 
L 340.283915 -85.853209 
L 341.787889 -85.550829 
L 343.291864 -85.562817 
L 344.795838 -85.288533 
L 346.299813 -85.671673 
L 347.803787 -85.011657 
L 349.307762 -85.258818 
L 350.811736 -85.036087 
L 352.31571 -85.729284 
L 353.819685 -84.968731 
L 355.323659 -85.653598 
L 356.827634 -84.961553 
L 358.331608 -85.310874 
L 359.835582 -84.743012 
L 361.339557 -85.7021 
L 362.843531 -85.506521 
L 364.347506 -85.175341 
L 365.85148 -85.273364 
L 367.355455 -84.964961 
L 367.355455 -87.615088 
L 367.355455 -87.615088 
L 365.85148 -87.310626 
L 364.347506 -87.790942 
L 362.843531 -88.171826 
L 361.339557 -88.321165 
L 359.835582 -87.487869 
L 358.331608 -88.489649 
L 356.827634 -88.131202 
L 355.323659 -87.500539 
L 353.819685 -87.348911 
L 352.31571 -87.701916 
L 350.811736 -87.546904 
L 349.307762 -87.814695 
L 347.803787 -87.920522 
L 346.299813 -87.579692 
L 344.795838 -87.860395 
L 343.291864 -87.797339 
L 341.787889 -88.005655 
L 340.283915 -87.679456 
L 338.779941 -88.057406 
L 337.275966 -88.236868 
L 335.771992 -88.372717 
L 334.268017 -87.820895 
L 332.764043 -87.714164 
L 331.260069 -88.299662 
L 329.756094 -87.921195 
L 328.25212 -87.739461 
L 326.748145 -88.033772 
L 325.244171 -88.454821 
L 323.740196 -88.513387 
L 322.236222 -88.141447 
L 320.732248 -88.087529 
L 319.228273 -87.722893 
L 317.724299 -88.46523 
L 316.220324 -87.798225 
L 314.71635 -88.112617 
L 313.212376 -88.356927 
L 311.708401 -88.138582 
L 310.204427 -88.174226 
L 308.700452 -88.448253 
L 307.196478 -88.309738 
L 305.692503 -88.368959 
L 304.188529 -88.431347 
L 302.684555 -88.405536 
L 301.18058 -88.209552 
L 299.676606 -88.282223 
L 298.172631 -88.332964 
L 296.668657 -88.53764 
L 295.164683 -89.030476 
L 293.660708 -88.663199 
L 292.156734 -88.606828 
L 290.652759 -88.36774 
L 289.148785 -88.900723 
L 287.64481 -88.843793 
L 286.140836 -88.440383 
L 284.636862 -88.699295 
L 283.132887 -88.702389 
L 281.628913 -88.80365 
L 280.124938 -89.360843 
L 278.620964 -89.425605 
L 277.116989 -89.15723 
L 275.613015 -89.267707 
L 274.109041 -89.377162 
L 272.605066 -89.912729 
L 271.101092 -89.292019 
L 269.597117 -89.070565 
L 268.093143 -89.630394 
L 266.589169 -89.030338 
L 265.085194 -89.01126 
L 263.58122 -89.405055 
L 262.077245 -89.250385 
L 260.573271 -89.432525 
L 259.069296 -89.816381 
L 257.565322 -89.379872 
L 256.061348 -89.587522 
L 254.557373 -90.025488 
L 253.053399 -89.679218 
L 251.549424 -89.623682 
L 250.04545 -89.866213 
L 248.541476 -89.701244 
L 247.037501 -89.82822 
L 245.533527 -89.647533 
L 244.029552 -89.782822 
L 242.525578 -90.340294 
L 241.021603 -89.910563 
L 239.517629 -89.990543 
L 238.013655 -89.899039 
L 236.50968 -90.03397 
L 235.005706 -90.531641 
L 233.501731 -90.212465 
L 231.997757 -89.904989 
L 230.493783 -90.253154 
L 228.989808 -90.533661 
L 227.485834 -90.799098 
L 225.981859 -90.693841 
L 224.477885 -90.287028 
L 222.97391 -90.633429 
L 221.469936 -90.561672 
L 219.965962 -91.020098 
L 218.461987 -91.081332 
L 216.958013 -90.753151 
L 215.454038 -91.505435 
L 213.950064 -91.321412 
L 212.44609 -91.384065 
L 210.942115 -91.130798 
L 209.438141 -91.791345 
L 207.934166 -91.450366 
L 206.430192 -92.032275 
L 204.926217 -91.749301 
L 203.422243 -91.928743 
L 201.918269 -92.320356 
L 200.414294 -92.313872 
L 198.91032 -92.419808 
L 197.406345 -92.760158 
L 195.902371 -93.004115 
L 194.398397 -93.025083 
L 192.894422 -92.932369 
L 191.390448 -92.951385 
L 189.886473 -93.144572 
L 188.382499 -93.280464 
L 186.878524 -93.329929 
L 185.37455 -93.690583 
L 183.870576 -93.498202 
L 182.366601 -93.872273 
L 180.862627 -93.838327 
L 179.358652 -94.460189 
L 177.854678 -94.261596 
L 176.350704 -94.079678 
L 174.846729 -94.975288 
L 173.342755 -94.747939 
L 171.83878 -94.710436 
L 170.334806 -94.773725 
L 168.830831 -94.957897 
L 167.326857 -95.319027 
L 165.822883 -95.513779 
L 164.318908 -95.561621 
L 162.814934 -95.788302 
L 161.310959 -96.294696 
L 159.806985 -95.990786 
L 158.303011 -96.325437 
L 156.799036 -96.713818 
L 155.295062 -97.13267 
L 153.791087 -96.748364 
L 152.287113 -97.038526 
L 150.783138 -97.205483 
L 149.279164 -97.913695 
L 147.77519 -97.756685 
L 146.271215 -97.927446 
L 144.767241 -98.342269 
L 143.263266 -98.534132 
L 141.759292 -99.050841 
L 140.255317 -99.081091 
L 138.751343 -99.477633 
L 137.247369 -99.947218 
L 135.743394 -99.837973 
L 134.23942 -100.357714 
L 132.735445 -101.498024 
L 131.231471 -101.013668 
L 129.727497 -101.393473 
L 128.223522 -102.21515 
L 126.719548 -102.715465 
L 125.215573 -102.981436 
L 123.711599 -103.307488 
L 122.207624 -104.318359 
L 120.70365 -104.745583 
L 119.199676 -105.355558 
L 117.695701 -105.934217 
L 116.191727 -105.903358 
L 114.687752 -107.099557 
L 113.183778 -107.553681 
L 111.679804 -108.514263 
L 110.175829 -109.574744 
L 108.671855 -110.537788 
L 107.16788 -111.59807 
L 105.663906 -112.740154 
L 104.159931 -114.42526 
L 102.655957 -114.801472 
L 101.151983 -116.323393 
L 99.648008 -117.642349 
L 98.144034 -119.04195 
L 96.640059 -121.088049 
L 95.136085 -122.998559 
L 93.632111 -125.91524 
L 92.128136 -129.719279 
L 90.624162 -134.016215 
L 89.120187 -136.667717 
L 87.616213 -139.780026 
L 86.112238 -145.207735 
L 84.608264 -150.076051 
L 83.10429 -156.073798 
L 81.600315 -162.154827 
L 80.096341 -168.529443 
L 78.592366 -179.362176 
L 77.088392 -183.148977 
L 75.584418 -183.458572 
L 74.080443 -183.276971 
L 72.576469 -183.236109 
L 71.072494 -183.328877 
L 69.56852 -183.34943 
L 68.064545 -183.318647 
z
" style="stroke: #9bd93c; stroke-opacity: 0.2"/>
    </defs>
    <g clip-path="url(#p98ad34a0ee)">
     <use xlink:href="#m2d3dc1cd98" x="0" y="241.92" style="fill: #9bd93c; fill-opacity: 0.2; stroke: #9bd93c; stroke-opacity: 0.2"/>
    </g>
   </g>
   <g id="PolyCollection_4">
    <defs>
     <path id="m371035de62" d="M 68.064545 -183.132261 
L 68.064545 -181.779962 
L 69.56852 -181.783901 
L 71.072494 -181.084126 
L 72.576469 -174.887861 
L 74.080443 -167.466077 
L 75.584418 -162.070885 
L 77.088392 -153.102412 
L 78.592366 -145.592452 
L 80.096341 -140.497168 
L 81.600315 -135.159337 
L 83.10429 -131.199687 
L 84.608264 -127.666537 
L 86.112238 -124.872606 
L 87.616213 -121.561253 
L 89.120187 -119.68597 
L 90.624162 -118.485232 
L 92.128136 -117.295682 
L 93.632111 -116.027421 
L 95.136085 -115.487217 
L 96.640059 -114.793513 
L 98.144034 -114.270939 
L 99.648008 -113.739945 
L 101.151983 -112.852855 
L 102.655957 -112.597154 
L 104.159931 -111.099259 
L 105.663906 -110.66138 
L 107.16788 -110.160055 
L 108.671855 -110.141121 
L 110.175829 -109.638206 
L 111.679804 -109.059502 
L 113.183778 -108.824005 
L 114.687752 -107.88873 
L 116.191727 -108.367519 
L 117.695701 -107.570932 
L 119.199676 -106.859269 
L 120.70365 -106.617241 
L 122.207624 -106.457529 
L 123.711599 -106.205125 
L 125.215573 -106.072436 
L 126.719548 -105.705083 
L 128.223522 -105.319725 
L 129.727497 -104.90625 
L 131.231471 -104.524486 
L 132.735445 -103.922925 
L 134.23942 -103.916965 
L 135.743394 -103.450764 
L 137.247369 -103.428436 
L 138.751343 -102.552057 
L 140.255317 -102.697485 
L 141.759292 -102.179859 
L 143.263266 -101.822321 
L 144.767241 -102.046856 
L 146.271215 -101.564144 
L 147.77519 -100.819927 
L 149.279164 -101.133037 
L 150.783138 -100.902043 
L 152.287113 -100.395458 
L 153.791087 -100.072656 
L 155.295062 -99.704753 
L 156.799036 -100.042803 
L 158.303011 -99.480232 
L 159.806985 -99.723344 
L 161.310959 -99.315348 
L 162.814934 -98.392224 
L 164.318908 -98.663696 
L 165.822883 -99.113958 
L 167.326857 -99.000075 
L 168.830831 -98.159076 
L 170.334806 -97.902484 
L 171.83878 -97.434212 
L 173.342755 -97.151166 
L 174.846729 -96.968463 
L 176.350704 -96.647698 
L 177.854678 -96.583832 
L 179.358652 -96.26718 
L 180.862627 -96.06051 
L 182.366601 -95.985041 
L 183.870576 -95.39114 
L 185.37455 -95.418467 
L 186.878524 -95.304158 
L 188.382499 -95.829886 
L 189.886473 -95.067967 
L 191.390448 -95.259547 
L 192.894422 -94.891812 
L 194.398397 -94.591018 
L 195.902371 -94.263785 
L 197.406345 -94.603292 
L 198.91032 -94.37136 
L 200.414294 -93.911349 
L 201.918269 -93.96112 
L 203.422243 -94.028459 
L 204.926217 -93.82599 
L 206.430192 -93.407555 
L 207.934166 -93.359118 
L 209.438141 -93.330624 
L 210.942115 -93.319146 
L 212.44609 -93.413318 
L 213.950064 -93.218538 
L 215.454038 -93.011847 
L 216.958013 -92.812719 
L 218.461987 -92.886023 
L 219.965962 -92.834693 
L 221.469936 -92.971146 
L 222.97391 -92.416077 
L 224.477885 -92.765211 
L 225.981859 -92.302967 
L 227.485834 -92.151566 
L 228.989808 -91.658047 
L 230.493783 -92.166134 
L 231.997757 -92.026514 
L 233.501731 -92.139852 
L 235.005706 -91.950894 
L 236.50968 -92.037642 
L 238.013655 -91.761182 
L 239.517629 -91.645263 
L 241.021603 -91.893778 
L 242.525578 -91.55888 
L 244.029552 -91.774706 
L 245.533527 -91.380996 
L 247.037501 -91.436371 
L 248.541476 -91.524086 
L 250.04545 -91.575102 
L 251.549424 -90.967387 
L 253.053399 -90.96661 
L 254.557373 -91.510201 
L 256.061348 -90.570548 
L 257.565322 -90.786598 
L 259.069296 -90.597689 
L 260.573271 -90.614763 
L 262.077245 -90.702579 
L 263.58122 -90.557337 
L 265.085194 -90.36606 
L 266.589169 -90.39079 
L 268.093143 -90.549084 
L 269.597117 -90.70819 
L 271.101092 -90.562473 
L 272.605066 -90.629657 
L 274.109041 -90.450915 
L 275.613015 -90.36211 
L 277.116989 -90.325742 
L 278.620964 -90.372507 
L 280.124938 -90.157974 
L 281.628913 -90.682969 
L 283.132887 -90.219915 
L 284.636862 -89.704011 
L 286.140836 -90.059657 
L 287.64481 -90.010512 
L 289.148785 -90.150376 
L 290.652759 -89.350521 
L 292.156734 -90.108116 
L 293.660708 -89.838253 
L 295.164683 -89.52525 
L 296.668657 -89.650343 
L 298.172631 -89.465994 
L 299.676606 -89.575689 
L 301.18058 -89.687198 
L 302.684555 -89.667318 
L 304.188529 -89.28392 
L 305.692503 -89.031723 
L 307.196478 -89.375664 
L 308.700452 -89.291247 
L 310.204427 -89.2613 
L 311.708401 -88.965182 
L 313.212376 -89.253642 
L 314.71635 -88.755633 
L 316.220324 -89.099106 
L 317.724299 -88.398172 
L 319.228273 -88.608651 
L 320.732248 -88.415886 
L 322.236222 -88.785625 
L 323.740196 -88.450635 
L 325.244171 -88.519242 
L 326.748145 -88.656917 
L 328.25212 -88.917956 
L 329.756094 -88.42146 
L 331.260069 -88.450278 
L 332.764043 -88.303229 
L 334.268017 -88.162788 
L 335.771992 -88.001728 
L 337.275966 -87.90672 
L 338.779941 -88.009015 
L 340.283915 -88.206717 
L 341.787889 -88.025981 
L 343.291864 -88.070974 
L 344.795838 -87.389372 
L 346.299813 -87.698971 
L 347.803787 -87.803642 
L 349.307762 -88.146871 
L 350.811736 -87.422871 
L 352.31571 -88.005345 
L 353.819685 -87.540555 
L 355.323659 -87.623644 
L 356.827634 -87.670624 
L 358.331608 -87.526536 
L 359.835582 -87.165224 
L 361.339557 -87.690842 
L 362.843531 -87.60667 
L 364.347506 -87.395966 
L 365.85148 -87.771706 
L 367.355455 -86.999236 
L 367.355455 -89.565379 
L 367.355455 -89.565379 
L 365.85148 -89.479092 
L 364.347506 -89.538231 
L 362.843531 -89.351208 
L 361.339557 -90.002088 
L 359.835582 -89.721147 
L 358.331608 -89.818464 
L 356.827634 -89.841426 
L 355.323659 -89.916781 
L 353.819685 -89.960203 
L 352.31571 -89.970111 
L 350.811736 -89.879722 
L 349.307762 -89.825015 
L 347.803787 -89.799358 
L 346.299813 -90.53269 
L 344.795838 -89.834114 
L 343.291864 -89.985445 
L 341.787889 -90.313598 
L 340.283915 -90.306937 
L 338.779941 -89.981078 
L 337.275966 -90.522894 
L 335.771992 -90.151311 
L 334.268017 -90.117732 
L 332.764043 -90.250439 
L 331.260069 -90.855375 
L 329.756094 -91.062557 
L 328.25212 -90.887646 
L 326.748145 -90.613493 
L 325.244171 -90.944756 
L 323.740196 -90.752779 
L 322.236222 -90.946152 
L 320.732248 -91.029661 
L 319.228273 -91.398159 
L 317.724299 -90.469956 
L 316.220324 -91.117561 
L 314.71635 -91.103694 
L 313.212376 -91.158992 
L 311.708401 -91.225856 
L 310.204427 -91.345036 
L 308.700452 -91.465921 
L 307.196478 -91.490316 
L 305.692503 -91.456594 
L 304.188529 -91.406329 
L 302.684555 -91.253453 
L 301.18058 -92.024838 
L 299.676606 -91.922066 
L 298.172631 -91.924415 
L 296.668657 -91.815057 
L 295.164683 -92.090275 
L 293.660708 -91.841904 
L 292.156734 -91.996995 
L 290.652759 -91.786277 
L 289.148785 -92.335001 
L 287.64481 -92.194043 
L 286.140836 -92.201812 
L 284.636862 -92.415357 
L 283.132887 -92.149751 
L 281.628913 -92.735086 
L 280.124938 -92.286908 
L 278.620964 -91.893222 
L 277.116989 -92.566972 
L 275.613015 -92.28708 
L 274.109041 -92.783849 
L 272.605066 -93.084256 
L 271.101092 -92.595127 
L 269.597117 -92.5822 
L 268.093143 -92.899616 
L 266.589169 -92.675666 
L 265.085194 -92.563808 
L 263.58122 -92.902366 
L 262.077245 -93.088957 
L 260.573271 -92.777858 
L 259.069296 -92.937273 
L 257.565322 -93.335317 
L 256.061348 -93.411663 
L 254.557373 -93.217581 
L 253.053399 -93.137451 
L 251.549424 -93.118207 
L 250.04545 -93.452337 
L 248.541476 -93.365866 
L 247.037501 -93.036051 
L 245.533527 -93.354772 
L 244.029552 -93.693909 
L 242.525578 -93.667125 
L 241.021603 -93.865904 
L 239.517629 -94.114732 
L 238.013655 -93.586452 
L 236.50968 -94.152499 
L 235.005706 -94.256651 
L 233.501731 -94.002215 
L 231.997757 -94.526743 
L 230.493783 -94.168508 
L 228.989808 -94.052999 
L 227.485834 -94.033681 
L 225.981859 -94.382035 
L 224.477885 -94.739944 
L 222.97391 -94.390485 
L 221.469936 -94.897945 
L 219.965962 -95.052964 
L 218.461987 -94.987482 
L 216.958013 -95.112224 
L 215.454038 -95.216679 
L 213.950064 -95.659269 
L 212.44609 -95.435752 
L 210.942115 -95.32501 
L 209.438141 -95.667509 
L 207.934166 -96.068902 
L 206.430192 -95.723426 
L 204.926217 -96.603667 
L 203.422243 -96.091469 
L 201.918269 -95.886944 
L 200.414294 -96.691471 
L 198.91032 -96.9149 
L 197.406345 -96.797194 
L 195.902371 -96.837778 
L 194.398397 -96.562842 
L 192.894422 -97.329891 
L 191.390448 -97.31171 
L 189.886473 -97.036738 
L 188.382499 -97.144066 
L 186.878524 -97.839091 
L 185.37455 -97.53937 
L 183.870576 -97.922082 
L 182.366601 -98.527139 
L 180.862627 -98.491275 
L 179.358652 -98.487553 
L 177.854678 -98.14682 
L 176.350704 -98.782774 
L 174.846729 -99.158343 
L 173.342755 -99.03105 
L 171.83878 -99.636262 
L 170.334806 -99.45374 
L 168.830831 -100.428702 
L 167.326857 -100.828616 
L 165.822883 -100.820106 
L 164.318908 -101.306552 
L 162.814934 -101.617225 
L 161.310959 -101.74357 
L 159.806985 -101.828371 
L 158.303011 -101.911235 
L 156.799036 -102.536576 
L 155.295062 -102.358119 
L 153.791087 -102.626168 
L 152.287113 -102.835928 
L 150.783138 -103.116323 
L 149.279164 -103.110603 
L 147.77519 -103.481821 
L 146.271215 -103.415911 
L 144.767241 -103.932742 
L 143.263266 -104.046829 
L 141.759292 -104.166522 
L 140.255317 -105.104169 
L 138.751343 -105.212098 
L 137.247369 -105.585985 
L 135.743394 -105.914362 
L 134.23942 -105.588728 
L 132.735445 -106.588707 
L 131.231471 -106.700361 
L 129.727497 -107.239873 
L 128.223522 -107.760063 
L 126.719548 -107.524645 
L 125.215573 -108.030746 
L 123.711599 -108.136777 
L 122.207624 -108.752383 
L 120.70365 -108.885891 
L 119.199676 -109.460116 
L 117.695701 -109.602423 
L 116.191727 -110.319225 
L 114.687752 -109.862499 
L 113.183778 -110.600095 
L 111.679804 -111.221462 
L 110.175829 -112.091049 
L 108.671855 -112.146226 
L 107.16788 -112.928925 
L 105.663906 -112.919278 
L 104.159931 -113.661903 
L 102.655957 -114.608777 
L 101.151983 -115.236294 
L 99.648008 -115.852575 
L 98.144034 -116.396817 
L 96.640059 -116.921519 
L 95.136085 -118.055335 
L 93.632111 -118.987648 
L 92.128136 -120.173728 
L 90.624162 -121.552171 
L 89.120187 -123.338093 
L 87.616213 -126.476032 
L 86.112238 -129.59826 
L 84.608264 -133.584106 
L 83.10429 -136.47318 
L 81.600315 -141.617415 
L 80.096341 -147.281065 
L 78.592366 -152.213515 
L 77.088392 -160.152116 
L 75.584418 -166.858878 
L 74.080443 -172.230308 
L 72.576469 -179.313189 
L 71.072494 -182.919196 
L 69.56852 -183.062682 
L 68.064545 -183.132261 
z
" style="stroke: #375a8c; stroke-opacity: 0.2"/>
    </defs>
    <g clip-path="url(#p98ad34a0ee)">
     <use xlink:href="#m371035de62" x="0" y="241.92" style="fill: #375a8c; fill-opacity: 0.2; stroke: #375a8c; stroke-opacity: 0.2"/>
    </g>
   </g>
   <g id="line2d_11">
    <path d="M 68.064545 59.687033 
L 74.080443 59.724106 
L 75.584418 59.721312 
L 77.088392 61.840305 
L 78.592366 75.965814 
L 80.096341 83.472171 
L 81.600315 89.920123 
L 84.608264 105.052884 
L 86.112238 111.961234 
L 90.624162 127.905259 
L 92.128136 134.6435 
L 93.632111 139.228978 
L 95.136085 143.37833 
L 96.640059 145.869779 
L 98.144034 147.41063 
L 99.648008 151.29744 
L 101.151983 152.633054 
L 102.655957 155.221569 
L 104.159931 155.105248 
L 105.663906 157.235758 
L 107.16788 157.505387 
L 108.671855 160.124958 
L 110.175829 159.501557 
L 111.679804 162.140112 
L 113.183778 162.313012 
L 114.687752 163.435507 
L 116.191727 162.993992 
L 117.695701 165.071722 
L 119.199676 165.362569 
L 120.70365 166.441172 
L 122.207624 164.818304 
L 123.711599 167.424255 
L 125.215573 166.173635 
L 126.719548 168.107199 
L 129.727497 168.793257 
L 131.231471 166.004622 
L 132.735445 169.817381 
L 134.23942 169.379322 
L 135.743394 170.182207 
L 137.247369 170.613563 
L 138.751343 170.649225 
L 140.255317 170.486897 
L 141.759292 169.89719 
L 143.263266 170.726785 
L 144.767241 171.819269 
L 146.271215 170.559434 
L 147.77519 172.791057 
L 149.279164 173.638984 
L 150.783138 173.538504 
L 152.287113 173.740096 
L 153.791087 173.502375 
L 155.295062 175.106258 
L 156.799036 174.35876 
L 158.303011 172.087459 
L 159.806985 174.200225 
L 161.310959 174.728585 
L 162.814934 174.878734 
L 164.318908 175.630853 
L 165.822883 175.896525 
L 167.326857 173.800993 
L 168.830831 174.225448 
L 170.334806 175.861837 
L 173.342755 176.060008 
L 174.846729 176.849515 
L 176.350704 176.315452 
L 177.854678 177.615668 
L 179.358652 177.712267 
L 180.862627 176.779549 
L 182.366601 178.579782 
L 183.870576 178.427659 
L 185.37455 179.194784 
L 186.878524 179.1531 
L 188.382499 178.374801 
L 191.390448 180.660702 
L 192.894422 180.264687 
L 194.398397 180.854509 
L 195.902371 180.719987 
L 197.406345 181.926173 
L 198.91032 178.10067 
L 200.414294 181.510841 
L 201.918269 181.557126 
L 203.422243 183.055113 
L 204.926217 181.227062 
L 206.430192 179.944903 
L 207.934166 183.627256 
L 209.438141 183.40089 
L 210.942115 182.555041 
L 212.44609 183.827118 
L 213.950064 181.35188 
L 215.454038 181.63048 
L 216.958013 181.213224 
L 218.461987 184.0907 
L 221.469936 183.126247 
L 222.97391 185.219558 
L 224.477885 183.561088 
L 225.981859 183.471177 
L 227.485834 182.540724 
L 228.989808 184.170077 
L 230.493783 183.630345 
L 231.997757 182.236174 
L 233.501731 184.512838 
L 235.005706 183.827505 
L 236.50968 185.882365 
L 238.013655 184.860984 
L 239.517629 184.328658 
L 241.021603 185.653267 
L 242.525578 184.890999 
L 244.029552 185.688234 
L 245.533527 185.053874 
L 247.037501 186.867283 
L 248.541476 184.739903 
L 250.04545 184.33932 
L 251.549424 185.834221 
L 253.053399 186.529396 
L 254.557373 183.282877 
L 256.061348 186.191921 
L 257.565322 185.361384 
L 259.069296 183.871781 
L 260.573271 184.459069 
L 262.077245 183.892809 
L 263.58122 183.766391 
L 265.085194 185.888686 
L 266.589169 185.761446 
L 268.093143 186.531041 
L 269.597117 189.376682 
L 271.101092 186.418383 
L 272.605066 185.235465 
L 274.109041 186.583421 
L 275.613015 184.899483 
L 277.116989 187.106913 
L 278.620964 185.67252 
L 280.124938 185.233959 
L 281.628913 185.520559 
L 283.132887 187.685167 
L 284.636862 187.771866 
L 286.140836 187.024138 
L 287.64481 188.977815 
L 289.148785 189.938564 
L 290.652759 187.813877 
L 292.156734 184.836142 
L 293.660708 188.288102 
L 295.164683 186.23058 
L 296.668657 187.439469 
L 298.172631 187.268917 
L 299.676606 186.084795 
L 301.18058 188.484755 
L 302.684555 186.769398 
L 304.188529 186.318457 
L 305.692503 189.154422 
L 307.196478 187.548264 
L 308.700452 187.186238 
L 310.204427 189.149177 
L 311.708401 189.594665 
L 313.212376 188.010292 
L 314.71635 188.483444 
L 316.220324 186.678851 
L 317.724299 185.207341 
L 319.228273 186.386794 
L 320.732248 186.636267 
L 322.236222 189.044589 
L 323.740196 189.482408 
L 325.244171 186.045616 
L 326.748145 185.11397 
L 328.25212 188.996104 
L 329.756094 187.475989 
L 331.260069 186.328491 
L 332.764043 188.152709 
L 334.268017 186.202686 
L 335.771992 185.812587 
L 337.275966 183.747283 
L 338.779941 187.111608 
L 340.283915 187.351077 
L 341.787889 187.035671 
L 343.291864 187.994127 
L 344.795838 188.453639 
L 346.299813 191.993831 
L 347.803787 188.037142 
L 349.307762 188.480213 
L 350.811736 188.757938 
L 352.31571 187.8956 
L 353.819685 186.086894 
L 355.323659 188.768903 
L 356.827634 185.75616 
L 358.331608 185.998483 
L 359.835582 186.06284 
L 361.339557 188.037265 
L 362.843531 186.792977 
L 364.347506 187.183305 
L 365.85148 186.456734 
L 367.355455 187.513552 
L 367.355455 187.513552 
" clip-path="url(#p98ad34a0ee)" style="fill: none; stroke: #9bd93c; stroke-linecap: round"/>
   </g>
   <g id="line2d_12">
    <path d="M 68.064545 59.546603 
L 69.56852 59.551696 
L 71.072494 61.763343 
L 72.576469 70.300492 
L 74.080443 77.396947 
L 75.584418 85.101681 
L 77.088392 97.652898 
L 78.592366 106.350179 
L 80.096341 111.511973 
L 81.600315 121.765537 
L 83.10429 126.737904 
L 84.608264 132.626746 
L 86.112238 140.679545 
L 87.616213 144.071147 
L 89.120187 145.329775 
L 90.624162 149.482683 
L 92.128136 149.812349 
L 93.632111 149.159822 
L 95.136085 152.236483 
L 96.640059 152.942278 
L 98.144034 151.572716 
L 101.151983 154.600195 
L 102.655957 154.164688 
L 104.159931 154.168596 
L 105.663906 153.977249 
L 107.16788 155.012915 
L 108.671855 152.966278 
L 110.175829 154.665429 
L 111.679804 157.119439 
L 113.183778 155.182933 
L 114.687752 156.416307 
L 117.695701 156.70739 
L 119.199676 156.774134 
L 120.70365 155.37476 
L 122.207624 154.717873 
L 123.711599 157.042576 
L 125.215573 156.148331 
L 126.719548 154.81184 
L 128.223522 154.95229 
L 129.727497 154.276751 
L 131.231471 157.220496 
L 132.735445 154.732783 
L 134.23942 157.229629 
L 137.247369 156.127723 
L 138.751343 156.201404 
L 141.759292 155.52819 
L 143.263266 156.681741 
L 144.767241 154.905127 
L 146.271215 157.348067 
L 147.77519 158.399576 
L 149.279164 156.755197 
L 150.783138 157.531257 
L 152.287113 159.756451 
L 153.791087 160.944483 
L 155.295062 153.811288 
L 156.799036 159.452299 
L 158.303011 162.538733 
L 159.806985 159.524142 
L 161.310959 157.488929 
L 162.814934 159.802304 
L 164.318908 159.215546 
L 167.326857 162.29161 
L 168.830831 161.824334 
L 170.334806 162.696893 
L 171.83878 162.863862 
L 173.342755 160.537906 
L 174.846729 159.947218 
L 176.350704 161.915704 
L 177.854678 160.109739 
L 179.358652 160.165519 
L 180.862627 164.802952 
L 182.366601 164.187353 
L 183.870576 162.013175 
L 186.878524 163.519479 
L 188.382499 162.664122 
L 191.390448 163.89141 
L 192.894422 161.577539 
L 194.398397 164.112539 
L 195.902371 164.343361 
L 197.406345 164.060308 
L 198.91032 163.029589 
L 200.414294 162.957467 
L 201.918269 164.450935 
L 203.422243 165.567859 
L 206.430192 166.094117 
L 207.934166 163.345101 
L 209.438141 164.692958 
L 210.942115 166.84994 
L 212.44609 165.57435 
L 213.950064 165.929968 
L 215.454038 165.349406 
L 216.958013 164.519601 
L 218.461987 164.385473 
L 219.965962 166.215013 
L 221.469936 168.816046 
L 222.97391 165.1358 
L 224.477885 166.095431 
L 225.981859 165.114384 
L 227.485834 164.831293 
L 228.989808 165.817351 
L 230.493783 163.82687 
L 231.997757 163.577965 
L 233.501731 164.144441 
L 235.005706 164.479907 
L 236.50968 167.423855 
L 238.013655 164.781667 
L 239.517629 166.393609 
L 241.021603 167.468793 
L 242.525578 168.302579 
L 244.029552 165.603485 
L 245.533527 166.322128 
L 247.037501 166.291978 
L 248.541476 163.293017 
L 250.04545 165.409466 
L 251.549424 164.675108 
L 253.053399 165.329258 
L 256.061348 164.783048 
L 257.565322 167.215461 
L 259.069296 164.272264 
L 260.573271 167.388782 
L 262.077245 165.783215 
L 263.58122 166.086345 
L 265.085194 166.508388 
L 266.589169 165.510677 
L 268.093143 164.996538 
L 269.597117 170.142909 
L 271.101092 169.27799 
L 272.605066 166.281257 
L 274.109041 169.795183 
L 275.613015 168.433044 
L 277.116989 166.86818 
L 278.620964 167.009802 
L 280.124938 167.943357 
L 281.628913 168.32039 
L 283.132887 169.696005 
L 284.636862 168.974125 
L 286.140836 167.153263 
L 287.64481 168.028541 
L 289.148785 166.628799 
L 290.652759 168.341155 
L 292.156734 168.860218 
L 293.660708 169.031203 
L 295.164683 169.058723 
L 296.668657 170.339436 
L 298.172631 166.80363 
L 299.676606 166.419412 
L 301.18058 166.659002 
L 302.684555 167.235403 
L 304.188529 169.407944 
L 305.692503 168.856599 
L 307.196478 167.573892 
L 308.700452 169.730789 
L 310.204427 167.529339 
L 311.708401 169.659116 
L 313.212376 167.345242 
L 314.71635 169.999012 
L 316.220324 168.604958 
L 317.724299 170.387605 
L 319.228273 167.310783 
L 320.732248 171.662791 
L 322.236222 167.079715 
L 323.740196 170.710821 
L 325.244171 169.441675 
L 326.748145 169.269665 
L 328.25212 172.205838 
L 329.756094 169.042807 
L 331.260069 168.455096 
L 332.764043 168.963274 
L 334.268017 168.200975 
L 335.771992 169.201083 
L 337.275966 168.134995 
L 338.779941 166.85419 
L 340.283915 168.866372 
L 341.787889 169.107142 
L 343.291864 169.507596 
L 344.795838 167.848389 
L 346.299813 168.294422 
L 347.803787 169.084826 
L 349.307762 170.777059 
L 350.811736 168.666103 
L 352.31571 171.946826 
L 353.819685 168.270632 
L 355.323659 167.183276 
L 356.827634 168.83805 
L 358.331608 170.879941 
L 359.835582 166.975697 
L 361.339557 169.667521 
L 362.843531 167.586741 
L 364.347506 168.144873 
L 365.85148 168.395376 
L 367.355455 171.328632 
L 367.355455 171.328632 
" clip-path="url(#p98ad34a0ee)" style="fill: none; stroke: #375a8c; stroke-linecap: round"/>
   </g>
   <g id="line2d_13">
    <path d="M 68.064545 59.280897 
L 71.072494 59.396009 
L 75.584418 59.403905 
L 77.088392 59.757625 
L 78.592366 65.919542 
L 80.096341 75.700966 
L 83.10429 87.976112 
L 86.112238 99.150368 
L 87.616213 103.962587 
L 90.624162 110.107055 
L 92.128136 114.154563 
L 93.632111 117.451098 
L 95.136085 119.99339 
L 96.640059 122.167323 
L 98.144034 124.021304 
L 101.151983 127.023847 
L 102.655957 128.281817 
L 104.159931 128.790518 
L 105.663906 130.328277 
L 107.16788 131.541161 
L 108.671855 132.402756 
L 110.175829 133.691543 
L 113.183778 135.408822 
L 114.687752 135.895535 
L 116.191727 136.841202 
L 117.695701 137.389176 
L 119.199676 137.775063 
L 120.70365 138.413862 
L 122.207624 138.788188 
L 123.711599 139.606835 
L 126.719548 140.510468 
L 129.727497 141.396572 
L 131.231471 142.238816 
L 132.735445 142.202914 
L 134.23942 142.736848 
L 135.743394 143.003819 
L 137.247369 143.519201 
L 138.751343 143.710498 
L 140.255317 144.047142 
L 141.759292 144.132626 
L 143.263266 144.644084 
L 146.271215 145.028841 
L 147.77519 145.322443 
L 149.279164 145.324721 
L 152.287113 146.160399 
L 153.791087 146.026267 
L 156.799036 146.360574 
L 158.303011 146.900871 
L 159.806985 146.94722 
L 161.310959 146.861165 
L 162.814934 147.415424 
L 165.822883 147.68336 
L 167.326857 147.739461 
L 168.830831 148.107482 
L 170.334806 148.132861 
L 173.342755 148.535403 
L 174.846729 148.322921 
L 176.350704 148.996624 
L 177.854678 148.869714 
L 179.358652 148.932019 
L 180.862627 149.22059 
L 183.870576 149.468167 
L 185.37455 149.170807 
L 186.878524 149.623152 
L 188.382499 149.780208 
L 189.886473 150.067662 
L 191.390448 150.151588 
L 192.894422 150.09654 
L 198.91032 150.614812 
L 201.918269 150.626384 
L 203.422243 151.001047 
L 206.430192 151.190658 
L 207.934166 151.562533 
L 209.438141 151.323441 
L 210.942115 151.576166 
L 212.44609 151.691206 
L 215.454038 151.633841 
L 216.958013 151.918419 
L 219.965962 151.963495 
L 221.469936 152.326757 
L 222.97391 152.241187 
L 224.477885 152.623508 
L 225.981859 152.437183 
L 228.989808 152.589875 
L 231.997757 153.071796 
L 235.005706 152.617927 
L 236.50968 153.149127 
L 238.013655 152.911682 
L 241.021603 153.067466 
L 242.525578 152.965579 
L 245.533527 153.244107 
L 250.04545 153.319984 
L 251.549424 153.368207 
L 254.557373 153.260878 
L 256.061348 153.518334 
L 257.565322 153.594588 
L 259.069296 153.355473 
L 262.077245 153.831727 
L 263.58122 153.590534 
L 266.589169 154.10495 
L 268.093143 153.651784 
L 269.597117 153.863163 
L 272.605066 153.501439 
L 274.109041 153.762399 
L 275.613015 153.823692 
L 277.116989 154.084371 
L 278.620964 153.73086 
L 280.124938 153.800308 
L 281.628913 154.24242 
L 283.132887 154.061156 
L 284.636862 154.449052 
L 286.140836 154.490203 
L 287.64481 154.143705 
L 289.148785 154.324142 
L 290.652759 154.741891 
L 292.156734 154.202427 
L 293.660708 154.427019 
L 295.164683 154.155663 
L 298.172631 154.559686 
L 299.676606 154.851268 
L 301.18058 154.615915 
L 304.188529 154.790887 
L 305.692503 154.593695 
L 307.196478 154.829425 
L 308.700452 154.632269 
L 311.708401 154.77375 
L 313.212376 154.728389 
L 316.220324 155.071731 
L 317.724299 154.644886 
L 319.228273 155.176832 
L 320.732248 154.781152 
L 322.236222 155.092557 
L 323.740196 154.80129 
L 325.244171 154.748393 
L 326.748145 155.124767 
L 328.25212 155.343565 
L 331.260069 154.855358 
L 332.764043 155.102395 
L 335.771992 155.204495 
L 337.275966 154.909 
L 338.779941 155.146179 
L 343.291864 155.22467 
L 344.795838 155.325333 
L 346.299813 155.283197 
L 347.803787 155.428067 
L 349.307762 155.363291 
L 350.811736 155.609249 
L 352.31571 155.192514 
L 353.819685 155.743875 
L 355.323659 155.332511 
L 356.827634 155.342938 
L 358.331608 154.988877 
L 359.835582 155.781547 
L 361.339557 154.887415 
L 362.843531 155.059129 
L 364.347506 155.415962 
L 365.85148 155.615327 
L 367.355455 155.608524 
L 367.355455 155.608524 
" clip-path="url(#p98ad34a0ee)" style="fill: none; stroke-dasharray: 3.7,1.6; stroke-dashoffset: 0; stroke: #9bd93c"/>
   </g>
   <g id="line2d_14">
    <path d="M 68.064545 59.458302 
L 69.56852 59.491713 
L 71.072494 59.908052 
L 72.576469 64.759678 
L 74.080443 72.002506 
L 75.584418 77.385124 
L 78.592366 92.883239 
L 80.096341 97.890452 
L 81.600315 103.404344 
L 83.10429 107.998668 
L 86.112238 114.616383 
L 87.616213 117.82761 
L 89.120187 120.367236 
L 90.624162 121.87257 
L 93.632111 124.385701 
L 95.136085 125.128579 
L 96.640059 126.048651 
L 99.648008 127.110107 
L 101.151983 127.858073 
L 102.655957 128.304674 
L 104.159931 129.51936 
L 105.663906 130.114098 
L 107.16788 130.352094 
L 108.671855 130.764046 
L 110.175829 131.036996 
L 111.679804 131.765241 
L 113.183778 132.198314 
L 114.687752 133.032485 
L 116.191727 132.564992 
L 117.695701 133.320716 
L 120.70365 134.152713 
L 122.207624 134.298958 
L 123.711599 134.737651 
L 125.215573 134.856695 
L 126.719548 135.295022 
L 128.223522 135.361916 
L 131.231471 136.293115 
L 132.735445 136.642478 
L 134.23942 137.158616 
L 135.743394 137.218898 
L 137.247369 137.39857 
L 138.751343 138.01631 
L 140.255317 138.001481 
L 141.759292 138.734753 
L 143.263266 138.970309 
L 144.767241 138.919337 
L 146.271215 139.419498 
L 147.77519 139.747484 
L 150.783138 139.89584 
L 152.287113 140.286114 
L 155.295062 140.86706 
L 156.799036 140.611315 
L 158.303011 141.206215 
L 159.806985 141.130607 
L 161.310959 141.372531 
L 162.814934 141.883511 
L 167.326857 141.995441 
L 170.334806 143.234537 
L 171.83878 143.369951 
L 173.342755 143.818097 
L 174.846729 143.841948 
L 177.854678 144.547212 
L 179.358652 144.527574 
L 182.366601 144.644171 
L 183.870576 145.243823 
L 185.37455 145.427341 
L 186.878524 145.328748 
L 188.382499 145.427748 
L 189.886473 145.855808 
L 191.390448 145.621507 
L 192.894422 145.790992 
L 194.398397 146.331193 
L 195.902371 146.348982 
L 197.406345 146.205055 
L 198.91032 146.257109 
L 201.918269 146.984639 
L 204.926217 146.681606 
L 206.430192 147.338127 
L 207.934166 147.183562 
L 210.942115 147.585632 
L 213.950064 147.4629 
L 215.454038 147.790888 
L 216.958013 147.941377 
L 221.469936 147.974114 
L 222.97391 148.504812 
L 224.477885 148.155511 
L 225.981859 148.564295 
L 228.989808 149.046957 
L 230.493783 148.740432 
L 231.997757 148.624277 
L 233.501731 148.838372 
L 236.50968 148.811268 
L 238.013655 149.236006 
L 239.517629 149.021376 
L 241.021603 149.028279 
L 242.525578 149.29342 
L 244.029552 149.174442 
L 245.533527 149.540216 
L 247.037501 149.675972 
L 248.541476 149.464662 
L 250.04545 149.395516 
L 251.549424 149.863072 
L 253.053399 149.853575 
L 254.557373 149.547204 
L 256.061348 149.90424 
L 257.565322 149.839201 
L 259.069296 150.1358 
L 260.573271 150.209397 
L 262.077245 150.006837 
L 265.085194 150.440312 
L 266.589169 150.370825 
L 268.093143 150.178774 
L 271.101092 150.32858 
L 272.605066 150.04464 
L 275.613015 150.584086 
L 277.116989 150.4583 
L 278.620964 150.780071 
L 280.124938 150.683714 
L 281.628913 150.198109 
L 283.132887 150.72379 
L 284.636862 150.837862 
L 289.148785 150.662733 
L 290.652759 151.333479 
L 292.156734 150.856546 
L 293.660708 151.067658 
L 299.676606 151.154306 
L 301.18058 151.047291 
L 302.684555 151.45193 
L 305.692503 151.657881 
L 307.196478 151.473351 
L 310.204427 151.603569 
L 311.708401 151.80887 
L 313.212376 151.702594 
L 314.71635 151.973496 
L 316.220324 151.799221 
L 317.724299 152.472824 
L 319.228273 151.892828 
L 320.732248 152.176359 
L 322.236222 152.039853 
L 323.740196 152.302105 
L 325.244171 152.170031 
L 326.748145 152.273102 
L 328.25212 152.005348 
L 331.260069 152.249505 
L 332.764043 152.631584 
L 335.771992 152.829366 
L 337.275966 152.684287 
L 338.779941 152.913074 
L 340.283915 152.649699 
L 343.291864 152.880594 
L 344.795838 153.290001 
L 346.299813 152.779644 
L 347.803787 153.106334 
L 349.307762 152.925454 
L 350.811736 153.250266 
L 352.31571 152.92048 
L 353.819685 153.151738 
L 356.827634 153.149581 
L 358.331608 153.231455 
L 359.835582 153.456861 
L 361.339557 153.057218 
L 362.843531 153.431764 
L 364.347506 153.438883 
L 365.85148 153.285696 
L 367.355455 153.617579 
L 367.355455 153.617579 
" clip-path="url(#p98ad34a0ee)" style="fill: none; stroke-dasharray: 3.7,1.6; stroke-dashoffset: 0; stroke: #375a8c"/>
   </g>
   <g id="legend_1">
    <g id="patch_3">
     <path d="M 126.237025 46.127556 
L 309.182975 46.127556 
Q 310.782975 46.127556 310.782975 44.527556 
L 310.782975 21.387331 
Q 310.782975 19.787331 309.182975 19.787331 
L 126.237025 19.787331 
Q 124.637025 19.787331 124.637025 21.387331 
L 124.637025 44.527556 
Q 124.637025 46.127556 126.237025 46.127556 
z
" style="fill: #eaeaf2; opacity: 0.8; stroke: #cccccc; stroke-linejoin: miter"/>
    </g>
    <g id="line2d_15">
     <path d="M 127.837025 26.164915 
L 135.837025 26.164915 
L 143.837025 26.164915 
" style="fill: none; stroke: #9bd93c; stroke-linecap: round"/>
    </g>
    <g id="text_13">
     <!-- Proposed (test) -->
     <g style="fill: #262626" transform="translate(150.237025 28.964915) scale(0.08 -0.08)">
      <defs>
       <path id="CMR17-50" d="M 1267 2042 
L 2291 2042 
C 3117 2042 3718 2578 3718 3184 
C 3718 3791 3130 4352 2291 4352 
L 333 4352 
L 333 4186 
C 774 4186 845 4186 845 3899 
L 845 446 
C 845 160 774 160 333 160 
L 333 0 
C 518 0 858 0 1056 0 
C 1254 0 1594 0 1779 0 
L 1779 160 
C 1338 160 1267 160 1267 446 
L 1267 2042 
z
M 1254 2176 
L 1254 3938 
C 1254 4155 1267 4186 1523 4186 
L 2170 4186 
C 2995 4186 3232 3714 3232 3184 
C 3232 2604 2950 2176 2170 2176 
L 1254 2176 
z
" transform="scale(0.015625)"/>
       <path id="CMR17-72" d="M 960 1497 
C 960 2112 1222 2688 1702 2688 
C 1747 2688 1792 2682 1837 2662 
C 1837 2662 1696 2617 1696 2452 
C 1696 2298 1818 2234 1914 2234 
C 1990 2234 2131 2279 2131 2458 
C 2131 2663 1926 2790 1709 2790 
C 1222 2790 1011 2317 947 2093 
L 941 2093 
L 941 2790 
L 198 2720 
L 198 2554 
C 576 2554 634 2515 634 2208 
L 634 428 
C 634 184 608 153 198 153 
L 198 -13 
C 352 0 646 0 813 0 
C 998 0 1325 0 1498 -13 
L 1498 153 
C 1037 153 960 153 960 440 
L 960 1497 
z
" transform="scale(0.015625)"/>
       <path id="CMR17-64" d="M 1869 4326 
L 1869 4160 
C 2246 4160 2304 4122 2304 3820 
L 2304 2345 
C 2278 2377 2016 2790 1498 2790 
C 845 2790 211 2208 211 1364 
C 211 525 806 -64 1434 -64 
C 1978 -64 2259 337 2291 380 
L 2291 -63 
L 3066 -63 
L 3066 128 
C 2688 128 2630 166 2630 473 
L 2630 4396 
L 1869 4326 
z
M 2291 755 
C 2291 563 2176 390 2029 262 
C 1811 70 1594 38 1472 38 
C 1286 38 621 134 621 1356 
C 621 2612 1363 2688 1530 2688 
C 1824 2688 2061 2522 2208 2291 
C 2291 2157 2291 2138 2291 2023 
L 2291 755 
z
" transform="scale(0.015625)"/>
       <path id="CMR17-28" d="M 1958 -1561 
C 1958 -1555 1958 -1542 1939 -1523 
C 1645 -1224 858 -407 858 1581 
C 858 3569 1632 4379 1946 4697 
C 1946 4704 1958 4717 1958 4736 
C 1958 4755 1939 4768 1914 4768 
C 1843 4768 1299 4296 986 3594 
C 666 2887 576 2199 576 1588 
C 576 1128 621 351 1005 -471 
C 1312 -1135 1837 -1600 1914 -1600 
C 1946 -1600 1958 -1587 1958 -1561 
z
" transform="scale(0.015625)"/>
       <path id="CMR17-74" d="M 966 2560 
L 1862 2560 
L 1862 2725 
L 966 2725 
L 966 3904 
L 851 3904 
C 838 3245 614 2668 70 2668 
L 70 2560 
L 627 2560 
L 627 771 
C 627 650 627 -64 1370 -64 
C 1747 -64 1965 306 1965 777 
L 1965 1140 
L 1850 1140 
L 1850 783 
C 1850 344 1677 51 1408 51 
C 1222 51 966 178 966 758 
L 966 2560 
z
" transform="scale(0.015625)"/>
       <path id="CMR17-29" d="M 1683 1581 
C 1683 2040 1638 2817 1254 3639 
C 947 4303 422 4768 346 4768 
C 326 4768 301 4761 301 4729 
C 301 4717 307 4710 314 4697 
C 621 4378 1402 3568 1402 1584 
C 1402 -407 627 -1217 314 -1537 
C 307 -1549 301 -1556 301 -1568 
C 301 -1600 326 -1600 346 -1600 
C 416 -1600 960 -1128 1274 -426 
C 1594 281 1683 969 1683 1581 
z
" transform="scale(0.015625)"/>
      </defs>
      <use xlink:href="#CMR17-50" transform="scale(0.996264)"/>
      <use xlink:href="#CMR17-72" transform="translate(62.586301 0) scale(0.996264)"/>
      <use xlink:href="#CMR17-6f" transform="translate(97.867068 0) scale(0.996264)"/>
      <use xlink:href="#CMR17-70" transform="translate(143.557545 0) scale(0.996264)"/>
      <use xlink:href="#CMR17-6f" transform="translate(197.055354 0) scale(0.996264)"/>
      <use xlink:href="#CMR17-73" transform="translate(242.745831 0) scale(0.996264)"/>
      <use xlink:href="#CMR17-65" transform="translate(278.547169 0) scale(0.996264)"/>
      <use xlink:href="#CMR17-64" transform="translate(319.032829 0) scale(0.996264)"/>
      <use xlink:href="#CMR17-28" transform="translate(400.004165 0) scale(0.996264)"/>
      <use xlink:href="#CMR17-74" transform="translate(435.284933 0) scale(0.996264)"/>
      <use xlink:href="#CMR17-65" transform="translate(470.565701 0) scale(0.996264)"/>
      <use xlink:href="#CMR17-73" transform="translate(511.051361 0) scale(0.996264)"/>
      <use xlink:href="#CMR17-74" transform="translate(546.852699 0) scale(0.996264)"/>
      <use xlink:href="#CMR17-29" transform="translate(582.133467 0) scale(0.996264)"/>
     </g>
    </g>
    <g id="line2d_16">
     <path d="M 127.837025 38.135028 
L 135.837025 38.135028 
L 143.837025 38.135028 
" style="fill: none; stroke: #375a8c; stroke-linecap: round"/>
    </g>
    <g id="text_14">
     <!-- SNN (test) -->
     <g style="fill: #262626" transform="translate(150.237025 40.935028) scale(0.08 -0.08)">
      <defs>
       <path id="CMR17-53" d="M 2803 4290 
C 2803 4404 2797 4411 2758 4411 
C 2720 4411 2707 4385 2682 4328 
L 2490 3907 
C 2246 4257 1875 4416 1472 4416 
C 819 4416 294 3901 294 3253 
C 294 3056 339 2776 557 2510 
C 794 2218 1018 2167 1530 2033 
C 1722 1982 2042 1899 2106 1874 
C 2470 1722 2662 1341 2662 985 
C 2662 527 2336 38 1779 38 
C 1094 38 454 419 410 1311 
C 403 1413 397 1419 352 1419 
C 301 1419 294 1413 294 1285 
L 294 -1 
C 294 -115 301 -122 339 -122 
C 384 -122 397 -90 486 108 
C 493 127 493 140 614 381 
C 934 -39 1472 -128 1779 -128 
C 2477 -128 2970 451 2970 1124 
C 2970 1454 2848 1708 2778 1823 
C 2509 2230 2221 2306 1914 2382 
C 1869 2402 1856 2402 1498 2490 
C 1152 2579 1005 2624 845 2796 
C 666 2992 602 3196 602 3399 
C 602 3812 934 4263 1478 4263 
C 2157 4263 2579 3786 2675 2993 
C 2694 2878 2701 2872 2746 2872 
C 2803 2872 2803 2891 2803 2999 
L 2803 4290 
z
" transform="scale(0.015625)"/>
       <path id="CMR17-4e" d="M 1312 4250 
C 1267 4320 1261 4320 1139 4320 
L 326 4320 
L 326 4160 
L 448 4160 
C 704 4160 819 4129 838 4122 
L 838 610 
C 838 451 838 153 326 153 
L 326 -13 
C 474 0 742 0 902 0 
C 1062 0 1331 0 1478 -13 
L 1478 153 
C 966 153 966 451 966 610 
L 966 4033 
C 1011 3995 1011 3982 1056 3919 
L 3430 76 
C 3475 0 3494 0 3526 0 
C 3590 0 3590 19 3590 139 
L 3590 3705 
C 3590 3863 3590 4160 4102 4160 
L 4102 4326 
C 3955 4320 3686 4320 3526 4320 
C 3366 4320 3098 4320 2950 4326 
L 2950 4160 
C 3462 4160 3462 3862 3462 3703 
L 3462 763 
L 1312 4250 
z
" transform="scale(0.015625)"/>
      </defs>
      <use xlink:href="#CMR17-53" transform="scale(0.996264)"/>
      <use xlink:href="#CMR17-4e" transform="translate(50.89537 0) scale(0.996264)"/>
      <use xlink:href="#CMR17-4e" transform="translate(119.9678 0) scale(0.996264)"/>
      <use xlink:href="#CMR17-28" transform="translate(219.116196 0) scale(0.996264)"/>
      <use xlink:href="#CMR17-74" transform="translate(254.396964 0) scale(0.996264)"/>
      <use xlink:href="#CMR17-65" transform="translate(289.677731 0) scale(0.996264)"/>
      <use xlink:href="#CMR17-73" transform="translate(330.163392 0) scale(0.996264)"/>
      <use xlink:href="#CMR17-74" transform="translate(365.964729 0) scale(0.996264)"/>
      <use xlink:href="#CMR17-29" transform="translate(401.245497 0) scale(0.996264)"/>
     </g>
    </g>
    <g id="line2d_17">
     <path d="M 223.612975 26.164915 
L 231.612975 26.164915 
L 239.612975 26.164915 
" style="fill: none; stroke-dasharray: 3.7,1.6; stroke-dashoffset: 0; stroke: #9bd93c"/>
    </g>
    <g id="text_15">
     <!-- Proposed (train) -->
     <g style="fill: #262626" transform="translate(246.012975 28.964915) scale(0.08 -0.08)">
      <defs>
       <path id="CMR17-61" d="M 2304 1653 
C 2304 2072 2304 2294 2035 2543 
C 1798 2752 1523 2816 1306 2816 
C 800 2816 435 2407 435 1971 
C 435 1728 627 1728 666 1728 
C 749 1728 896 1778 896 1954 
C 896 2112 774 2181 666 2181 
C 640 2181 608 2174 589 2168 
C 723 2592 1069 2714 1293 2714 
C 1613 2714 1965 2429 1965 1885 
L 1965 1600 
C 1587 1600 1133 1549 774 1357 
C 371 1133 256 813 256 570 
C 256 77 832 -64 1171 -64 
C 1523 -64 1850 139 1990 511 
C 2003 233 2182 -18 2464 -18 
C 2598 -18 2938 70 2938 567 
L 2938 920 
L 2822 920 
L 2822 562 
C 2822 178 2650 128 2566 128 
C 2304 128 2304 458 2304 738 
L 2304 1653 
z
M 1965 870 
C 1965 317 1568 38 1216 38 
C 896 38 646 275 646 570 
C 646 761 730 1100 1101 1305 
C 1408 1478 1760 1504 1965 1504 
L 1965 870 
z
" transform="scale(0.015625)"/>
       <path id="CMR17-69" d="M 992 3909 
C 992 4049 877 4170 730 4170 
C 589 4170 467 4056 467 3909 
C 467 3769 582 3648 730 3648 
C 870 3648 992 3763 992 3909 
z
M 243 2706 
L 243 2541 
C 602 2541 653 2502 653 2197 
L 653 427 
C 653 184 627 153 218 153 
L 218 -13 
C 371 0 646 0 806 0 
C 960 0 1222 0 1370 -13 
L 1370 153 
C 992 153 979 191 979 420 
L 979 2776 
L 243 2706 
z
" transform="scale(0.015625)"/>
       <path id="CMR17-6e" d="M 2656 1933 
C 2656 2259 2592 2790 1837 2790 
C 1331 2790 1069 2400 973 2144 
L 966 2144 
L 966 2790 
L 211 2720 
L 211 2554 
C 589 2554 646 2515 646 2208 
L 646 428 
C 646 184 621 153 211 153 
L 211 -13 
C 365 0 646 0 813 0 
C 979 0 1267 0 1421 -13 
L 1421 153 
C 1011 153 986 178 986 428 
L 986 1658 
C 986 2247 1344 2688 1792 2688 
C 2266 2688 2317 2266 2317 1958 
L 2317 428 
C 2317 184 2291 153 1882 153 
L 1882 -13 
C 2035 0 2317 0 2483 0 
C 2650 0 2938 0 3091 -13 
L 3091 153 
C 2682 153 2656 178 2656 428 
L 2656 1933 
z
" transform="scale(0.015625)"/>
      </defs>
      <use xlink:href="#CMR17-50" transform="scale(0.996264)"/>
      <use xlink:href="#CMR17-72" transform="translate(62.586301 0) scale(0.996264)"/>
      <use xlink:href="#CMR17-6f" transform="translate(97.867068 0) scale(0.996264)"/>
      <use xlink:href="#CMR17-70" transform="translate(143.557545 0) scale(0.996264)"/>
      <use xlink:href="#CMR17-6f" transform="translate(197.055354 0) scale(0.996264)"/>
      <use xlink:href="#CMR17-73" transform="translate(242.745831 0) scale(0.996264)"/>
      <use xlink:href="#CMR17-65" transform="translate(278.547169 0) scale(0.996264)"/>
      <use xlink:href="#CMR17-64" transform="translate(319.032829 0) scale(0.996264)"/>
      <use xlink:href="#CMR17-28" transform="translate(400.004165 0) scale(0.996264)"/>
      <use xlink:href="#CMR17-74" transform="translate(435.284933 0) scale(0.996264)"/>
      <use xlink:href="#CMR17-72" transform="translate(470.565701 0) scale(0.996264)"/>
      <use xlink:href="#CMR17-61" transform="translate(505.846469 0) scale(0.996264)"/>
      <use xlink:href="#CMR17-69" transform="translate(551.536946 0) scale(0.996264)"/>
      <use xlink:href="#CMR17-6e" transform="translate(576.408004 0) scale(0.996264)"/>
      <use xlink:href="#CMR17-29" transform="translate(627.303374 0) scale(0.996264)"/>
     </g>
    </g>
    <g id="line2d_18">
     <path d="M 223.612975 38.135028 
L 231.612975 38.135028 
L 239.612975 38.135028 
" style="fill: none; stroke-dasharray: 3.7,1.6; stroke-dashoffset: 0; stroke: #375a8c"/>
    </g>
    <g id="text_16">
     <!-- SNN (train) -->
     <g style="fill: #262626" transform="translate(246.012975 40.935028) scale(0.08 -0.08)">
      <use xlink:href="#CMR17-53" transform="scale(0.996264)"/>
      <use xlink:href="#CMR17-4e" transform="translate(50.89537 0) scale(0.996264)"/>
      <use xlink:href="#CMR17-4e" transform="translate(119.9678 0) scale(0.996264)"/>
      <use xlink:href="#CMR17-28" transform="translate(219.116196 0) scale(0.996264)"/>
      <use xlink:href="#CMR17-74" transform="translate(254.396964 0) scale(0.996264)"/>
      <use xlink:href="#CMR17-72" transform="translate(289.677731 0) scale(0.996264)"/>
      <use xlink:href="#CMR17-61" transform="translate(324.958499 0) scale(0.996264)"/>
      <use xlink:href="#CMR17-69" transform="translate(370.648976 0) scale(0.996264)"/>
      <use xlink:href="#CMR17-6e" transform="translate(395.520035 0) scale(0.996264)"/>
      <use xlink:href="#CMR17-29" transform="translate(446.415405 0) scale(0.996264)"/>
     </g>
    </g>
   </g>
  </g>
  <g id="text_17">
   <!-- Loss Curve -->
   <g style="fill: #262626" transform="translate(179.226131 14.524276) scale(0.14 -0.14)">
    <defs>
     <path id="CMR17-43" d="M 3974 4289 
C 3974 4403 3968 4410 3930 4410 
C 3904 4410 3898 4403 3853 4327 
L 3571 3792 
C 3258 4187 2874 4416 2381 4416 
C 1286 4416 294 3456 294 2148 
C 294 826 1286 -128 2387 -128 
C 3366 -128 3974 730 3974 1461 
C 3974 1524 3974 1550 3917 1550 
C 3866 1550 3866 1531 3859 1474 
C 3808 585 3168 38 2477 38 
C 1824 38 781 495 781 2147 
C 781 3805 1843 4250 2464 4250 
C 3187 4250 3712 3628 3834 2745 
C 3846 2668 3846 2655 3904 2655 
C 3974 2655 3974 2668 3974 2783 
L 3974 4289 
z
" transform="scale(0.015625)"/>
     <path id="CMR17-75" d="M 1882 2693 
L 1882 2528 
C 2259 2528 2317 2489 2317 2186 
L 2317 1032 
C 2317 500 2029 38 1555 38 
C 1030 38 986 348 986 678 
L 986 2763 
L 211 2693 
L 211 2528 
C 467 2528 640 2528 646 2274 
L 646 1058 
C 646 633 646 361 813 183 
C 896 101 1056 -64 1517 -64 
C 2061 -64 2272 377 2323 506 
L 2330 506 
L 2330 -63 
L 3091 -63 
L 3091 128 
C 2714 128 2656 166 2656 473 
L 2656 2763 
L 1882 2693 
z
" transform="scale(0.015625)"/>
     <path id="CMR17-76" d="M 2502 2163 
C 2560 2304 2662 2560 3034 2560 
L 3034 2726 
C 2912 2726 2752 2726 2630 2726 
C 2496 2726 2285 2726 2157 2732 
L 2157 2566 
C 2317 2553 2406 2477 2406 2311 
C 2406 2253 2406 2240 2368 2151 
L 1664 377 
L 902 2286 
C 864 2369 864 2381 864 2407 
C 864 2560 1075 2560 1171 2560 
L 1171 2732 
C 1018 2726 736 2726 576 2726 
C 403 2726 205 2726 64 2732 
L 64 2560 
C 307 2560 442 2560 518 2362 
L 1446 44 
C 1485 -51 1491 -64 1549 -64 
C 1606 -64 1613 -51 1651 44 
L 2502 2163 
z
" transform="scale(0.015625)"/>
    </defs>
    <use xlink:href="#CMR17-4c" transform="scale(0.996264)"/>
    <use xlink:href="#CMR17-6f" transform="translate(57.381408 0) scale(0.996264)"/>
    <use xlink:href="#CMR17-73" transform="translate(103.071885 0) scale(0.996264)"/>
    <use xlink:href="#CMR17-73" transform="translate(138.873223 0) scale(0.996264)"/>
    <use xlink:href="#CMR17-43" transform="translate(204.750527 0) scale(0.996264)"/>
    <use xlink:href="#CMR17-75" transform="translate(271.260407 0) scale(0.996264)"/>
    <use xlink:href="#CMR17-72" transform="translate(322.155777 0) scale(0.996264)"/>
    <use xlink:href="#CMR17-76" transform="translate(357.436545 0) scale(0.996264)"/>
    <use xlink:href="#CMR17-65" transform="translate(403.127007 0) scale(0.996264)"/>
   </g>
  </g>
 </g>
 <defs>
  <clipPath id="p98ad34a0ee">
   <rect x="53.1" y="51.666189" width="329.22" height="149.495242"/>
  </clipPath>
 </defs>
</svg>
